<svg width="213" height="57" viewBox="0 0 213 57" fill="none" xmlns="http://www.w3.org/2000/svg">
<circle cx="23.5" cy="28.5" r="23.5" fill="#D9D9D9"/>
<path d="M73.24 7.84V28H69.4V11.68H60.76V28H56.92V7.84H73.24ZM78.4263 14.95C79.9663 13.41 81.8363 12.64 84.0363 12.64C86.2363 12.64 88.1063 13.41 89.6463 14.95C91.1863 16.49 91.9563 18.36 91.9563 20.56C91.9563 22.76 91.1863 24.63 89.6463 26.17C88.1063 27.71 86.2363 28.48 84.0363 28.48C81.8363 28.48 79.9663 27.71 78.4263 26.17C76.8863 24.63 76.1163 22.76 76.1163 20.56C76.1163 18.36 76.8863 16.49 78.4263 14.95ZM81.1563 23.44C81.9563 24.24 82.9163 24.64 84.0363 24.64C85.1563 24.64 86.1163 24.24 86.9163 23.44C87.7163 22.64 88.1163 21.68 88.1163 20.56C88.1163 19.44 87.7163 18.48 86.9163 17.68C86.1163 16.88 85.1563 16.48 84.0363 16.48C82.9163 16.48 81.9563 16.88 81.1563 17.68C80.3563 18.48 79.9563 19.44 79.9563 20.56C79.9563 21.68 80.3563 22.64 81.1563 23.44ZM102.27 24.64C103.67 24.64 104.82 24.19 105.72 23.29L107.31 26.71C106.09 27.89 104.37 28.48 102.15 28.48C99.6102 28.48 97.5902 27.73 96.0902 26.23C94.6102 24.71 93.8702 22.82 93.8702 20.56C93.8702 18.3 94.6202 16.42 96.1202 14.92C97.6202 13.4 99.6302 12.64 102.15 12.64C104.27 12.64 105.99 13.23 107.31 14.41L105.72 17.86C104.8 16.94 103.65 16.48 102.27 16.48C100.89 16.48 99.7802 16.87 98.9402 17.65C98.1202 18.43 97.7102 19.4 97.7102 20.56C97.7102 21.72 98.1202 22.69 98.9402 23.47C99.7802 24.25 100.89 24.64 102.27 24.64ZM117.147 20.32L124.827 28H120.027L113.787 22.12V28H109.947V13.12H113.787V18.76L119.547 13.12H124.347L117.147 20.32ZM127.352 14.95C128.892 13.41 130.762 12.64 132.962 12.64C135.162 12.64 137.032 13.41 138.572 14.95C140.112 16.49 140.882 18.36 140.882 20.56C140.882 22.76 140.112 24.63 138.572 26.17C137.032 27.71 135.162 28.48 132.962 28.48C130.762 28.48 128.892 27.71 127.352 26.17C125.812 24.63 125.042 22.76 125.042 20.56C125.042 18.36 125.812 16.49 127.352 14.95ZM130.082 23.44C130.882 24.24 131.842 24.64 132.962 24.64C134.082 24.64 135.042 24.24 135.842 23.44C136.642 22.64 137.042 21.68 137.042 20.56C137.042 19.44 136.642 18.48 135.842 17.68C135.042 16.88 134.082 16.48 132.962 16.48C131.842 16.48 130.882 16.88 130.082 17.68C129.282 18.48 128.882 19.44 128.882 20.56C128.882 21.68 129.282 22.64 130.082 23.44ZM151.687 12.64C153.747 12.64 155.497 13.42 156.937 14.98C158.397 16.52 159.127 18.38 159.127 20.56C159.127 22.74 158.397 24.61 156.937 26.17C155.497 27.71 153.747 28.48 151.687 28.48C149.847 28.48 148.327 27.79 147.127 26.41V35.68H143.287V13.12H147.127V14.71C148.327 13.33 149.847 12.64 151.687 12.64ZM148.327 23.44C149.127 24.24 150.087 24.64 151.207 24.64C152.327 24.64 153.287 24.24 154.087 23.44C154.887 22.64 155.287 21.68 155.287 20.56C155.287 19.44 154.887 18.48 154.087 17.68C153.287 16.88 152.327 16.48 151.207 16.48C150.087 16.48 149.127 16.88 148.327 17.68C147.527 18.48 147.127 19.44 147.127 20.56C147.127 21.68 147.527 22.64 148.327 23.44ZM175.928 20.56C175.928 20.84 175.908 21.24 175.868 21.76H165.038C165.318 22.78 165.828 23.6 166.568 24.22C167.328 24.82 168.288 25.12 169.448 25.12C171.108 25.12 172.588 24.66 173.888 23.74L174.998 27.07C174.838 27.17 174.608 27.3 174.308 27.46C174.028 27.62 173.398 27.83 172.418 28.09C171.458 28.35 170.448 28.48 169.388 28.48C166.628 28.48 164.548 27.74 163.148 26.26C161.748 24.78 161.048 22.88 161.048 20.56C161.048 18.24 161.708 16.34 163.028 14.86C164.348 13.38 166.248 12.64 168.728 12.64C171.048 12.64 172.828 13.34 174.068 14.74C175.308 16.12 175.928 18.06 175.928 20.56ZM165.128 18.88H171.848C171.848 18.16 171.548 17.5 170.948 16.9C170.368 16.3 169.548 16 168.488 16C167.588 16 166.798 16.32 166.118 16.96C165.458 17.58 165.128 18.22 165.128 18.88ZM192.715 20.56C192.715 20.84 192.695 21.24 192.655 21.76H181.825C182.105 22.78 182.615 23.6 183.355 24.22C184.115 24.82 185.075 25.12 186.235 25.12C187.895 25.12 189.375 24.66 190.675 23.74L191.785 27.07C191.625 27.17 191.395 27.3 191.095 27.46C190.815 27.62 190.185 27.83 189.205 28.09C188.245 28.35 187.235 28.48 186.175 28.48C183.415 28.48 181.335 27.74 179.935 26.26C178.535 24.78 177.835 22.88 177.835 20.56C177.835 18.24 178.495 16.34 179.815 14.86C181.135 13.38 183.035 12.64 185.515 12.64C187.835 12.64 189.615 13.34 190.855 14.74C192.095 16.12 192.715 18.06 192.715 20.56ZM181.915 18.88H188.635C188.635 18.16 188.335 17.5 187.735 16.9C187.155 16.3 186.335 16 185.275 16C184.375 16 183.585 16.32 182.905 16.96C182.245 17.58 181.915 18.22 181.915 18.88ZM205.673 20.17C206.433 20.37 207.023 20.75 207.443 21.31C207.863 21.87 208.073 22.54 208.073 23.32C208.073 25 207.473 26.2 206.273 26.92C205.093 27.64 203.373 28 201.113 28H195.113V13.12H200.633C205.273 13.12 207.593 14.52 207.593 17.32C207.593 18 207.423 18.6 207.083 19.12C206.763 19.62 206.293 19.97 205.673 20.17ZM198.953 16.96V19.12H202.013C203.173 19.12 203.753 18.76 203.753 18.04C203.753 17.32 203.173 16.96 202.013 16.96H198.953ZM202.463 24.16C202.903 24.16 203.303 24.06 203.663 23.86C204.043 23.64 204.233 23.34 204.233 22.96C204.233 22.58 204.043 22.29 203.663 22.09C203.303 21.87 202.903 21.76 202.463 21.76H198.953V24.16H202.463Z" fill="black"/>
<path d="M73.24 7.84H73.54V7.54H73.24V7.84ZM73.24 28V28.3H73.54V28H73.24ZM69.4 28H69.1V28.3H69.4V28ZM69.4 11.68H69.7V11.38H69.4V11.68ZM60.76 11.68V11.38H60.46V11.68H60.76ZM60.76 28V28.3H61.06V28H60.76ZM56.92 28H56.62V28.3H56.92V28ZM56.92 7.84V7.54H56.62V7.84H56.92ZM72.94 7.84V28H73.54V7.84H72.94ZM73.24 27.7H69.4V28.3H73.24V27.7ZM69.7 28V11.68H69.1V28H69.7ZM69.4 11.38H60.76V11.98H69.4V11.38ZM60.46 11.68V28H61.06V11.68H60.46ZM60.76 27.7H56.92V28.3H60.76V27.7ZM57.22 28V7.84H56.62V28H57.22ZM56.92 8.14H73.24V7.54H56.92V8.14ZM78.4263 14.95L78.2141 14.7379L78.2141 14.7379L78.4263 14.95ZM89.6463 14.95L89.8584 14.7379L89.8584 14.7379L89.6463 14.95ZM89.6463 26.17L89.8584 26.3821L89.6463 26.17ZM78.4263 26.17L78.6384 25.9579L78.4263 26.17ZM86.9163 23.44L86.7041 23.2279L86.7041 23.2279L86.9163 23.44ZM81.1563 17.68L80.9441 17.4679L80.9441 17.4679L81.1563 17.68ZM78.6384 15.1621C80.1215 13.679 81.9149 12.94 84.0363 12.94V12.34C81.7576 12.34 79.811 13.141 78.2141 14.7379L78.6384 15.1621ZM84.0363 12.94C86.1576 12.94 87.951 13.679 89.4341 15.1621L89.8584 14.7379C88.2615 13.141 86.3149 12.34 84.0363 12.34V12.94ZM89.4341 15.1621C90.9172 16.6452 91.6563 18.4387 91.6563 20.56H92.2563C92.2563 18.2813 91.4553 16.3348 89.8584 14.7379L89.4341 15.1621ZM91.6563 20.56C91.6563 22.6813 90.9172 24.4748 89.4341 25.9579L89.8584 26.3821C91.4553 24.7852 92.2563 22.8387 92.2563 20.56H91.6563ZM89.4341 25.9579C87.951 27.441 86.1576 28.18 84.0363 28.18V28.78C86.3149 28.78 88.2615 27.979 89.8584 26.3821L89.4341 25.9579ZM84.0363 28.18C81.9149 28.18 80.1215 27.441 78.6384 25.9579L78.2141 26.3821C79.811 27.979 81.7576 28.78 84.0363 28.78V28.18ZM78.6384 25.9579C77.1553 24.4748 76.4163 22.6813 76.4163 20.56H75.8163C75.8163 22.8387 76.6172 24.7852 78.2141 26.3821L78.6384 25.9579ZM76.4163 20.56C76.4163 18.4387 77.1553 16.6452 78.6384 15.1621L78.2141 14.7379C76.6172 16.3348 75.8163 18.2813 75.8163 20.56H76.4163ZM80.9441 23.6521C81.7997 24.5078 82.8358 24.94 84.0363 24.94V24.34C82.9967 24.34 82.1128 23.9722 81.3684 23.2279L80.9441 23.6521ZM84.0363 24.94C85.2367 24.94 86.2728 24.5078 87.1284 23.6521L86.7041 23.2279C85.9597 23.9722 85.0758 24.34 84.0363 24.34V24.94ZM87.1284 23.6521C87.984 22.7965 88.4163 21.7605 88.4163 20.56H87.8163C87.8163 21.5995 87.4485 22.4835 86.7041 23.2279L87.1284 23.6521ZM88.4163 20.56C88.4163 19.3595 87.984 18.3235 87.1284 17.4679L86.7041 17.8921C87.4485 18.6365 87.8163 19.5205 87.8163 20.56H88.4163ZM87.1284 17.4679C86.2728 16.6122 85.2367 16.18 84.0363 16.18V16.78C85.0758 16.78 85.9597 17.1478 86.7041 17.8921L87.1284 17.4679ZM84.0363 16.18C82.8358 16.18 81.7997 16.6122 80.9441 17.4679L81.3684 17.8921C82.1128 17.1478 82.9967 16.78 84.0363 16.78V16.18ZM80.9441 17.4679C80.0885 18.3235 79.6563 19.3595 79.6563 20.56H80.2563C80.2563 19.5205 80.624 18.6365 81.3684 17.8921L80.9441 17.4679ZM79.6563 20.56C79.6563 21.7605 80.0885 22.7965 80.9441 23.6521L81.3684 23.2279C80.624 22.4835 80.2563 21.5995 80.2563 20.56H79.6563ZM105.72 23.29L105.992 23.1635L105.811 22.7745L105.508 23.0779L105.72 23.29ZM107.31 26.71L107.519 26.9256L107.672 26.7772L107.582 26.5835L107.31 26.71ZM96.0902 26.23L95.8752 26.4393L95.878 26.4421L96.0902 26.23ZM96.1202 14.92L96.3323 15.1321L96.3337 15.1307L96.1202 14.92ZM107.31 14.41L107.583 14.5356L107.675 14.3341L107.51 14.1863L107.31 14.41ZM105.72 17.86L105.508 18.0721L105.812 18.3765L105.993 17.9856L105.72 17.86ZM98.9402 17.65L98.736 17.4301L98.7334 17.4326L98.9402 17.65ZM98.9402 23.47L98.7334 23.6874L98.736 23.6898L98.9402 23.47ZM102.27 24.94C103.741 24.94 104.97 24.4643 105.932 23.5021L105.508 23.0779C104.67 23.9157 103.599 24.34 102.27 24.34V24.94ZM105.448 23.4165L107.038 26.8365L107.582 26.5835L105.992 23.1635L105.448 23.4165ZM107.102 26.4944C105.953 27.6052 104.317 28.18 102.15 28.18V28.78C104.423 28.78 106.227 28.1748 107.519 26.9256L107.102 26.4944ZM102.15 28.18C99.6729 28.18 97.7352 27.4507 96.3023 26.0179L95.878 26.4421C97.4452 28.0093 99.5474 28.78 102.15 28.78V28.18ZM96.3051 26.0207C94.8834 24.5606 94.1702 22.7475 94.1702 20.56H93.5702C93.5702 22.8925 94.3369 24.8594 95.8752 26.4393L96.3051 26.0207ZM94.1702 20.56C94.1702 18.3738 94.8925 16.5719 96.3323 15.1321L95.908 14.7079C94.3478 16.2681 93.5702 18.2262 93.5702 20.56H94.1702ZM96.3337 15.1307C97.7672 13.6781 99.6948 12.94 102.15 12.94V12.34C99.5655 12.34 97.4731 13.1219 95.9066 14.7093L96.3337 15.1307ZM102.15 12.94C104.212 12.94 105.856 13.5122 107.11 14.6337L107.51 14.1863C106.125 12.9478 104.329 12.34 102.15 12.34V12.94ZM107.038 14.2844L105.448 17.7344L105.993 17.9856L107.583 14.5356L107.038 14.2844ZM105.932 17.6479C104.952 16.6679 103.724 16.18 102.27 16.18V16.78C103.576 16.78 104.648 17.2121 105.508 18.0721L105.932 17.6479ZM102.27 16.18C100.831 16.18 99.6424 16.5885 98.736 17.4302L99.1443 17.8698C99.9179 17.1515 100.95 16.78 102.27 16.78V16.18ZM98.7334 17.4326C97.8522 18.2708 97.4102 19.3202 97.4102 20.56H98.0102C98.0102 19.4798 98.3881 18.5892 99.1469 17.8674L98.7334 17.4326ZM97.4102 20.56C97.4102 21.7998 97.8522 22.8492 98.7334 23.6874L99.1469 23.2526C98.3881 22.5308 98.0102 21.6402 98.0102 20.56H97.4102ZM98.736 23.6898C99.6424 24.5315 100.831 24.94 102.27 24.94V24.34C100.95 24.34 99.9179 23.9685 99.1443 23.2502L98.736 23.6898ZM117.147 20.32L116.935 20.1079L116.723 20.32L116.935 20.5321L117.147 20.32ZM124.827 28V28.3H125.552L125.039 27.7879L124.827 28ZM120.027 28L119.822 28.2183L119.908 28.3H120.027V28ZM113.787 22.12L113.993 21.9017L113.487 21.4251V22.12H113.787ZM113.787 28V28.3H114.087V28H113.787ZM109.947 28H109.647V28.3H109.947V28ZM109.947 13.12V12.82H109.647V13.12H109.947ZM113.787 13.12H114.087V12.82H113.787V13.12ZM113.787 18.76H113.487V19.4736L113.997 18.9744L113.787 18.76ZM119.547 13.12V12.82H119.425L119.337 12.9056L119.547 13.12ZM124.347 13.12L124.559 13.3321L125.072 12.82H124.347V13.12ZM116.935 20.5321L124.615 28.2121L125.039 27.7879L117.359 20.1079L116.935 20.5321ZM124.827 27.7H120.027V28.3H124.827V27.7ZM120.233 27.7817L113.993 21.9017L113.582 22.3383L119.822 28.2183L120.233 27.7817ZM113.487 22.12V28H114.087V22.12H113.487ZM113.787 27.7H109.947V28.3H113.787V27.7ZM110.247 28V13.12H109.647V28H110.247ZM109.947 13.42H113.787V12.82H109.947V13.42ZM113.487 13.12V18.76H114.087V13.12H113.487ZM113.997 18.9744L119.757 13.3344L119.337 12.9056L113.577 18.5456L113.997 18.9744ZM119.547 13.42H124.347V12.82H119.547V13.42ZM124.135 12.9079L116.935 20.1079L117.359 20.5321L124.559 13.3321L124.135 12.9079ZM127.352 14.95L127.14 14.7379L127.14 14.7379L127.352 14.95ZM138.572 14.95L138.784 14.7379L138.784 14.7379L138.572 14.95ZM138.572 26.17L138.784 26.3821L138.572 26.17ZM127.352 26.17L127.564 25.9579L127.352 26.17ZM135.842 23.44L135.63 23.2279L135.63 23.2279L135.842 23.44ZM130.082 17.68L129.87 17.4679L129.87 17.4679L130.082 17.68ZM127.564 15.1621C129.047 13.679 130.841 12.94 132.962 12.94V12.34C130.683 12.34 128.737 13.141 127.14 14.7379L127.564 15.1621ZM132.962 12.94C135.083 12.94 136.877 13.679 138.36 15.1621L138.784 14.7379C137.187 13.141 135.241 12.34 132.962 12.34V12.94ZM138.36 15.1621C139.843 16.6452 140.582 18.4387 140.582 20.56H141.182C141.182 18.2813 140.381 16.3348 138.784 14.7379L138.36 15.1621ZM140.582 20.56C140.582 22.6813 139.843 24.4748 138.36 25.9579L138.784 26.3821C140.381 24.7852 141.182 22.8387 141.182 20.56H140.582ZM138.36 25.9579C136.877 27.441 135.083 28.18 132.962 28.18V28.78C135.241 28.78 137.187 27.979 138.784 26.3821L138.36 25.9579ZM132.962 28.18C130.841 28.18 129.047 27.441 127.564 25.9579L127.14 26.3821C128.737 27.979 130.683 28.78 132.962 28.78V28.18ZM127.564 25.9579C126.081 24.4748 125.342 22.6813 125.342 20.56H124.742C124.742 22.8387 125.543 24.7852 127.14 26.3821L127.564 25.9579ZM125.342 20.56C125.342 18.4387 126.081 16.6452 127.564 15.1621L127.14 14.7379C125.543 16.3348 124.742 18.2813 124.742 20.56H125.342ZM129.87 23.6521C130.726 24.5078 131.762 24.94 132.962 24.94V24.34C131.922 24.34 131.039 23.9722 130.294 23.2279L129.87 23.6521ZM132.962 24.94C134.163 24.94 135.199 24.5078 136.054 23.6521L135.63 23.2279C134.886 23.9722 134.002 24.34 132.962 24.34V24.94ZM136.054 23.6521C136.91 22.7965 137.342 21.7605 137.342 20.56H136.742C136.742 21.5995 136.374 22.4835 135.63 23.2279L136.054 23.6521ZM137.342 20.56C137.342 19.3595 136.91 18.3235 136.054 17.4679L135.63 17.8921C136.374 18.6365 136.742 19.5205 136.742 20.56H137.342ZM136.054 17.4679C135.199 16.6122 134.163 16.18 132.962 16.18V16.78C134.002 16.78 134.886 17.1478 135.63 17.8921L136.054 17.4679ZM132.962 16.18C131.762 16.18 130.726 16.6122 129.87 17.4679L130.294 17.8921C131.039 17.1478 131.922 16.78 132.962 16.78V16.18ZM129.87 17.4679C129.014 18.3235 128.582 19.3595 128.582 20.56H129.182C129.182 19.5205 129.55 18.6365 130.294 17.8921L129.87 17.4679ZM128.582 20.56C128.582 21.7605 129.014 22.7965 129.87 23.6521L130.294 23.2279C129.55 22.4835 129.182 21.5995 129.182 20.56H128.582ZM156.937 14.98L156.717 15.1835L156.719 15.1864L156.937 14.98ZM156.937 26.17L156.718 25.965L156.718 25.9651L156.937 26.17ZM147.127 26.41L147.354 26.2131L146.827 25.6078V26.41H147.127ZM147.127 35.68V35.98H147.427V35.68H147.127ZM143.287 35.68H142.987V35.98H143.287V35.68ZM143.287 13.12V12.82H142.987V13.12H143.287ZM147.127 13.12H147.427V12.82H147.127V13.12ZM147.127 14.71H146.827V15.5122L147.354 14.9069L147.127 14.71ZM148.327 23.44L148.539 23.2279L148.539 23.2279L148.327 23.44ZM154.087 23.44L154.299 23.6521L154.299 23.6521L154.087 23.44ZM154.087 17.68L154.299 17.4679L154.299 17.4679L154.087 17.68ZM151.687 12.94C153.661 12.94 155.332 13.6829 156.717 15.1835L157.158 14.7765C155.663 13.1571 153.834 12.34 151.687 12.34V12.94ZM156.719 15.1864C158.125 16.669 158.827 18.4545 158.827 20.56H159.427C159.427 18.3055 158.669 16.371 157.155 14.7736L156.719 15.1864ZM158.827 20.56C158.827 22.6656 158.125 24.4618 156.718 25.965L157.156 26.375C158.669 24.7582 159.427 22.8144 159.427 20.56H158.827ZM156.718 25.9651C155.333 27.446 153.662 28.18 151.687 28.18V28.78C153.832 28.78 155.661 27.974 157.156 26.3749L156.718 25.9651ZM151.687 28.18C149.933 28.18 148.496 27.5272 147.354 26.2131L146.901 26.6069C148.158 28.0528 149.761 28.78 151.687 28.78V28.18ZM146.827 26.41V35.68H147.427V26.41H146.827ZM147.127 35.38H143.287V35.98H147.127V35.38ZM143.587 35.68V13.12H142.987V35.68H143.587ZM143.287 13.42H147.127V12.82H143.287V13.42ZM146.827 13.12V14.71H147.427V13.12H146.827ZM147.354 14.9069C148.496 13.5928 149.933 12.94 151.687 12.94V12.34C149.761 12.34 148.158 13.0672 146.901 14.5131L147.354 14.9069ZM148.115 23.6521C148.971 24.5078 150.007 24.94 151.207 24.94V24.34C150.168 24.34 149.284 23.9722 148.539 23.2279L148.115 23.6521ZM151.207 24.94C152.408 24.94 153.444 24.5078 154.299 23.6521L153.875 23.2279C153.131 23.9722 152.247 24.34 151.207 24.34V24.94ZM154.299 23.6521C155.155 22.7965 155.587 21.7605 155.587 20.56H154.987C154.987 21.5995 154.619 22.4835 153.875 23.2279L154.299 23.6521ZM155.587 20.56C155.587 19.3595 155.155 18.3235 154.299 17.4679L153.875 17.8921C154.619 18.6365 154.987 19.5205 154.987 20.56H155.587ZM154.299 17.4679C153.444 16.6122 152.408 16.18 151.207 16.18V16.78C152.247 16.78 153.131 17.1478 153.875 17.8921L154.299 17.4679ZM151.207 16.18C150.007 16.18 148.971 16.6122 148.115 17.4679L148.539 17.8921C149.284 17.1478 150.168 16.78 151.207 16.78V16.18ZM148.115 17.4679C147.259 18.3235 146.827 19.3595 146.827 20.56H147.427C147.427 19.5205 147.795 18.6365 148.539 17.8921L148.115 17.4679ZM146.827 20.56C146.827 21.7605 147.259 22.7965 148.115 23.6521L148.539 23.2279C147.795 22.4835 147.427 21.5995 147.427 20.56H146.827ZM175.868 21.76V22.06H176.146L176.167 21.783L175.868 21.76ZM165.038 21.76V21.46H164.644L164.749 21.8394L165.038 21.76ZM166.568 24.22L166.375 24.4501L166.382 24.4555L166.568 24.22ZM173.888 23.74L174.172 23.6451L174.045 23.2615L173.715 23.4951L173.888 23.74ZM174.998 27.07L175.157 27.3244L175.357 27.1992L175.282 26.9751L174.998 27.07ZM174.308 27.46L174.167 27.1952L174.159 27.1995L174.308 27.46ZM172.418 28.09L172.341 27.8L172.339 27.8004L172.418 28.09ZM163.148 26.26L163.366 26.0538L163.366 26.0538L163.148 26.26ZM163.028 14.86L163.252 15.0597L163.252 15.0597L163.028 14.86ZM174.068 14.74L173.843 14.9389L173.845 14.9405L174.068 14.74ZM165.128 18.88H164.828V19.18H165.128V18.88ZM171.848 18.88V19.18H172.148V18.88H171.848ZM170.948 16.9L170.732 17.1085L170.736 17.1121L170.948 16.9ZM166.118 16.96L166.323 17.1787L166.324 17.1785L166.118 16.96ZM175.628 20.56C175.628 20.8284 175.609 21.2193 175.569 21.737L176.167 21.783C176.207 21.2607 176.228 20.8516 176.228 20.56H175.628ZM175.868 21.46H165.038V22.06H175.868V21.46ZM164.749 21.8394C165.043 22.9124 165.584 23.787 166.375 24.45L166.761 23.99C166.072 23.413 165.593 22.6476 165.327 21.6806L164.749 21.8394ZM166.382 24.4555C167.205 25.1051 168.234 25.42 169.448 25.42V24.82C168.342 24.82 167.451 24.5349 166.754 23.9845L166.382 24.4555ZM169.448 25.42C171.167 25.42 172.708 24.9423 174.061 23.9849L173.715 23.4951C172.467 24.3777 171.049 24.82 169.448 24.82V25.42ZM173.603 23.8349L174.713 27.1649L175.282 26.9751L174.172 23.6451L173.603 23.8349ZM174.839 26.8156C174.688 26.9102 174.465 27.0364 174.167 27.1953L174.449 27.7247C174.751 27.5636 174.988 27.4298 175.157 27.3244L174.839 26.8156ZM174.159 27.1995C173.919 27.3366 173.329 27.5379 172.341 27.8L172.495 28.38C173.467 28.1221 174.137 27.9034 174.457 27.7205L174.159 27.1995ZM172.339 27.8004C171.407 28.0531 170.423 28.18 169.388 28.18V28.78C170.473 28.78 171.509 28.6469 172.496 28.3796L172.339 27.8004ZM169.388 28.18C166.68 28.18 164.691 27.455 163.366 26.0538L162.93 26.4662C164.405 28.025 166.576 28.78 169.388 28.78V28.18ZM163.366 26.0538C162.026 24.6374 161.348 22.8148 161.348 20.56H160.748C160.748 22.9452 161.47 24.9226 162.93 26.4662L163.366 26.0538ZM161.348 20.56C161.348 18.3004 161.989 16.4756 163.252 15.0597L162.804 14.6603C161.427 16.2044 160.748 18.1796 160.748 20.56H161.348ZM163.252 15.0597C164.501 13.6589 166.31 12.94 168.728 12.94V12.34C166.185 12.34 164.195 13.1011 162.804 14.6603L163.252 15.0597ZM168.728 12.94C170.984 12.94 172.674 13.6182 173.843 14.9389L174.292 14.5411C172.982 13.0618 171.111 12.34 168.728 12.34V12.94ZM173.845 14.9405C175.02 16.2487 175.628 18.108 175.628 20.56H176.228C176.228 18.012 175.596 15.9913 174.291 14.5395L173.845 14.9405ZM165.128 19.18H171.848V18.58H165.128V19.18ZM172.148 18.88C172.148 18.0663 171.805 17.3333 171.16 16.6879L170.736 17.1121C171.29 17.6667 171.548 18.2536 171.548 18.88H172.148ZM171.164 16.6915C170.513 16.0182 169.606 15.7 168.488 15.7V16.3C169.49 16.3 170.223 16.5818 170.732 17.1085L171.164 16.6915ZM168.488 15.7C167.508 15.7 166.646 16.0513 165.912 16.7415L166.324 17.1785C166.95 16.5887 167.667 16.3 168.488 16.3V15.7ZM165.912 16.7413C165.215 17.3963 164.828 18.11 164.828 18.88H165.428C165.428 18.33 165.7 17.7637 166.323 17.1787L165.912 16.7413ZM192.655 21.76V22.06H192.933L192.954 21.783L192.655 21.76ZM181.825 21.76V21.46H181.432L181.536 21.8394L181.825 21.76ZM183.355 24.22L183.162 24.4501L183.169 24.4555L183.355 24.22ZM190.675 23.74L190.96 23.6451L190.832 23.2615L190.502 23.4951L190.675 23.74ZM191.785 27.07L191.944 27.3244L192.144 27.1992L192.07 26.9751L191.785 27.07ZM191.095 27.46L190.954 27.1952L190.946 27.1995L191.095 27.46ZM189.205 28.09L189.128 27.8L189.127 27.8004L189.205 28.09ZM179.935 26.26L180.153 26.0538L180.153 26.0538L179.935 26.26ZM179.815 14.86L180.039 15.0597L180.039 15.0597L179.815 14.86ZM190.855 14.74L190.63 14.9389L190.632 14.9405L190.855 14.74ZM181.915 18.88H181.615V19.18H181.915V18.88ZM188.635 18.88V19.18H188.935V18.88H188.635ZM187.735 16.9L187.519 17.1085L187.523 17.1121L187.735 16.9ZM182.905 16.96L183.11 17.1787L183.111 17.1785L182.905 16.96ZM192.415 20.56C192.415 20.8284 192.396 21.2193 192.356 21.737L192.954 21.783C192.994 21.2607 193.015 20.8516 193.015 20.56H192.415ZM192.655 21.46H181.825V22.06H192.655V21.46ZM181.536 21.8394C181.83 22.9124 182.371 23.787 183.162 24.45L183.548 23.99C182.859 23.413 182.38 22.6476 182.114 21.6806L181.536 21.8394ZM183.169 24.4555C183.992 25.1051 185.021 25.42 186.235 25.42V24.82C185.129 24.82 184.238 24.5349 183.541 23.9845L183.169 24.4555ZM186.235 25.42C187.954 25.42 189.495 24.9423 190.848 23.9849L190.502 23.4951C189.255 24.3777 187.836 24.82 186.235 24.82V25.42ZM190.39 23.8349L191.5 27.1649L192.07 26.9751L190.96 23.6451L190.39 23.8349ZM191.626 26.8156C191.475 26.9102 191.252 27.0364 190.954 27.1953L191.236 27.7247C191.538 27.5636 191.775 27.4298 191.944 27.3244L191.626 26.8156ZM190.946 27.1995C190.706 27.3366 190.116 27.5379 189.128 27.8L189.282 28.38C190.254 28.1221 190.924 27.9034 191.244 27.7205L190.946 27.1995ZM189.127 27.8004C188.194 28.0531 187.21 28.18 186.175 28.18V28.78C187.26 28.78 188.296 28.6469 189.283 28.3796L189.127 27.8004ZM186.175 28.18C183.467 28.18 181.478 27.455 180.153 26.0538L179.717 26.4662C181.192 28.025 183.363 28.78 186.175 28.78V28.18ZM180.153 26.0538C178.813 24.6374 178.135 22.8148 178.135 20.56H177.535C177.535 22.9452 178.257 24.9226 179.717 26.4662L180.153 26.0538ZM178.135 20.56C178.135 18.3004 178.776 16.4756 180.039 15.0597L179.591 14.6603C178.214 16.2044 177.535 18.1796 177.535 20.56H178.135ZM180.039 15.0597C181.288 13.6589 183.097 12.94 185.515 12.94V12.34C182.973 12.34 180.982 13.1011 179.591 14.6603L180.039 15.0597ZM185.515 12.94C187.771 12.94 189.461 13.6182 190.63 14.9389L191.08 14.5411C189.769 13.0618 187.899 12.34 185.515 12.34V12.94ZM190.632 14.9405C191.807 16.2487 192.415 18.108 192.415 20.56H193.015C193.015 18.012 192.383 15.9913 191.078 14.5395L190.632 14.9405ZM181.915 19.18H188.635V18.58H181.915V19.18ZM188.935 18.88C188.935 18.0663 188.593 17.3333 187.947 16.6879L187.523 17.1121C188.077 17.6667 188.335 18.2536 188.335 18.88H188.935ZM187.951 16.6915C187.3 16.0182 186.393 15.7 185.275 15.7V16.3C186.277 16.3 187.01 16.5818 187.519 17.1085L187.951 16.6915ZM185.275 15.7C184.295 15.7 183.433 16.0513 182.699 16.7415L183.111 17.1785C183.737 16.5887 184.455 16.3 185.275 16.3V15.7ZM182.7 16.7413C182.002 17.3963 181.615 18.11 181.615 18.88H182.215C182.215 18.33 182.488 17.7637 183.11 17.1787L182.7 16.7413ZM205.673 20.17L205.581 19.8845L204.606 20.1992L205.597 20.4601L205.673 20.17ZM207.443 21.31L207.203 21.49L207.203 21.49L207.443 21.31ZM206.273 26.92L206.119 26.6627L206.117 26.6639L206.273 26.92ZM195.113 28H194.813V28.3H195.113V28ZM195.113 13.12V12.82H194.813V13.12H195.113ZM207.083 19.12L206.832 18.9558L206.831 18.9583L207.083 19.12ZM198.953 16.96V16.66H198.653V16.96H198.953ZM198.953 19.12H198.653V19.42H198.953V19.12ZM203.663 23.86L203.809 24.1223L203.814 24.1196L203.663 23.86ZM203.663 22.09L203.507 22.346L203.515 22.351L203.524 22.3555L203.663 22.09ZM198.953 21.76V21.46H198.653V21.76H198.953ZM198.953 24.16H198.653V24.46H198.953V24.16ZM205.597 20.4601C206.3 20.6451 206.829 20.9907 207.203 21.49L207.683 21.13C207.218 20.5093 206.567 20.0949 205.75 19.8799L205.597 20.4601ZM207.203 21.49C207.58 21.9922 207.773 22.5971 207.773 23.32H208.373C208.373 22.4829 208.147 21.7478 207.683 21.13L207.203 21.49ZM207.773 23.32C207.773 24.9194 207.209 26.0086 206.119 26.6628L206.428 27.1772C207.737 26.3914 208.373 25.0806 208.373 23.32H207.773ZM206.117 26.6639C205.005 27.3423 203.35 27.7 201.113 27.7V28.3C203.397 28.3 205.181 27.9377 206.43 27.1761L206.117 26.6639ZM201.113 27.7H195.113V28.3H201.113V27.7ZM195.413 28V13.12H194.813V28H195.413ZM195.113 13.42H200.633V12.82H195.113V13.42ZM200.633 13.42C202.933 13.42 204.608 13.7687 205.698 14.4269C206.765 15.0704 207.293 16.0208 207.293 17.32H207.893C207.893 15.8192 207.262 14.6696 206.008 13.9131C204.779 13.1713 202.974 12.82 200.633 12.82V13.42ZM207.293 17.32C207.293 17.9474 207.137 18.4892 206.832 18.9558L207.334 19.2842C207.709 18.7108 207.893 18.0526 207.893 17.32H207.293ZM206.831 18.9583C206.552 19.3938 206.142 19.7036 205.581 19.8845L205.765 20.4555C206.445 20.2364 206.975 19.8462 207.336 19.2817L206.831 18.9583ZM198.653 16.96V19.12H199.253V16.96H198.653ZM198.953 19.42H202.013V18.82H198.953V19.42ZM202.013 19.42C202.615 19.42 203.116 19.3284 203.477 19.1049C203.86 18.8666 204.053 18.4969 204.053 18.04H203.453C203.453 18.3031 203.356 18.4734 203.16 18.5951C202.94 18.7316 202.572 18.82 202.013 18.82V19.42ZM204.053 18.04C204.053 17.5831 203.86 17.2134 203.477 16.9751C203.116 16.7516 202.615 16.66 202.013 16.66V17.26C202.572 17.26 202.94 17.3484 203.16 17.4849C203.356 17.6066 203.453 17.7769 203.453 18.04H204.053ZM202.013 16.66H198.953V17.26H202.013V16.66ZM202.463 24.46C202.951 24.46 203.401 24.3487 203.809 24.1222L203.518 23.5978C203.205 23.7713 202.856 23.86 202.463 23.86V24.46ZM203.814 24.1196C204.269 23.856 204.533 23.4655 204.533 22.96H203.933C203.933 23.2145 203.818 23.424 203.513 23.6004L203.814 24.1196ZM204.533 22.96C204.533 22.7174 204.472 22.4916 204.342 22.2931C204.213 22.0965 204.028 21.9426 203.803 21.8245L203.524 22.3555C203.679 22.4374 203.779 22.5285 203.84 22.6219C203.9 22.7134 203.933 22.8226 203.933 22.96H204.533ZM203.82 21.834C203.411 21.584 202.956 21.46 202.463 21.46V22.06C202.851 22.06 203.196 22.156 203.507 22.346L203.82 21.834ZM202.463 21.46H198.953V22.06H202.463V21.46ZM198.653 21.76V24.16H199.253V21.76H198.653ZM198.953 24.46H202.463V23.86H198.953V24.46Z" fill="black"/>
<path d="M63.52 49.04H64.96V51.92H64V50H56.56V51.92H55.6V49.04C55.93 48.79 56.215 48.515 56.455 48.215C56.695 47.905 56.895 47.615 57.055 47.345C57.215 47.075 57.35 46.705 57.46 46.235C57.57 45.765 57.65 45.375 57.7 45.065C57.76 44.745 57.8 44.24 57.82 43.55C57.85 42.86 57.865 42.315 57.865 41.915C57.875 41.515 57.88 40.85 57.88 39.92H63.52V49.04ZM57.025 49.04H62.56V40.88H58.84C58.84 43.1 58.715 44.805 58.465 45.995C58.215 47.185 57.735 48.2 57.025 49.04ZM67.4759 43.775C68.2059 43.045 69.0859 42.68 70.1159 42.68C71.1459 42.68 72.0209 43.045 72.7409 43.775C73.4709 44.495 73.8359 45.37 73.8359 46.4C73.8359 47.43 73.4709 48.31 72.7409 49.04C72.0209 49.76 71.1459 50.12 70.1159 50.12C69.0859 50.12 68.2059 49.76 67.4759 49.04C66.7559 48.31 66.3959 47.43 66.3959 46.4C66.3959 45.37 66.7559 44.495 67.4759 43.775ZM68.1659 48.35C68.7159 48.89 69.3659 49.16 70.1159 49.16C70.8659 49.16 71.5109 48.89 72.0509 48.35C72.6009 47.8 72.8759 47.15 72.8759 46.4C72.8759 45.65 72.6009 45.005 72.0509 44.465C71.5109 43.915 70.8659 43.64 70.1159 43.64C69.3659 43.64 68.7159 43.915 68.1659 44.465C67.6259 45.005 67.3559 45.65 67.3559 46.4C67.3559 47.15 67.6259 47.8 68.1659 48.35ZM80.8735 48.44L81.2785 49.31C80.6885 49.85 79.9035 50.12 78.9235 50.12C77.7335 50.12 76.7885 49.765 76.0885 49.055C75.3885 48.345 75.0385 47.46 75.0385 46.4C75.0385 45.34 75.3885 44.455 76.0885 43.745C76.7985 43.035 77.7435 42.68 78.9235 42.68C79.8735 42.68 80.6585 42.93 81.2785 43.43L80.8585 44.3C80.3585 43.86 79.7085 43.64 78.9085 43.64C78.0385 43.64 77.3335 43.905 76.7935 44.435C76.2635 44.965 75.9985 45.62 75.9985 46.4C75.9985 47.19 76.2635 47.85 76.7935 48.38C77.3235 48.9 78.0285 49.16 78.9085 49.16C79.6785 49.16 80.3335 48.92 80.8735 48.44ZM82.4799 42.8H87.7599V43.76H85.5999V50H84.6399V43.76H82.4799V42.8ZM95.3173 42.8H96.2773V50H95.3173V48.725C94.6373 49.655 93.7173 50.12 92.5573 50.12C91.5273 50.12 90.6473 49.76 89.9173 49.04C89.1973 48.31 88.8373 47.43 88.8373 46.4C88.8373 45.37 89.1973 44.495 89.9173 43.775C90.6473 43.045 91.5273 42.68 92.5573 42.68C93.7173 42.68 94.6373 43.145 95.3173 44.075V42.8ZM90.6073 48.35C91.1473 48.89 91.7973 49.16 92.5573 49.16C93.3173 49.16 93.9673 48.89 94.5073 48.35C95.0473 47.81 95.3173 47.16 95.3173 46.4C95.3173 45.64 95.0473 44.99 94.5073 44.45C93.9673 43.91 93.3173 43.64 92.5573 43.64C91.7973 43.64 91.1473 43.91 90.6073 44.45C90.0673 44.99 89.7973 45.64 89.7973 46.4C89.7973 47.16 90.0673 47.81 90.6073 48.35ZM102.886 46.235C103.206 46.325 103.486 46.52 103.726 46.82C103.966 47.11 104.086 47.44 104.086 47.81C104.086 49.27 103.166 50 101.326 50H98.3261V42.8H101.086C102.086 42.8 102.796 42.975 103.216 43.325C103.636 43.675 103.846 44.17 103.846 44.81C103.846 45.11 103.756 45.395 103.576 45.665C103.406 45.935 103.176 46.125 102.886 46.235ZM99.2861 43.76V45.86H101.491C101.841 45.86 102.161 45.78 102.451 45.62C102.741 45.46 102.886 45.2 102.886 44.84C102.886 44.12 102.421 43.76 101.491 43.76H99.2861ZM101.701 49.04C102.651 49.04 103.126 48.66 103.126 47.9C103.126 47.55 102.976 47.285 102.676 47.105C102.386 46.915 102.061 46.82 101.701 46.82H99.2861V49.04H101.701ZM107.805 46.28L111.885 50H110.565L106.845 46.67V50H105.885V42.8H106.845V45.95L110.325 42.8H111.645L107.805 46.28ZM118.726 42.8H119.686V50H118.726V48.725C118.046 49.655 117.126 50.12 115.966 50.12C114.936 50.12 114.056 49.76 113.326 49.04C112.606 48.31 112.246 47.43 112.246 46.4C112.246 45.37 112.606 44.495 113.326 43.775C114.056 43.045 114.936 42.68 115.966 42.68C117.126 42.68 118.046 43.145 118.726 44.075V42.8ZM114.016 48.35C114.556 48.89 115.206 49.16 115.966 49.16C116.726 49.16 117.376 48.89 117.916 48.35C118.456 47.81 118.726 47.16 118.726 46.4C118.726 45.64 118.456 44.99 117.916 44.45C117.376 43.91 116.726 43.64 115.966 43.64C115.206 43.64 114.556 43.91 114.016 44.45C113.476 44.99 113.206 45.64 113.206 46.4C113.206 47.16 113.476 47.81 114.016 48.35ZM132.656 42.8V50H131.696V43.76H127.616V50H126.656V42.8H132.656ZM135.658 42.8V47.99L140.938 42.56V50H139.978V44.81L134.698 50.24V42.8H135.658ZM148.975 49.04H150.415V51.92H149.455V50H142.975V42.8H143.935V49.04H148.015V42.8H148.975V49.04ZM158.335 49.04H159.775V51.92H158.815V50H152.335V42.8H153.295V49.04H157.375V42.8H158.335V49.04ZM161.695 50V42.8H162.655V45.44H164.455C165.445 45.44 166.19 45.635 166.69 46.025C167.2 46.405 167.455 46.95 167.455 47.66C167.455 48.38 167.2 48.95 166.69 49.37C166.18 49.79 165.435 50 164.455 50H161.695ZM168.895 50V42.8H169.855V50H168.895ZM164.725 49.04C165.865 49.04 166.435 48.6 166.435 47.72C166.435 46.84 165.865 46.4 164.725 46.4H162.655V49.04H164.725Z" fill="black"/>
<path d="M177.862 41.315C178.872 40.305 180.087 39.8 181.507 39.8C182.927 39.8 184.142 40.305 185.152 41.315C186.162 42.325 186.667 43.54 186.667 44.96C186.667 46.38 186.162 47.595 185.152 48.605C184.142 49.615 182.927 50.12 181.507 50.12C180.087 50.12 178.872 49.615 177.862 48.605C176.852 47.595 176.347 46.38 176.347 44.96C176.347 43.54 176.852 42.325 177.862 41.315ZM178.522 47.945C179.342 48.755 180.337 49.16 181.507 49.16C182.677 49.16 183.667 48.755 184.477 47.945C185.297 47.125 185.707 46.13 185.707 44.96C185.707 43.79 185.297 42.8 184.477 41.99C183.667 41.17 182.677 40.76 181.507 40.76C180.337 40.76 179.342 41.17 178.522 41.99C177.712 42.8 177.307 43.79 177.307 44.96C177.307 46.13 177.712 47.125 178.522 47.945ZM189.301 42.8V44.075C189.981 43.145 190.901 42.68 192.061 42.68C193.091 42.68 193.966 43.045 194.686 43.775C195.416 44.495 195.781 45.37 195.781 46.4C195.781 47.43 195.416 48.31 194.686 49.04C193.966 49.76 193.091 50.12 192.061 50.12C190.901 50.12 189.981 49.655 189.301 48.725V53.84H188.341V42.8H189.301ZM190.111 48.35C190.651 48.89 191.301 49.16 192.061 49.16C192.821 49.16 193.471 48.89 194.011 48.35C194.551 47.81 194.821 47.16 194.821 46.4C194.821 45.64 194.551 44.99 194.011 44.45C193.471 43.91 192.821 43.64 192.061 43.64C191.301 43.64 190.651 43.91 190.111 44.45C189.571 44.99 189.301 45.64 189.301 46.4C189.301 47.16 189.571 47.81 190.111 48.35ZM199.777 41.63C199.637 41.77 199.467 41.84 199.267 41.84C199.067 41.84 198.897 41.77 198.757 41.63C198.617 41.49 198.547 41.32 198.547 41.12C198.547 40.92 198.617 40.75 198.757 40.61C198.897 40.47 199.067 40.4 199.267 40.4C199.467 40.4 199.637 40.47 199.777 40.61C199.917 40.75 199.987 40.92 199.987 41.12C199.987 41.32 199.917 41.49 199.777 41.63ZM202.177 41.63C202.037 41.77 201.867 41.84 201.667 41.84C201.467 41.84 201.297 41.77 201.157 41.63C201.017 41.49 200.947 41.32 200.947 41.12C200.947 40.92 201.017 40.75 201.157 40.61C201.297 40.47 201.467 40.4 201.667 40.4C201.867 40.4 202.037 40.47 202.177 40.61C202.317 40.75 202.387 40.92 202.387 41.12C202.387 41.32 202.317 41.49 202.177 41.63ZM203.947 46.37C203.947 46.55 203.932 46.72 203.902 46.88H197.977C198.047 47.56 198.342 48.11 198.862 48.53C199.382 48.95 200.027 49.16 200.797 49.16C201.667 49.16 202.437 48.9 203.107 48.38L203.467 49.25C202.777 49.83 201.877 50.12 200.767 50.12C199.617 50.12 198.697 49.765 198.007 49.055C197.327 48.335 196.987 47.45 196.987 46.4C196.987 45.33 197.312 44.445 197.962 43.745C198.622 43.035 199.492 42.68 200.572 42.68C201.552 42.68 202.357 43.015 202.987 43.685C203.627 44.345 203.947 45.24 203.947 46.37ZM197.977 45.92H202.972C202.942 45.34 202.722 44.815 202.312 44.345C201.902 43.875 201.307 43.64 200.527 43.64C199.737 43.64 199.122 43.875 198.682 44.345C198.242 44.815 198.007 45.34 197.977 45.92ZM210.672 50V43.76H207.552V47.765C207.552 48.585 207.417 49.185 207.147 49.565C206.877 49.935 206.467 50.12 205.917 50.12C205.597 50.12 205.342 50.08 205.152 50V49.04C205.632 49.19 205.992 49.185 206.232 49.025C206.472 48.865 206.592 48.49 206.592 47.9V42.8H211.632V50H210.672Z" fill="#FF5925"/>
</svg>
