<svg width="217" height="57" viewBox="0 0 217 57" fill="none" xmlns="http://www.w3.org/2000/svg">
<circle cx="23.5" cy="28.5" r="23.5" fill="#D9D9D9"/>
<path d="M59.47 30.27C58.71 30.27 58.13 30.06 57.73 29.64C57.33 29.22 57.13 28.63 57.13 27.87V11.28C57.13 9.66 57.94 8.85 59.56 8.85H73.63C75.25 8.85 76.06 9.66 76.06 11.28V27.87C76.06 28.63 75.86 29.22 75.46 29.64C75.06 30.06 74.49 30.27 73.75 30.27C72.19 30.27 71.41 29.47 71.41 27.87V12.69H61.78V27.87C61.78 29.47 61.01 30.27 59.47 30.27ZM87.2338 30.33C85.6538 30.33 84.2738 30.02 83.0938 29.4C81.9338 28.76 81.0338 27.87 80.3938 26.73C79.7538 25.57 79.4338 24.2 79.4338 22.62C79.4338 21.06 79.7538 19.71 80.3938 18.57C81.0338 17.41 81.9338 16.52 83.0938 15.9C84.2738 15.28 85.6538 14.97 87.2338 14.97C88.8138 14.97 90.1838 15.28 91.3438 15.9C92.5238 16.52 93.4338 17.41 94.0738 18.57C94.7338 19.71 95.0638 21.06 95.0638 22.62C95.0638 24.2 94.7338 25.57 94.0738 26.73C93.4338 27.87 92.5238 28.76 91.3438 29.4C90.1838 30.02 88.8138 30.33 87.2338 30.33ZM87.2338 26.94C88.1938 26.94 88.9738 26.59 89.5738 25.89C90.1938 25.19 90.5038 24.1 90.5038 22.62C90.5038 21.16 90.1938 20.09 89.5738 19.41C88.9738 18.71 88.1938 18.36 87.2338 18.36C86.2738 18.36 85.4938 18.71 84.8938 19.41C84.2938 20.09 83.9938 21.16 83.9938 22.62C83.9938 24.1 84.2938 25.19 84.8938 25.89C85.4938 26.59 86.2738 26.94 87.2338 26.94ZM105.429 30.33C103.829 30.33 102.429 30.02 101.229 29.4C100.049 28.76 99.1393 27.86 98.4993 26.7C97.8593 25.54 97.5393 24.17 97.5393 22.59C97.5393 21.01 97.8593 19.65 98.4993 18.51C99.1393 17.37 100.049 16.5 101.229 15.9C102.429 15.28 103.829 14.97 105.429 14.97C106.049 14.97 106.709 15.05 107.409 15.21C108.129 15.35 108.819 15.6 109.479 15.96C109.979 16.2 110.289 16.54 110.409 16.98C110.529 17.4 110.499 17.82 110.319 18.24C110.159 18.66 109.889 18.97 109.509 19.17C109.149 19.35 108.719 19.31 108.219 19.05C107.419 18.63 106.639 18.42 105.879 18.42C104.699 18.42 103.779 18.79 103.119 19.53C102.479 20.25 102.159 21.28 102.159 22.62C102.159 23.94 102.479 24.98 103.119 25.74C103.779 26.48 104.699 26.85 105.879 26.85C106.239 26.85 106.619 26.81 107.019 26.73C107.419 26.63 107.819 26.47 108.219 26.25C108.719 25.99 109.149 25.96 109.509 26.16C109.889 26.36 110.149 26.67 110.289 27.09C110.429 27.49 110.439 27.91 110.319 28.35C110.199 28.79 109.899 29.13 109.419 29.37C108.739 29.71 108.059 29.95 107.379 30.09C106.699 30.25 106.049 30.33 105.429 30.33ZM115.364 30.27C114.624 30.27 114.054 30.07 113.654 29.67C113.274 29.27 113.084 28.7 113.084 27.96V17.34C113.084 16.6 113.274 16.03 113.654 15.63C114.054 15.23 114.624 15.03 115.364 15.03C116.864 15.03 117.614 15.8 117.614 17.34V20.76H119.384L122.744 16.08C123.164 15.5 123.644 15.17 124.184 15.09C124.724 15.01 125.214 15.12 125.654 15.42C126.094 15.7 126.374 16.09 126.494 16.59C126.634 17.09 126.494 17.64 126.074 18.24L123.494 21.87C123.914 22.13 124.294 22.47 124.634 22.89C124.994 23.29 125.324 23.76 125.624 24.3L127.214 27.21C127.494 27.71 127.584 28.18 127.484 28.62C127.384 29.04 127.174 29.39 126.854 29.67C126.534 29.95 126.154 30.12 125.714 30.18C125.274 30.26 124.844 30.21 124.424 30.03C124.004 29.85 123.654 29.5 123.374 28.98L121.544 25.74C121.224 25.16 120.894 24.77 120.554 24.57C120.214 24.35 119.774 24.24 119.234 24.24H117.614V27.96C117.614 29.5 116.864 30.27 115.364 30.27ZM137.537 30.33C135.957 30.33 134.577 30.02 133.397 29.4C132.237 28.76 131.337 27.87 130.697 26.73C130.057 25.57 129.737 24.2 129.737 22.62C129.737 21.06 130.057 19.71 130.697 18.57C131.337 17.41 132.237 16.52 133.397 15.9C134.577 15.28 135.957 14.97 137.537 14.97C139.117 14.97 140.487 15.28 141.647 15.9C142.827 16.52 143.737 17.41 144.377 18.57C145.037 19.71 145.367 21.06 145.367 22.62C145.367 24.2 145.037 25.57 144.377 26.73C143.737 27.87 142.827 28.76 141.647 29.4C140.487 30.02 139.117 30.33 137.537 30.33ZM137.537 26.94C138.497 26.94 139.277 26.59 139.877 25.89C140.497 25.19 140.807 24.1 140.807 22.62C140.807 21.16 140.497 20.09 139.877 19.41C139.277 18.71 138.497 18.36 137.537 18.36C136.577 18.36 135.797 18.71 135.197 19.41C134.597 20.09 134.297 21.16 134.297 22.62C134.297 24.1 134.597 25.19 135.197 25.89C135.797 26.59 136.577 26.94 137.537 26.94ZM150.842 35.67C149.322 35.67 148.562 34.9 148.562 33.36V17.31C148.562 15.79 149.302 15.03 150.782 15.03C152.282 15.03 153.032 15.79 153.032 17.31V17.4C153.452 16.66 154.072 16.07 154.892 15.63C155.712 15.19 156.632 14.97 157.652 14.97C158.932 14.97 160.052 15.28 161.012 15.9C161.992 16.52 162.752 17.4 163.292 18.54C163.832 19.68 164.102 21.04 164.102 22.62C164.102 24.2 163.832 25.57 163.292 26.73C162.752 27.87 161.992 28.76 161.012 29.4C160.052 30.02 158.932 30.33 157.652 30.33C156.672 30.33 155.772 30.12 154.952 29.7C154.152 29.28 153.532 28.72 153.092 28.02V33.36C153.092 34.9 152.342 35.67 150.842 35.67ZM156.302 26.94C157.262 26.94 158.042 26.59 158.642 25.89C159.242 25.19 159.542 24.1 159.542 22.62C159.542 21.16 159.242 20.09 158.642 19.41C158.042 18.71 157.262 18.36 156.302 18.36C155.322 18.36 154.532 18.71 153.932 19.41C153.332 20.09 153.032 21.16 153.032 22.62C153.032 24.1 153.332 25.19 153.932 25.89C154.532 26.59 155.322 26.94 156.302 26.94ZM174.991 30.33C173.251 30.33 171.751 30.02 170.491 29.4C169.251 28.76 168.291 27.87 167.611 26.73C166.951 25.57 166.621 24.21 166.621 22.65C166.621 21.13 166.941 19.8 167.581 18.66C168.241 17.5 169.131 16.6 170.251 15.96C171.391 15.3 172.701 14.97 174.181 14.97C176.321 14.97 178.021 15.65 179.281 17.01C180.541 18.35 181.171 20.17 181.171 22.47C181.171 23.23 180.701 23.61 179.761 23.61H170.941C171.101 24.77 171.521 25.62 172.201 26.16C172.901 26.68 173.861 26.94 175.081 26.94C175.561 26.94 176.101 26.89 176.701 26.79C177.321 26.67 177.911 26.47 178.471 26.19C179.051 25.91 179.541 25.86 179.941 26.04C180.341 26.2 180.611 26.48 180.751 26.88C180.911 27.28 180.911 27.7 180.751 28.14C180.611 28.56 180.281 28.91 179.761 29.19C179.061 29.57 178.281 29.85 177.421 30.03C176.581 30.23 175.771 30.33 174.991 30.33ZM174.361 17.97C173.401 17.97 172.621 18.26 172.021 18.84C171.441 19.42 171.081 20.23 170.941 21.27H177.421C177.301 19.07 176.281 17.97 174.361 17.97ZM191.925 30.33C190.185 30.33 188.685 30.02 187.425 29.4C186.185 28.76 185.225 27.87 184.545 26.73C183.885 25.57 183.555 24.21 183.555 22.65C183.555 21.13 183.875 19.8 184.515 18.66C185.175 17.5 186.065 16.6 187.185 15.96C188.325 15.3 189.635 14.97 191.115 14.97C193.255 14.97 194.955 15.65 196.215 17.01C197.475 18.35 198.105 20.17 198.105 22.47C198.105 23.23 197.635 23.61 196.695 23.61H187.875C188.035 24.77 188.455 25.62 189.135 26.16C189.835 26.68 190.795 26.94 192.015 26.94C192.495 26.94 193.035 26.89 193.635 26.79C194.255 26.67 194.845 26.47 195.405 26.19C195.985 25.91 196.475 25.86 196.875 26.04C197.275 26.2 197.545 26.48 197.685 26.88C197.845 27.28 197.845 27.7 197.685 28.14C197.545 28.56 197.215 28.91 196.695 29.19C195.995 29.57 195.215 29.85 194.355 30.03C193.515 30.23 192.705 30.33 191.925 30.33ZM191.295 17.97C190.335 17.97 189.555 18.26 188.955 18.84C188.375 19.42 188.015 20.23 187.875 21.27H194.355C194.235 19.07 193.215 17.97 191.295 17.97ZM203.399 30C201.939 30 201.209 29.26 201.209 27.78V17.49C201.209 16.01 201.939 15.27 203.399 15.27H209.579C211.579 15.27 212.999 15.62 213.839 16.32C214.679 17 215.099 17.94 215.099 19.14C215.099 19.88 214.889 20.53 214.469 21.09C214.069 21.65 213.509 22.06 212.789 22.32C213.769 22.56 214.489 22.99 214.949 23.61C215.409 24.23 215.639 24.98 215.639 25.86C215.639 27.12 215.139 28.13 214.139 28.89C213.159 29.63 211.719 30 209.819 30H203.399ZM205.379 21.15H209.099C209.699 21.15 210.169 21.01 210.509 20.73C210.849 20.45 211.019 20.05 211.019 19.53C211.019 19.01 210.849 18.62 210.509 18.36C210.169 18.1 209.699 17.97 209.099 17.97H205.379V21.15ZM205.379 27.3H209.369C210.829 27.3 211.559 26.72 211.559 25.56C211.559 24.4 210.829 23.82 209.369 23.82H205.379V27.3Z" fill="black"/>
<path d="M57.73 29.64L57.9472 29.4331L57.9472 29.4331L57.73 29.64ZM75.46 29.64L75.2428 29.4331L75.46 29.64ZM71.41 12.69H71.71V12.39H71.41V12.69ZM61.78 12.69V12.39H61.48V12.69H61.78ZM59.47 29.97C58.7654 29.97 58.2745 29.7768 57.9472 29.4331L57.5128 29.8469C57.9855 30.3432 58.6546 30.57 59.47 30.57V29.97ZM57.9472 29.4331C57.6152 29.0845 57.43 28.5776 57.43 27.87H56.83C56.83 28.6824 57.0448 29.3555 57.5128 29.8469L57.9472 29.4331ZM57.43 27.87V11.28H56.83V27.87H57.43ZM57.43 11.28C57.43 10.5162 57.6207 9.99853 57.9496 9.66963C58.2785 9.34073 58.7962 9.15 59.56 9.15V8.55C58.7038 8.55 58.0065 8.76426 57.5254 9.24537C57.0443 9.72647 56.83 10.4238 56.83 11.28H57.43ZM59.56 9.15H73.63V8.55H59.56V9.15ZM73.63 9.15C74.3938 9.15 74.9115 9.34073 75.2404 9.66963C75.5693 9.99853 75.76 10.5162 75.76 11.28H76.36C76.36 10.4238 76.1457 9.72647 75.6646 9.24537C75.1835 8.76426 74.4862 8.55 73.63 8.55V9.15ZM75.76 11.28V27.87H76.36V11.28H75.76ZM75.76 27.87C75.76 28.5776 75.5748 29.0845 75.2428 29.4331L75.6772 29.8469C76.1452 29.3555 76.36 28.6824 76.36 27.87H75.76ZM75.2428 29.4331C74.914 29.7783 74.4318 29.97 73.75 29.97V30.57C74.5482 30.57 75.206 30.3417 75.6772 29.8469L75.2428 29.4331ZM73.75 29.97C73.0182 29.97 72.524 29.7828 72.2098 29.4606C71.8942 29.1369 71.71 28.6256 71.71 27.87H71.11C71.11 28.7144 71.3158 29.4031 71.7802 29.8794C72.246 30.3572 72.9218 30.57 73.75 30.57V29.97ZM71.71 27.87V12.69H71.11V27.87H71.71ZM71.41 12.39H61.78V12.99H71.41V12.39ZM61.48 12.69V27.87H62.08V12.69H61.48ZM61.48 27.87C61.48 28.6266 61.2978 29.1384 60.9864 29.462C60.677 29.7834 60.1908 29.97 59.47 29.97V30.57C60.2892 30.57 60.958 30.3566 61.4186 29.878C61.8772 29.4016 62.08 28.7134 62.08 27.87H61.48ZM83.0938 29.4L82.9489 29.6627L82.9543 29.6656L83.0938 29.4ZM80.3938 26.73L80.1311 26.8749L80.1322 26.8769L80.3938 26.73ZM80.3938 18.57L80.6554 18.7169L80.6565 18.7149L80.3938 18.57ZM83.0938 15.9L82.9543 15.6344L82.9524 15.6354L83.0938 15.9ZM91.3438 15.9L91.2024 16.1646L91.2043 16.1656L91.3438 15.9ZM94.0738 18.57L93.8111 18.715L93.8142 18.7203L94.0738 18.57ZM94.0738 26.73L93.8131 26.5816L93.8122 26.5831L94.0738 26.73ZM91.3438 29.4L91.4852 29.6646L91.4869 29.6637L91.3438 29.4ZM89.5738 25.89L89.3492 25.6911L89.3461 25.6948L89.5738 25.89ZM89.5738 19.41L89.3459 19.6053L89.3521 19.6121L89.5738 19.41ZM84.8938 19.41L85.1188 19.6085L85.1216 19.6052L84.8938 19.41ZM84.8938 25.89L85.1216 25.6948L85.1216 25.6948L84.8938 25.89ZM87.2338 30.03C85.6935 30.03 84.363 29.728 83.2334 29.1344L82.9543 29.6656C84.1846 30.312 85.6142 30.63 87.2338 30.63V30.03ZM83.2388 29.1373C82.127 28.5239 81.2677 27.6737 80.6554 26.5831L80.1322 26.8769C80.8 28.0663 81.7407 28.9961 82.9489 29.6627L83.2388 29.1373ZM80.6565 26.5851C80.0453 25.4773 79.7338 24.1591 79.7338 22.62H79.1338C79.1338 24.2409 79.4624 25.6627 80.1312 26.8749L80.6565 26.5851ZM79.7338 22.62C79.7338 21.1015 80.0451 19.8041 80.6554 18.7169L80.1322 18.4231C79.4626 19.6159 79.1338 21.0185 79.1338 22.62H79.7338ZM80.6565 18.7149C81.2687 17.6053 82.1268 16.757 83.2352 16.1646L82.9524 15.6354C81.7409 16.283 80.7989 17.2147 80.1312 18.4251L80.6565 18.7149ZM83.2334 16.1656C84.363 15.572 85.6935 15.27 87.2338 15.27V14.67C85.6142 14.67 84.1846 14.988 82.9543 15.6344L83.2334 16.1656ZM87.2338 15.27C88.7744 15.27 90.0939 15.5721 91.2024 16.1646L91.4852 15.6354C90.2738 14.9879 88.8533 14.67 87.2338 14.67V15.27ZM91.2043 16.1656C92.3327 16.7584 93.1997 17.6067 93.8112 18.7149L94.3365 18.4251C93.668 17.2133 92.715 16.2816 91.4834 15.6344L91.2043 16.1656ZM93.8142 18.7203C94.4433 19.8069 94.7638 21.103 94.7638 22.62H95.3638C95.3638 21.017 95.0244 19.6131 94.3335 18.4197L93.8142 18.7203ZM94.7638 22.62C94.7638 24.1576 94.443 25.4745 93.8131 26.5816L94.3346 26.8784C95.0247 25.6655 95.3638 24.2424 95.3638 22.62H94.7638ZM93.8122 26.5831C93.2007 27.6724 92.3325 28.5225 91.2008 29.1363L91.4869 29.6637C92.7152 28.9975 93.6669 28.0676 94.3354 26.8769L93.8122 26.5831ZM91.2024 29.1354C90.0939 29.7279 88.7744 30.03 87.2338 30.03V30.63C88.8533 30.63 90.2738 30.3121 91.4852 29.6646L91.2024 29.1354ZM87.2338 27.24C88.2773 27.24 89.142 26.8548 89.8016 26.0852L89.3461 25.6948C88.8057 26.3252 88.1104 26.64 87.2338 26.64V27.24ZM89.7984 26.0889C90.4885 25.3098 90.8038 24.1327 90.8038 22.62H90.2038C90.2038 24.0673 89.8992 25.0702 89.3493 25.6911L89.7984 26.0889ZM90.8038 22.62C90.8038 21.127 90.4883 19.9677 89.7955 19.2079L89.3521 19.6121C89.8993 20.2123 90.2038 21.193 90.2038 22.62H90.8038ZM89.8016 19.2148C89.142 18.4452 88.2773 18.06 87.2338 18.06V18.66C88.1104 18.66 88.8057 18.9748 89.3461 19.6052L89.8016 19.2148ZM87.2338 18.06C86.1904 18.06 85.3257 18.4452 84.6661 19.2148L85.1216 19.6052C85.662 18.9748 86.3573 18.66 87.2338 18.66V18.06ZM84.6689 19.2115C83.9985 19.9713 83.6938 21.1289 83.6938 22.62H84.2938C84.2938 21.1911 84.5891 20.2087 85.1188 19.6085L84.6689 19.2115ZM83.6938 22.62C83.6938 24.1309 83.9984 25.3064 84.6661 26.0852L85.1216 25.6948C84.5892 25.0736 84.2938 24.0691 84.2938 22.62H83.6938ZM84.6661 26.0852C85.3257 26.8548 86.1904 27.24 87.2338 27.24V26.64C86.3573 26.64 85.662 26.3252 85.1216 25.6948L84.6661 26.0852ZM101.229 29.4L101.086 29.6638L101.092 29.6665L101.229 29.4ZM98.4993 26.7L98.2366 26.8449L98.2366 26.8449L98.4993 26.7ZM98.4993 18.51L98.2377 18.3631L98.2377 18.3631L98.4993 18.51ZM101.229 15.9L101.365 16.1674L101.367 16.1665L101.229 15.9ZM107.409 15.21L107.342 15.5026L107.352 15.5045L107.409 15.21ZM109.479 15.96L109.336 16.2234L109.342 16.2271L109.349 16.2305L109.479 15.96ZM110.409 16.98L110.12 17.0589L110.121 17.0624L110.409 16.98ZM110.319 18.24L110.043 18.1217L110.039 18.1332L110.319 18.24ZM109.509 19.17L109.643 19.4384L109.649 19.4355L109.509 19.17ZM108.219 19.05L108.08 19.3156L108.081 19.3162L108.219 19.05ZM103.119 19.53L102.895 19.3303L102.895 19.3307L103.119 19.53ZM103.119 25.74L102.89 25.9333L102.895 25.9397L103.119 25.74ZM107.019 26.73L107.078 27.0242L107.085 27.0228L107.092 27.021L107.019 26.73ZM108.219 26.25L108.081 25.9838L108.075 25.9871L108.219 26.25ZM109.509 26.16L109.364 26.4223L109.37 26.4255L109.509 26.16ZM110.289 27.09L110.005 27.1849L110.006 27.1891L110.289 27.09ZM109.419 29.37L109.553 29.6383L109.553 29.6383L109.419 29.37ZM107.379 30.09L107.319 29.796L107.311 29.798L107.379 30.09ZM105.429 30.03C103.868 30.03 102.517 29.7278 101.367 29.1335L101.092 29.6665C102.341 30.3122 103.79 30.63 105.429 30.63V30.03ZM101.372 29.1363C100.242 28.5233 99.3739 27.6642 98.762 26.5551L98.2366 26.8449C98.9047 28.0558 99.8566 28.9967 101.086 29.6637L101.372 29.1363ZM98.762 26.5551C98.1508 25.4473 97.8393 24.1291 97.8393 22.59H97.2393C97.2393 24.2109 97.5678 25.6327 98.2366 26.8449L98.762 26.5551ZM97.8393 22.59C97.8393 21.0507 98.1508 19.7435 98.7609 18.6569L98.2377 18.3631C97.5678 19.5565 97.2393 20.9693 97.2393 22.59H97.8393ZM98.7609 18.6569C99.3715 17.5693 100.237 16.7409 101.365 16.1674L101.093 15.6326C99.8612 16.2591 98.9071 17.1707 98.2377 18.3631L98.7609 18.6569ZM101.367 16.1665C102.517 15.5722 103.868 15.27 105.429 15.27V14.67C103.79 14.67 102.341 14.9878 101.092 15.6335L101.367 16.1665ZM105.429 15.27C106.024 15.27 106.661 15.3467 107.342 15.5025L107.476 14.9175C106.758 14.7533 106.075 14.67 105.429 14.67V15.27ZM107.352 15.5045C108.041 15.6385 108.702 15.8777 109.336 16.2234L109.623 15.6966C108.937 15.3223 108.218 15.0615 107.467 14.9155L107.352 15.5045ZM109.349 16.2305C109.79 16.4417 110.028 16.7209 110.12 17.0589L110.699 16.9011C110.551 16.3591 110.169 15.9583 109.609 15.6895L109.349 16.2305ZM110.121 17.0624C110.221 17.4128 110.198 17.7621 110.044 18.1218L110.595 18.3582C110.801 17.8779 110.838 17.3872 110.698 16.8976L110.121 17.0624ZM110.039 18.1332C109.904 18.4884 109.682 18.7402 109.37 18.9045L109.649 19.4355C110.097 19.1998 110.415 18.8316 110.6 18.3468L110.039 18.1332ZM109.375 18.9017C109.132 19.0231 108.809 19.0185 108.358 18.7838L108.081 19.3162C108.63 19.6015 109.166 19.6769 109.643 19.4383L109.375 18.9017ZM108.359 18.7844C107.524 18.346 106.696 18.12 105.879 18.12V18.72C106.582 18.72 107.315 18.914 108.08 19.3156L108.359 18.7844ZM105.879 18.12C104.632 18.12 103.623 18.5143 102.895 19.3303L103.343 19.7297C103.935 19.0657 104.767 18.72 105.879 18.72V18.12ZM102.895 19.3307C102.19 20.1238 101.859 21.2353 101.859 22.62H102.459C102.459 21.3247 102.769 20.3762 103.344 19.7293L102.895 19.3307ZM101.859 22.62C101.859 23.9873 102.191 25.1036 102.89 25.9332L103.349 25.5468C102.767 24.8564 102.459 23.8927 102.459 22.62H101.859ZM102.895 25.9397C103.623 26.7557 104.632 27.15 105.879 27.15V26.55C104.767 26.55 103.935 26.2043 103.343 25.5403L102.895 25.9397ZM105.879 27.15C106.261 27.15 106.661 27.1075 107.078 27.0242L106.96 26.4358C106.577 26.5125 106.217 26.55 105.879 26.55V27.15ZM107.092 27.021C107.52 26.9142 107.944 26.744 108.364 26.5129L108.075 25.9871C107.695 26.196 107.319 26.3458 106.947 26.439L107.092 27.021ZM108.358 26.5162C108.805 26.2838 109.122 26.2881 109.364 26.4222L109.655 25.8978C109.176 25.6319 108.634 25.6962 108.081 25.9838L108.358 26.5162ZM109.37 26.4255C109.679 26.5882 109.888 26.8358 110.005 27.1849L110.574 26.9951C110.41 26.5042 110.1 26.1318 109.649 25.8945L109.37 26.4255ZM110.006 27.1891C110.125 27.5273 110.135 27.885 110.03 28.2711L110.609 28.4289C110.743 27.935 110.734 27.4527 110.572 26.9909L110.006 27.1891ZM110.03 28.2711C109.936 28.614 109.704 28.8924 109.285 29.1017L109.553 29.6383C110.095 29.3676 110.462 28.966 110.609 28.4289L110.03 28.2711ZM109.285 29.1017C108.626 29.4311 107.971 29.6619 107.319 29.7962L107.44 30.3838C108.148 30.2381 108.852 29.9889 109.553 29.6383L109.285 29.1017ZM107.311 29.798C106.65 29.9533 106.023 30.03 105.429 30.03V30.63C106.075 30.63 106.748 30.5467 107.448 30.382L107.311 29.798ZM113.654 29.67L113.436 29.8767L113.441 29.8821L113.654 29.67ZM113.654 15.63L113.441 15.4178L113.436 15.4234L113.654 15.63ZM117.614 20.76H117.314V21.06H117.614V20.76ZM119.384 20.76V21.06H119.537L119.627 20.935L119.384 20.76ZM122.744 16.08L122.501 15.904L122.5 15.905L122.744 16.08ZM124.184 15.09L124.227 15.3868L124.227 15.3868L124.184 15.09ZM125.654 15.42L125.484 15.668L125.492 15.6731L125.654 15.42ZM126.494 16.59L126.202 16.6601L126.205 16.6709L126.494 16.59ZM126.074 18.24L126.318 18.4138L126.319 18.412L126.074 18.24ZM123.494 21.87L123.249 21.6962L123.064 21.9568L123.336 22.1251L123.494 21.87ZM124.634 22.89L124.4 23.0788L124.405 23.0849L124.411 23.0907L124.634 22.89ZM125.624 24.3L125.887 24.1562L125.886 24.1543L125.624 24.3ZM127.214 27.21L126.95 27.3539L126.952 27.3566L127.214 27.21ZM127.484 28.62L127.775 28.6895L127.776 28.6865L127.484 28.62ZM126.854 29.67L127.051 29.8958L127.051 29.8958L126.854 29.67ZM125.714 30.18L125.673 29.8825L125.66 29.8848L125.714 30.18ZM124.424 30.03L124.542 29.7543L124.542 29.7543L124.424 30.03ZM123.374 28.98L123.638 28.8377L123.635 28.8325L123.374 28.98ZM121.544 25.74L121.281 25.8849L121.282 25.8875L121.544 25.74ZM120.554 24.57L120.39 24.8221L120.401 24.8286L120.554 24.57ZM117.614 24.24V23.94H117.314V24.24H117.614ZM115.364 29.97C114.678 29.97 114.194 29.7858 113.866 29.4579L113.441 29.8821C113.913 30.3542 114.569 30.57 115.364 30.57V29.97ZM113.871 29.4634C113.56 29.136 113.384 28.6499 113.384 27.96H112.784C112.784 28.7501 112.987 29.404 113.436 29.8766L113.871 29.4634ZM113.384 27.96V17.34H112.784V27.96H113.384ZM113.384 17.34C113.384 16.6501 113.56 16.164 113.871 15.8366L113.436 15.4234C112.987 15.896 112.784 16.5499 112.784 17.34H113.384ZM113.866 15.8421C114.194 15.5142 114.678 15.33 115.364 15.33V14.73C114.569 14.73 113.913 14.9458 113.441 15.4179L113.866 15.8421ZM115.364 15.33C116.065 15.33 116.537 15.5096 116.836 15.8168C117.137 16.1255 117.314 16.6143 117.314 17.34H117.914C117.914 16.5257 117.715 15.8595 117.266 15.3982C116.815 14.9354 116.162 14.73 115.364 14.73V15.33ZM117.314 17.34V20.76H117.914V17.34H117.314ZM117.614 21.06H119.384V20.46H117.614V21.06ZM119.627 20.935L122.987 16.255L122.5 15.905L119.14 20.585L119.627 20.935ZM122.986 16.256C123.375 15.7201 123.79 15.4516 124.227 15.3868L124.14 14.7932C123.497 14.8884 122.953 15.2799 122.501 15.904L122.986 16.256ZM124.227 15.3868C124.695 15.3175 125.109 15.4115 125.485 15.6679L125.823 15.1721C125.318 14.8285 124.752 14.7025 124.14 14.7932L124.227 15.3868ZM125.492 15.6731C125.868 15.912 126.1 16.2369 126.202 16.66L126.785 16.52C126.647 15.9431 126.319 15.488 125.815 15.1669L125.492 15.6731ZM126.205 16.6709C126.312 17.0531 126.218 17.51 125.828 18.068L126.319 18.412C126.769 17.77 126.955 17.1269 126.782 16.5091L126.205 16.6709ZM125.829 18.0662L123.249 21.6962L123.738 22.0438L126.318 18.4138L125.829 18.0662ZM123.336 22.1251C123.724 22.3658 124.08 22.6825 124.4 23.0788L124.867 22.7012C124.507 22.2575 124.103 21.8942 123.651 21.6149L123.336 22.1251ZM124.411 23.0907C124.753 23.4716 125.071 23.9226 125.361 24.4457L125.886 24.1543C125.576 23.5974 125.234 23.1084 124.857 22.6893L124.411 23.0907ZM125.36 24.4438L126.95 27.3538L127.477 27.0662L125.887 24.1562L125.36 24.4438ZM126.952 27.3566C127.206 27.8099 127.27 28.2039 127.191 28.5535L127.776 28.6865C127.897 28.1561 127.781 27.6101 127.475 27.0634L126.952 27.3566ZM127.192 28.5505C127.106 28.9109 126.928 29.2059 126.656 29.4442L127.051 29.8958C127.419 29.5741 127.661 29.1691 127.775 28.6895L127.192 28.5505ZM126.656 29.4442C126.382 29.6838 126.057 29.8303 125.673 29.8828L125.754 30.4772C126.25 30.4097 126.685 30.2162 127.051 29.8958L126.656 29.4442ZM125.66 29.8848C125.279 29.9541 124.909 29.9116 124.542 29.7543L124.305 30.3057C124.778 30.5084 125.268 30.5659 125.767 30.4752L125.66 29.8848ZM124.542 29.7543C124.2 29.6079 123.895 29.3157 123.638 28.8378L123.109 29.1222C123.412 29.6843 123.807 30.0921 124.305 30.3057L124.542 29.7543ZM123.635 28.8325L121.805 25.5925L121.282 25.8875L123.112 29.1275L123.635 28.8325ZM121.806 25.5951C121.476 24.9963 121.114 24.5514 120.706 24.3114L120.401 24.8286C120.673 24.9886 120.971 25.3237 121.281 25.8849L121.806 25.5951ZM120.716 24.3181C120.314 24.0578 119.813 23.94 119.234 23.94V24.54C119.735 24.54 120.113 24.6422 120.391 24.8219L120.716 24.3181ZM119.234 23.94H117.614V24.54H119.234V23.94ZM117.314 24.24V27.96H117.914V24.24H117.314ZM117.314 27.96C117.314 28.6857 117.137 29.1745 116.836 29.4832C116.537 29.7904 116.065 29.97 115.364 29.97V30.57C116.162 30.57 116.815 30.3646 117.266 29.9018C117.715 29.4405 117.914 28.7743 117.914 27.96H117.314ZM133.397 29.4L133.252 29.6627L133.257 29.6656L133.397 29.4ZM130.697 26.73L130.434 26.8749L130.435 26.8769L130.697 26.73ZM130.697 18.57L130.958 18.7169L130.959 18.7149L130.697 18.57ZM133.397 15.9L133.257 15.6344L133.255 15.6354L133.397 15.9ZM141.647 15.9L141.505 16.1646L141.507 16.1656L141.647 15.9ZM144.377 18.57L144.114 18.715L144.117 18.7203L144.377 18.57ZM144.377 26.73L144.116 26.5816L144.115 26.5831L144.377 26.73ZM141.647 29.4L141.788 29.6646L141.79 29.6637L141.647 29.4ZM139.877 25.89L139.652 25.6911L139.649 25.6948L139.877 25.89ZM139.877 19.41L139.649 19.6053L139.655 19.6121L139.877 19.41ZM135.197 19.41L135.422 19.6085L135.424 19.6052L135.197 19.41ZM135.197 25.89L135.424 25.6948L135.424 25.6948L135.197 25.89ZM137.537 30.03C135.996 30.03 134.666 29.728 133.536 29.1344L133.257 29.6656C134.487 30.312 135.917 30.63 137.537 30.63V30.03ZM133.541 29.1373C132.43 28.5239 131.57 27.6737 130.958 26.5831L130.435 26.8769C131.103 28.0663 132.043 28.9961 133.252 29.6627L133.541 29.1373ZM130.959 26.5851C130.348 25.4773 130.037 24.1591 130.037 22.62H129.437C129.437 24.2409 129.765 25.6627 130.434 26.8749L130.959 26.5851ZM130.037 22.62C130.037 21.1015 130.348 19.8041 130.958 18.7169L130.435 18.4231C129.765 19.6159 129.437 21.0185 129.437 22.62H130.037ZM130.959 18.7149C131.571 17.6053 132.43 16.757 133.538 16.1646L133.255 15.6354C132.044 16.283 131.102 17.2147 130.434 18.4251L130.959 18.7149ZM133.536 16.1656C134.666 15.572 135.996 15.27 137.537 15.27V14.67C135.917 14.67 134.487 14.988 133.257 15.6344L133.536 16.1656ZM137.537 15.27C139.077 15.27 140.397 15.5721 141.505 16.1646L141.788 15.6354C140.577 14.9879 139.156 14.67 137.537 14.67V15.27ZM141.507 16.1656C142.635 16.7584 143.502 17.6067 144.114 18.7149L144.639 18.4251C143.971 17.2133 143.018 16.2816 141.786 15.6344L141.507 16.1656ZM144.117 18.7203C144.746 19.8069 145.067 21.103 145.067 22.62H145.667C145.667 21.017 145.327 19.6131 144.636 18.4197L144.117 18.7203ZM145.067 22.62C145.067 24.1576 144.746 25.4745 144.116 26.5816L144.637 26.8784C145.327 25.6655 145.667 24.2424 145.667 22.62H145.067ZM144.115 26.5831C143.503 27.6724 142.635 28.5225 141.504 29.1363L141.79 29.6637C143.018 28.9975 143.97 28.0676 144.638 26.8769L144.115 26.5831ZM141.505 29.1354C140.397 29.7279 139.077 30.03 137.537 30.03V30.63C139.156 30.63 140.577 30.3121 141.788 29.6646L141.505 29.1354ZM137.537 27.24C138.58 27.24 139.445 26.8548 140.104 26.0852L139.649 25.6948C139.108 26.3252 138.413 26.64 137.537 26.64V27.24ZM140.101 26.0889C140.791 25.3098 141.107 24.1327 141.107 22.62H140.507C140.507 24.0673 140.202 25.0702 139.652 25.6911L140.101 26.0889ZM141.107 22.62C141.107 21.127 140.791 19.9677 140.098 19.2079L139.655 19.6121C140.202 20.2123 140.507 21.193 140.507 22.62H141.107ZM140.104 19.2148C139.445 18.4452 138.58 18.06 137.537 18.06V18.66C138.413 18.66 139.108 18.9748 139.649 19.6052L140.104 19.2148ZM137.537 18.06C136.493 18.06 135.628 18.4452 134.969 19.2148L135.424 19.6052C135.965 18.9748 136.66 18.66 137.537 18.66V18.06ZM134.972 19.2115C134.301 19.9713 133.997 21.1289 133.997 22.62H134.597C134.597 21.1911 134.892 20.2087 135.422 19.6085L134.972 19.2115ZM133.997 22.62C133.997 24.1309 134.301 25.3064 134.969 26.0852L135.424 25.6948C134.892 25.0736 134.597 24.0691 134.597 22.62H133.997ZM134.969 26.0852C135.628 26.8548 136.493 27.24 137.537 27.24V26.64C136.66 26.64 135.965 26.3252 135.424 25.6948L134.969 26.0852ZM153.032 17.4H152.732V18.5363L153.293 17.5481L153.032 17.4ZM154.892 15.63L154.75 15.3657L154.75 15.3657L154.892 15.63ZM161.012 15.9L160.849 16.152L160.852 16.1535L161.012 15.9ZM163.292 18.54L163.563 18.4116L163.563 18.4116L163.292 18.54ZM163.292 26.73L163.563 26.8584L163.564 26.8566L163.292 26.73ZM161.012 29.4L161.175 29.652L161.176 29.6512L161.012 29.4ZM154.952 29.7L154.813 29.9656L154.815 29.967L154.952 29.7ZM153.092 28.02L153.346 27.8603L152.792 26.979V28.02H153.092ZM158.642 25.89L158.414 25.6948L158.414 25.6948L158.642 25.89ZM158.642 19.41L158.414 19.6053L158.417 19.6085L158.642 19.41ZM153.932 19.41L154.157 19.6085L154.16 19.6052L153.932 19.41ZM153.932 25.89L154.16 25.6948L154.16 25.6948L153.932 25.89ZM150.842 35.37C150.129 35.37 149.65 35.1898 149.346 34.8818C149.041 34.573 148.862 34.0847 148.862 33.36H148.262C148.262 34.1753 148.463 34.842 148.919 35.3032C149.374 35.7652 150.035 35.97 150.842 35.97V35.37ZM148.862 33.36V17.31H148.262V33.36H148.862ZM148.862 17.31C148.862 16.5943 149.036 16.1129 149.332 15.8093C149.626 15.5071 150.09 15.33 150.782 15.33V14.73C149.994 14.73 149.348 14.9329 148.902 15.3907C148.458 15.8471 148.262 16.5057 148.262 17.31H148.862ZM150.782 15.33C151.485 15.33 151.957 15.5077 152.256 15.8107C152.556 16.1145 152.732 16.5953 152.732 17.31H153.332C153.332 16.5047 153.133 15.8455 152.683 15.3893C152.232 14.9323 151.579 14.73 150.782 14.73V15.33ZM152.732 17.31V17.4H153.332V17.31H152.732ZM153.293 17.5481C153.682 16.8619 154.259 16.3102 155.034 15.8943L154.75 15.3657C153.885 15.8298 153.222 16.4581 152.771 17.2519L153.293 17.5481ZM155.034 15.8943C155.806 15.4799 156.677 15.27 157.652 15.27V14.67C156.587 14.67 155.618 14.9001 154.75 15.3657L155.034 15.8943ZM157.652 15.27C158.881 15.27 159.943 15.567 160.849 16.152L161.175 15.648C160.161 14.993 158.983 14.67 157.652 14.67V15.27ZM160.852 16.1535C161.779 16.7405 162.503 17.5751 163.021 18.6684L163.563 18.4116C163.001 17.2249 162.205 16.2995 161.172 15.6465L160.852 16.1535ZM163.021 18.6684C163.538 19.7595 163.802 21.0735 163.802 22.62H164.402C164.402 21.0065 164.126 19.6005 163.563 18.4116L163.021 18.6684ZM163.802 22.62C163.802 24.1663 163.538 25.4912 163.02 26.6034L163.564 26.8566C164.126 25.6488 164.402 24.2337 164.402 22.62H163.802ZM163.021 26.6016C162.503 27.6956 161.778 28.5414 160.848 29.1488L161.176 29.6512C162.206 28.9786 163.001 28.0444 163.563 26.8584L163.021 26.6016ZM160.849 29.148C159.943 29.733 158.881 30.03 157.652 30.03V30.63C158.983 30.63 160.161 30.307 161.175 29.652L160.849 29.148ZM157.652 30.03C156.716 30.03 155.864 29.8299 155.089 29.433L154.815 29.967C155.68 30.4101 156.628 30.63 157.652 30.63V30.03ZM155.091 29.4344C154.334 29.0366 153.755 28.5114 153.346 27.8603L152.838 28.1797C153.309 28.9286 153.97 29.5234 154.813 29.9656L155.091 29.4344ZM152.792 28.02V33.36H153.392V28.02H152.792ZM152.792 33.36C152.792 34.0857 152.615 34.5745 152.315 34.8832C152.015 35.1904 151.544 35.37 150.842 35.37V35.97C151.64 35.97 152.294 35.7646 152.744 35.3018C153.194 34.8405 153.392 34.1743 153.392 33.36H152.792ZM156.302 27.24C157.345 27.24 158.21 26.8548 158.87 26.0852L158.414 25.6948C157.874 26.3252 157.179 26.64 156.302 26.64V27.24ZM158.87 26.0852C159.537 25.3064 159.842 24.1309 159.842 22.62H159.242C159.242 24.0691 158.947 25.0736 158.414 25.6948L158.87 26.0852ZM159.842 22.62C159.842 21.1289 159.537 19.9713 158.867 19.2115L158.417 19.6085C158.947 20.2087 159.242 21.1911 159.242 22.62H159.842ZM158.87 19.2148C158.21 18.4452 157.345 18.06 156.302 18.06V18.66C157.179 18.66 157.874 18.9748 158.414 19.6052L158.87 19.2148ZM156.302 18.06C155.241 18.06 154.365 18.4436 153.704 19.2148L154.16 19.6052C154.699 18.9764 155.403 18.66 156.302 18.66V18.06ZM153.707 19.2115C153.037 19.9713 152.732 21.1289 152.732 22.62H153.332C153.332 21.1911 153.627 20.2087 154.157 19.6085L153.707 19.2115ZM152.732 22.62C152.732 24.1309 153.037 25.3064 153.704 26.0852L154.16 25.6948C153.627 25.0736 153.332 24.0691 153.332 22.62H152.732ZM153.704 26.0852C154.365 26.8564 155.241 27.24 156.302 27.24V26.64C155.403 26.64 154.699 26.3236 154.16 25.6948L153.704 26.0852ZM170.491 29.4L170.354 29.6666L170.359 29.6692L170.491 29.4ZM167.611 26.73L167.351 26.8784L167.354 26.8837L167.611 26.73ZM167.581 18.66L167.321 18.5116L167.32 18.5131L167.581 18.66ZM170.251 15.96L170.4 16.2205L170.402 16.2196L170.251 15.96ZM179.281 17.01L179.061 17.2139L179.063 17.2155L179.281 17.01ZM170.941 23.61V23.31H170.597L170.644 23.651L170.941 23.61ZM172.201 26.16L172.015 26.3951L172.022 26.4008L172.201 26.16ZM176.701 26.79L176.751 27.086L176.758 27.0845L176.701 26.79ZM178.471 26.19L178.341 25.9198L178.337 25.9217L178.471 26.19ZM179.941 26.04L179.818 26.3138L179.83 26.3185L179.941 26.04ZM180.751 26.88L180.468 26.9792L180.473 26.9914L180.751 26.88ZM180.751 28.14L180.469 28.0374L180.467 28.0451L180.751 28.14ZM179.761 29.19L179.619 28.9259L179.618 28.9263L179.761 29.19ZM177.421 30.03L177.36 29.7363L177.352 29.7382L177.421 30.03ZM172.021 18.84L171.813 18.6243L171.809 18.6279L172.021 18.84ZM170.941 21.27L170.644 21.23L170.598 21.57H170.941V21.27ZM177.421 21.27V21.57H177.738L177.721 21.2537L177.421 21.27ZM174.991 30.03C173.287 30.03 171.834 29.7263 170.624 29.1308L170.359 29.6692C171.669 30.3137 173.216 30.63 174.991 30.63V30.03ZM170.629 29.1334C169.436 28.5177 168.519 27.6657 167.869 26.5763L167.354 26.8837C168.064 28.0743 169.067 29.0023 170.354 29.6666L170.629 29.1334ZM167.872 26.5816C167.242 25.474 166.921 24.1668 166.921 22.65H166.321C166.321 24.2532 166.661 25.666 167.351 26.8784L167.872 26.5816ZM166.921 22.65C166.921 21.173 167.232 19.8952 167.843 18.8069L167.32 18.5131C166.651 19.7048 166.321 21.087 166.321 22.65H166.921ZM167.842 18.8084C168.476 17.6934 169.329 16.8329 170.4 16.2205L170.102 15.6995C168.934 16.3671 168.006 17.3066 167.321 18.5116L167.842 18.8084ZM170.402 16.2196C171.491 15.5892 172.747 15.27 174.181 15.27V14.67C172.655 14.67 171.292 15.0108 170.101 15.7004L170.402 16.2196ZM174.181 15.27C176.252 15.27 177.867 15.9248 179.061 17.2139L179.501 16.8061C178.176 15.3752 176.391 14.67 174.181 14.67V15.27ZM179.063 17.2155C180.258 18.4868 180.871 20.2264 180.871 22.47H181.471C181.471 20.1136 180.824 18.2132 179.5 16.8045L179.063 17.2155ZM180.871 22.47C180.871 22.7849 180.777 22.973 180.63 23.0917C180.471 23.2203 180.199 23.31 179.761 23.31V23.91C180.264 23.91 180.697 23.8097 181.007 23.5583C181.331 23.297 181.471 22.9151 181.471 22.47H180.871ZM179.761 23.31H170.941V23.91H179.761V23.31ZM170.644 23.651C170.811 24.8602 171.256 25.7922 172.015 26.3949L172.388 25.9251C171.787 25.4478 171.392 24.6798 171.239 23.569L170.644 23.651ZM172.022 26.4008C172.791 26.9719 173.822 27.24 175.081 27.24V26.64C173.901 26.64 173.011 26.3881 172.38 25.9192L172.022 26.4008ZM175.081 27.24C175.582 27.24 176.138 27.188 176.751 27.0859L176.652 26.4941C176.064 26.592 175.541 26.64 175.081 26.64V27.24ZM176.758 27.0845C177.405 26.9594 178.021 26.7506 178.605 26.4583L178.337 25.9217C177.802 26.1894 177.238 26.3806 176.644 26.4955L176.758 27.0845ZM178.602 26.4602C179.14 26.2002 179.531 26.1844 179.818 26.3136L180.064 25.7664C179.551 25.5356 178.962 25.6198 178.341 25.9198L178.602 26.4602ZM179.83 26.3185C180.151 26.447 180.357 26.6625 180.468 26.9791L181.034 26.7809C180.865 26.2975 180.532 25.953 180.053 25.7615L179.83 26.3185ZM180.473 26.9914C180.603 27.3168 180.607 27.6603 180.469 28.0375L181.033 28.2425C181.216 27.7397 181.22 27.2432 181.03 26.7686L180.473 26.9914ZM180.467 28.0451C180.358 28.3712 180.095 28.6697 179.619 28.9259L179.904 29.4541C180.468 29.1503 180.865 28.7488 181.036 28.2349L180.467 28.0451ZM179.618 28.9263C178.946 29.2911 178.194 29.5617 177.36 29.7364L177.483 30.3236C178.368 30.1383 179.176 29.8489 179.904 29.4537L179.618 28.9263ZM177.352 29.7382C176.532 29.9333 175.746 30.03 174.991 30.03V30.63C175.797 30.63 176.63 30.5267 177.491 30.3218L177.352 29.7382ZM174.361 17.67C173.336 17.67 172.477 17.982 171.813 18.6243L172.23 19.0557C172.765 18.538 173.467 18.27 174.361 18.27V17.67ZM171.809 18.6279C171.171 19.2659 170.79 20.1432 170.644 21.23L171.239 21.31C171.372 20.3168 171.712 19.5741 172.233 19.0521L171.809 18.6279ZM170.941 21.57H177.421V20.97H170.941V21.57ZM177.721 21.2537C177.659 20.1155 177.362 19.2117 176.786 18.591C176.205 17.9637 175.38 17.67 174.361 17.67V18.27C175.263 18.27 175.908 18.5263 176.346 18.999C176.791 19.4783 177.064 20.2244 177.122 21.2863L177.721 21.2537ZM187.425 29.4L187.287 29.6666L187.292 29.6692L187.425 29.4ZM184.545 26.73L184.284 26.8784L184.287 26.8837L184.545 26.73ZM184.515 18.66L184.254 18.5116L184.253 18.5131L184.515 18.66ZM187.185 15.96L187.334 16.2205L187.335 16.2196L187.185 15.96ZM196.215 17.01L195.995 17.2139L195.996 17.2155L196.215 17.01ZM187.875 23.61V23.31H187.531L187.578 23.651L187.875 23.61ZM189.135 26.16L188.948 26.3951L188.956 26.4008L189.135 26.16ZM193.635 26.79L193.684 27.086L193.692 27.0845L193.635 26.79ZM195.405 26.19L195.274 25.9198L195.271 25.9217L195.405 26.19ZM196.875 26.04L196.752 26.3138L196.764 26.3185L196.875 26.04ZM197.685 26.88L197.401 26.9792L197.406 26.9914L197.685 26.88ZM197.685 28.14L197.403 28.0374L197.4 28.0451L197.685 28.14ZM196.695 29.19L196.553 28.9259L196.552 28.9263L196.695 29.19ZM194.355 30.03L194.293 29.7363L194.285 29.7382L194.355 30.03ZM188.955 18.84L188.746 18.6243L188.743 18.6279L188.955 18.84ZM187.875 21.27L187.578 21.23L187.532 21.57H187.875V21.27ZM194.355 21.27V21.57H194.672L194.654 21.2537L194.355 21.27ZM191.925 30.03C190.22 30.03 188.768 29.7263 187.557 29.1308L187.292 29.6692C188.602 30.3137 190.15 30.63 191.925 30.63V30.03ZM187.563 29.1334C186.37 28.5177 185.452 27.6657 184.803 26.5763L184.287 26.8837C184.997 28.0743 186 29.0023 187.287 29.6666L187.563 29.1334ZM184.806 26.5816C184.175 25.474 183.855 24.1668 183.855 22.65H183.255C183.255 24.2532 183.594 25.666 184.284 26.8784L184.806 26.5816ZM183.855 22.65C183.855 21.173 184.166 19.8952 184.777 18.8069L184.253 18.5131C183.584 19.7048 183.255 21.087 183.255 22.65H183.855ZM184.776 18.8084C185.41 17.6934 186.262 16.8329 187.334 16.2205L187.036 15.6995C185.868 16.3671 184.94 17.3066 184.254 18.5116L184.776 18.8084ZM187.335 16.2196C188.424 15.5892 189.681 15.27 191.115 15.27V14.67C189.589 14.67 188.226 15.0108 187.035 15.7004L187.335 16.2196ZM191.115 15.27C193.186 15.27 194.801 15.9248 195.995 17.2139L196.435 16.8061C195.109 15.3752 193.324 14.67 191.115 14.67V15.27ZM195.996 17.2155C197.192 18.4868 197.805 20.2264 197.805 22.47H198.405C198.405 20.1136 197.758 18.2132 196.433 16.8045L195.996 17.2155ZM197.805 22.47C197.805 22.7849 197.711 22.973 197.564 23.0917C197.405 23.2203 197.132 23.31 196.695 23.31V23.91C197.198 23.91 197.63 23.8097 197.941 23.5583C198.264 23.297 198.405 22.9151 198.405 22.47H197.805ZM196.695 23.31H187.875V23.91H196.695V23.31ZM187.578 23.651C187.745 24.8602 188.189 25.7922 188.948 26.3949L189.321 25.9251C188.72 25.4478 188.325 24.6798 188.172 23.569L187.578 23.651ZM188.956 26.4008C189.725 26.9719 190.756 27.24 192.015 27.24V26.64C190.834 26.64 189.945 26.3881 189.314 25.9192L188.956 26.4008ZM192.015 27.24C192.515 27.24 193.072 27.188 193.684 27.0859L193.586 26.4941C192.998 26.592 192.475 26.64 192.015 26.64V27.24ZM193.692 27.0845C194.338 26.9594 194.954 26.7506 195.539 26.4583L195.271 25.9217C194.735 26.1894 194.171 26.3806 193.578 26.4955L193.692 27.0845ZM195.535 26.4602C196.074 26.2002 196.465 26.1844 196.752 26.3136L196.998 25.7664C196.485 25.5356 195.896 25.6198 195.274 25.9198L195.535 26.4602ZM196.764 26.3185C197.085 26.447 197.291 26.6625 197.402 26.9791L197.968 26.7809C197.799 26.2975 197.465 25.953 196.986 25.7615L196.764 26.3185ZM197.406 26.9914C197.537 27.3168 197.54 27.6603 197.403 28.0375L197.967 28.2425C198.15 27.7397 198.153 27.2432 197.963 26.7686L197.406 26.9914ZM197.4 28.0451C197.292 28.3712 197.028 28.6697 196.553 28.9259L196.837 29.4541C197.401 29.1503 197.798 28.7488 197.97 28.2349L197.4 28.0451ZM196.552 28.9263C195.88 29.2911 195.128 29.5617 194.293 29.7364L194.416 30.3236C195.302 30.1383 196.11 29.8489 196.838 29.4537L196.552 28.9263ZM194.285 29.7382C193.466 29.9333 192.679 30.03 191.925 30.03V30.63C192.731 30.63 193.564 30.5267 194.424 30.3218L194.285 29.7382ZM191.295 17.67C190.27 17.67 189.411 17.982 188.746 18.6243L189.163 19.0557C189.699 18.538 190.4 18.27 191.295 18.27V17.67ZM188.743 18.6279C188.105 19.2659 187.724 20.1432 187.578 21.23L188.172 21.31C188.306 20.3168 188.645 19.5741 189.167 19.0521L188.743 18.6279ZM187.875 21.57H194.355V20.97H187.875V21.57ZM194.654 21.2537C194.592 20.1155 194.295 19.2117 193.72 18.591C193.138 17.9637 192.314 17.67 191.295 17.67V18.27C192.196 18.27 192.842 18.5263 193.28 18.999C193.724 19.4783 193.997 20.2244 194.055 21.2863L194.654 21.2537ZM213.839 16.32L213.646 16.5505L213.65 16.5532L213.839 16.32ZM214.469 21.09L214.228 20.91L214.224 20.9156L214.469 21.09ZM212.789 22.32L212.687 22.0378L211.753 22.3752L212.717 22.6114L212.789 22.32ZM214.949 23.61L214.708 23.7888L214.949 23.61ZM214.139 28.89L214.319 29.1294L214.32 29.1288L214.139 28.89ZM205.379 21.15H205.079V21.45H205.379V21.15ZM210.509 18.36L210.326 18.5983L210.326 18.5983L210.509 18.36ZM205.379 17.97V17.67H205.079V17.97H205.379ZM205.379 27.3H205.079V27.6H205.379V27.3ZM205.379 23.82V23.52H205.079V23.82H205.379ZM203.399 29.7C202.716 29.7 202.259 29.5273 201.97 29.2343C201.68 28.9406 201.509 28.4748 201.509 27.78H200.909C200.909 28.5652 201.102 29.2094 201.542 29.6557C201.983 30.1027 202.621 30.3 203.399 30.3V29.7ZM201.509 27.78V17.49H200.909V27.78H201.509ZM201.509 17.49C201.509 16.7952 201.68 16.3294 201.97 16.0357C202.259 15.7427 202.716 15.57 203.399 15.57V14.97C202.621 14.97 201.983 15.1673 201.542 15.6143C201.102 16.0606 200.909 16.7048 200.909 17.49H201.509ZM203.399 15.57H209.579V14.97H203.399V15.57ZM209.579 15.57C211.56 15.57 212.89 15.9199 213.646 16.5505L214.031 16.0895C213.107 15.3201 211.597 14.97 209.579 14.97V15.57ZM213.65 16.5532C214.411 17.1694 214.799 18.0192 214.799 19.14H215.399C215.399 17.8608 214.946 16.8306 214.027 16.0868L213.65 16.5532ZM214.799 19.14C214.799 19.819 214.607 20.405 214.229 20.91L214.709 21.27C215.17 20.655 215.399 19.941 215.399 19.14H214.799ZM214.224 20.9156C213.864 21.4206 213.356 21.7961 212.687 22.0378L212.89 22.6022C213.661 22.3239 214.273 21.8794 214.713 21.2644L214.224 20.9156ZM212.717 22.6114C213.65 22.8399 214.301 23.2402 214.708 23.7888L215.189 23.4312C214.676 22.7398 213.887 22.2801 212.86 22.0286L212.717 22.6114ZM214.708 23.7888C215.124 24.35 215.339 25.035 215.339 25.86H215.939C215.939 24.925 215.693 24.11 215.189 23.4312L214.708 23.7888ZM215.339 25.86C215.339 27.0266 214.882 27.9481 213.957 28.6512L214.32 29.1288C215.395 28.3119 215.939 27.2134 215.939 25.86H215.339ZM213.958 28.6506C213.051 29.335 211.687 29.7 209.819 29.7V30.3C211.75 30.3 213.266 29.925 214.319 29.1294L213.958 28.6506ZM209.819 29.7H203.399V30.3H209.819V29.7ZM205.379 21.45H209.099V20.85H205.379V21.45ZM209.099 21.45C209.743 21.45 210.289 21.2995 210.699 20.9616L210.318 20.4984C210.048 20.7205 209.654 20.85 209.099 20.85V21.45ZM210.699 20.9616C211.121 20.6141 211.319 20.1217 211.319 19.53H210.719C210.719 19.9783 210.576 20.2859 210.318 20.4984L210.699 20.9616ZM211.319 19.53C211.319 18.939 211.121 18.4508 210.691 18.1217L210.326 18.5983C210.576 18.7892 210.719 19.081 210.719 19.53H211.319ZM210.691 18.1217C210.281 17.8084 209.739 17.67 209.099 17.67V18.27C209.659 18.27 210.056 18.3916 210.326 18.5983L210.691 18.1217ZM209.099 17.67H205.379V18.27H209.099V17.67ZM205.079 17.97V21.15H205.679V17.97H205.079ZM205.379 27.6H209.369V27H205.379V27.6ZM209.369 27.6C210.13 27.6 210.757 27.45 211.198 27.0999C211.652 26.7393 211.859 26.2069 211.859 25.56H211.259C211.259 26.0731 211.101 26.4107 210.824 26.6301C210.535 26.86 210.067 27 209.369 27V27.6ZM211.859 25.56C211.859 24.9131 211.652 24.3807 211.198 24.0201C210.757 23.67 210.13 23.52 209.369 23.52V24.12C210.067 24.12 210.535 24.26 210.824 24.4899C211.101 24.7093 211.259 25.0469 211.259 25.56H211.859ZM209.369 23.52H205.379V24.12H209.369V23.52ZM205.079 23.82V27.3H205.679V23.82H205.079Z" fill="black"/>
<path d="M63.52 49.04H64.96V51.92H64V50H56.56V51.92H55.6V49.04C55.93 48.79 56.215 48.515 56.455 48.215C56.695 47.905 56.895 47.615 57.055 47.345C57.215 47.075 57.35 46.705 57.46 46.235C57.57 45.765 57.65 45.375 57.7 45.065C57.76 44.745 57.8 44.24 57.82 43.55C57.85 42.86 57.865 42.315 57.865 41.915C57.875 41.515 57.88 40.85 57.88 39.92H63.52V49.04ZM57.025 49.04H62.56V40.88H58.84C58.84 43.1 58.715 44.805 58.465 45.995C58.215 47.185 57.735 48.2 57.025 49.04ZM67.4759 43.775C68.2059 43.045 69.0859 42.68 70.1159 42.68C71.1459 42.68 72.0209 43.045 72.7409 43.775C73.4709 44.495 73.8359 45.37 73.8359 46.4C73.8359 47.43 73.4709 48.31 72.7409 49.04C72.0209 49.76 71.1459 50.12 70.1159 50.12C69.0859 50.12 68.2059 49.76 67.4759 49.04C66.7559 48.31 66.3959 47.43 66.3959 46.4C66.3959 45.37 66.7559 44.495 67.4759 43.775ZM68.1659 48.35C68.7159 48.89 69.3659 49.16 70.1159 49.16C70.8659 49.16 71.5109 48.89 72.0509 48.35C72.6009 47.8 72.8759 47.15 72.8759 46.4C72.8759 45.65 72.6009 45.005 72.0509 44.465C71.5109 43.915 70.8659 43.64 70.1159 43.64C69.3659 43.64 68.7159 43.915 68.1659 44.465C67.6259 45.005 67.3559 45.65 67.3559 46.4C67.3559 47.15 67.6259 47.8 68.1659 48.35ZM80.8735 48.44L81.2785 49.31C80.6885 49.85 79.9035 50.12 78.9235 50.12C77.7335 50.12 76.7885 49.765 76.0885 49.055C75.3885 48.345 75.0385 47.46 75.0385 46.4C75.0385 45.34 75.3885 44.455 76.0885 43.745C76.7985 43.035 77.7435 42.68 78.9235 42.68C79.8735 42.68 80.6585 42.93 81.2785 43.43L80.8585 44.3C80.3585 43.86 79.7085 43.64 78.9085 43.64C78.0385 43.64 77.3335 43.905 76.7935 44.435C76.2635 44.965 75.9985 45.62 75.9985 46.4C75.9985 47.19 76.2635 47.85 76.7935 48.38C77.3235 48.9 78.0285 49.16 78.9085 49.16C79.6785 49.16 80.3335 48.92 80.8735 48.44ZM82.4799 42.8H87.7599V43.76H85.5999V50H84.6399V43.76H82.4799V42.8ZM95.3173 42.8H96.2773V50H95.3173V48.725C94.6373 49.655 93.7173 50.12 92.5573 50.12C91.5273 50.12 90.6473 49.76 89.9173 49.04C89.1973 48.31 88.8373 47.43 88.8373 46.4C88.8373 45.37 89.1973 44.495 89.9173 43.775C90.6473 43.045 91.5273 42.68 92.5573 42.68C93.7173 42.68 94.6373 43.145 95.3173 44.075V42.8ZM90.6073 48.35C91.1473 48.89 91.7973 49.16 92.5573 49.16C93.3173 49.16 93.9673 48.89 94.5073 48.35C95.0473 47.81 95.3173 47.16 95.3173 46.4C95.3173 45.64 95.0473 44.99 94.5073 44.45C93.9673 43.91 93.3173 43.64 92.5573 43.64C91.7973 43.64 91.1473 43.91 90.6073 44.45C90.0673 44.99 89.7973 45.64 89.7973 46.4C89.7973 47.16 90.0673 47.81 90.6073 48.35ZM102.886 46.235C103.206 46.325 103.486 46.52 103.726 46.82C103.966 47.11 104.086 47.44 104.086 47.81C104.086 49.27 103.166 50 101.326 50H98.3261V42.8H101.086C102.086 42.8 102.796 42.975 103.216 43.325C103.636 43.675 103.846 44.17 103.846 44.81C103.846 45.11 103.756 45.395 103.576 45.665C103.406 45.935 103.176 46.125 102.886 46.235ZM99.2861 43.76V45.86H101.491C101.841 45.86 102.161 45.78 102.451 45.62C102.741 45.46 102.886 45.2 102.886 44.84C102.886 44.12 102.421 43.76 101.491 43.76H99.2861ZM101.701 49.04C102.651 49.04 103.126 48.66 103.126 47.9C103.126 47.55 102.976 47.285 102.676 47.105C102.386 46.915 102.061 46.82 101.701 46.82H99.2861V49.04H101.701ZM107.805 46.28L111.885 50H110.565L106.845 46.67V50H105.885V42.8H106.845V45.95L110.325 42.8H111.645L107.805 46.28ZM118.726 42.8H119.686V50H118.726V48.725C118.046 49.655 117.126 50.12 115.966 50.12C114.936 50.12 114.056 49.76 113.326 49.04C112.606 48.31 112.246 47.43 112.246 46.4C112.246 45.37 112.606 44.495 113.326 43.775C114.056 43.045 114.936 42.68 115.966 42.68C117.126 42.68 118.046 43.145 118.726 44.075V42.8ZM114.016 48.35C114.556 48.89 115.206 49.16 115.966 49.16C116.726 49.16 117.376 48.89 117.916 48.35C118.456 47.81 118.726 47.16 118.726 46.4C118.726 45.64 118.456 44.99 117.916 44.45C117.376 43.91 116.726 43.64 115.966 43.64C115.206 43.64 114.556 43.91 114.016 44.45C113.476 44.99 113.206 45.64 113.206 46.4C113.206 47.16 113.476 47.81 114.016 48.35ZM132.656 42.8V50H131.696V43.76H127.616V50H126.656V42.8H132.656ZM135.658 42.8V47.99L140.938 42.56V50H139.978V44.81L134.698 50.24V42.8H135.658ZM148.975 49.04H150.415V51.92H149.455V50H142.975V42.8H143.935V49.04H148.015V42.8H148.975V49.04ZM158.335 49.04H159.775V51.92H158.815V50H152.335V42.8H153.295V49.04H157.375V42.8H158.335V49.04ZM161.695 50V42.8H162.655V45.44H164.455C165.445 45.44 166.19 45.635 166.69 46.025C167.2 46.405 167.455 46.95 167.455 47.66C167.455 48.38 167.2 48.95 166.69 49.37C166.18 49.79 165.435 50 164.455 50H161.695ZM168.895 50V42.8H169.855V50H168.895ZM164.725 49.04C165.865 49.04 166.435 48.6 166.435 47.72C166.435 46.84 165.865 46.4 164.725 46.4H162.655V49.04H164.725Z" fill="black"/>
<path d="M177.862 41.315C178.872 40.305 180.087 39.8 181.507 39.8C182.927 39.8 184.142 40.305 185.152 41.315C186.162 42.325 186.667 43.54 186.667 44.96C186.667 46.38 186.162 47.595 185.152 48.605C184.142 49.615 182.927 50.12 181.507 50.12C180.087 50.12 178.872 49.615 177.862 48.605C176.852 47.595 176.347 46.38 176.347 44.96C176.347 43.54 176.852 42.325 177.862 41.315ZM178.522 47.945C179.342 48.755 180.337 49.16 181.507 49.16C182.677 49.16 183.667 48.755 184.477 47.945C185.297 47.125 185.707 46.13 185.707 44.96C185.707 43.79 185.297 42.8 184.477 41.99C183.667 41.17 182.677 40.76 181.507 40.76C180.337 40.76 179.342 41.17 178.522 41.99C177.712 42.8 177.307 43.79 177.307 44.96C177.307 46.13 177.712 47.125 178.522 47.945ZM189.301 42.8V44.075C189.981 43.145 190.901 42.68 192.061 42.68C193.091 42.68 193.966 43.045 194.686 43.775C195.416 44.495 195.781 45.37 195.781 46.4C195.781 47.43 195.416 48.31 194.686 49.04C193.966 49.76 193.091 50.12 192.061 50.12C190.901 50.12 189.981 49.655 189.301 48.725V53.84H188.341V42.8H189.301ZM190.111 48.35C190.651 48.89 191.301 49.16 192.061 49.16C192.821 49.16 193.471 48.89 194.011 48.35C194.551 47.81 194.821 47.16 194.821 46.4C194.821 45.64 194.551 44.99 194.011 44.45C193.471 43.91 192.821 43.64 192.061 43.64C191.301 43.64 190.651 43.91 190.111 44.45C189.571 44.99 189.301 45.64 189.301 46.4C189.301 47.16 189.571 47.81 190.111 48.35ZM199.777 41.63C199.637 41.77 199.467 41.84 199.267 41.84C199.067 41.84 198.897 41.77 198.757 41.63C198.617 41.49 198.547 41.32 198.547 41.12C198.547 40.92 198.617 40.75 198.757 40.61C198.897 40.47 199.067 40.4 199.267 40.4C199.467 40.4 199.637 40.47 199.777 40.61C199.917 40.75 199.987 40.92 199.987 41.12C199.987 41.32 199.917 41.49 199.777 41.63ZM202.177 41.63C202.037 41.77 201.867 41.84 201.667 41.84C201.467 41.84 201.297 41.77 201.157 41.63C201.017 41.49 200.947 41.32 200.947 41.12C200.947 40.92 201.017 40.75 201.157 40.61C201.297 40.47 201.467 40.4 201.667 40.4C201.867 40.4 202.037 40.47 202.177 40.61C202.317 40.75 202.387 40.92 202.387 41.12C202.387 41.32 202.317 41.49 202.177 41.63ZM203.947 46.37C203.947 46.55 203.932 46.72 203.902 46.88H197.977C198.047 47.56 198.342 48.11 198.862 48.53C199.382 48.95 200.027 49.16 200.797 49.16C201.667 49.16 202.437 48.9 203.107 48.38L203.467 49.25C202.777 49.83 201.877 50.12 200.767 50.12C199.617 50.12 198.697 49.765 198.007 49.055C197.327 48.335 196.987 47.45 196.987 46.4C196.987 45.33 197.312 44.445 197.962 43.745C198.622 43.035 199.492 42.68 200.572 42.68C201.552 42.68 202.357 43.015 202.987 43.685C203.627 44.345 203.947 45.24 203.947 46.37ZM197.977 45.92H202.972C202.942 45.34 202.722 44.815 202.312 44.345C201.902 43.875 201.307 43.64 200.527 43.64C199.737 43.64 199.122 43.875 198.682 44.345C198.242 44.815 198.007 45.34 197.977 45.92ZM210.672 50V43.76H207.552V47.765C207.552 48.585 207.417 49.185 207.147 49.565C206.877 49.935 206.467 50.12 205.917 50.12C205.597 50.12 205.342 50.08 205.152 50V49.04C205.632 49.19 205.992 49.185 206.232 49.025C206.472 48.865 206.592 48.49 206.592 47.9V42.8H211.632V50H210.672Z" fill="#FF5925"/>
</svg>
