<svg width="319" height="57" viewBox="0 0 319 57" fill="none" xmlns="http://www.w3.org/2000/svg">
<circle cx="23.5" cy="28.5" r="23.5" fill="#D9D9D9"/>
<path d="M64.12 17.47L73.24 28H68.38L60.76 19.18V28H56.92V7.84H60.76V16.18L67.9 7.84H72.76L64.12 17.47ZM89.5607 28L88.0607 24.16H79.5407L78.0407 28H73.7207L82.0607 7.84H85.5407L93.8807 28H89.5607ZM81.0107 20.32H86.5907L83.8007 13.12L81.0107 20.32ZM102.997 17.47L112.117 28H107.257L99.637 19.18V28H95.797V7.84H99.637V16.18L106.777 7.84H111.637L102.997 17.47ZM128.438 28L126.938 24.16H118.418L116.918 28H112.598L120.938 7.84H124.418L132.758 28H128.438ZM119.888 20.32H125.468L122.678 13.12L119.888 20.32ZM133.714 28L138.814 20.98C137.374 20.54 136.244 19.73 135.424 18.55C134.604 17.35 134.194 16.02 134.194 14.56C134.194 12.52 134.834 10.89 136.114 9.67C137.414 8.45 139.334 7.84 141.874 7.84H149.074V28H145.234V21.28H142.924L138.394 28H133.714ZM145.234 11.68H141.394C140.414 11.68 139.604 11.93 138.964 12.43C138.344 12.93 138.034 13.64 138.034 14.56C138.034 15.4 138.354 16.09 138.994 16.63C139.654 17.17 140.454 17.44 141.394 17.44H145.234V11.68ZM161.086 21.52H152.446V18.64H161.086V21.52ZM163.48 7.84H177.88V11.68H172.6V28H168.76V11.68H163.48V7.84ZM181.921 10.45C183.981 8.39 186.471 7.36 189.391 7.36C192.311 7.36 194.801 8.39 196.861 10.45C198.921 12.51 199.951 15 199.951 17.92C199.951 20.84 198.921 23.33 196.861 25.39C194.801 27.45 192.311 28.48 189.391 28.48C186.471 28.48 183.981 27.45 181.921 25.39C179.861 23.33 178.831 20.84 178.831 17.92C178.831 15 179.861 12.51 181.921 10.45ZM184.621 22.69C185.941 23.99 187.531 24.64 189.391 24.64C191.251 24.64 192.831 23.99 194.131 22.69C195.451 21.37 196.111 19.78 196.111 17.92C196.111 16.06 195.451 14.48 194.131 13.18C192.831 11.86 191.251 11.2 189.391 11.2C187.531 11.2 185.941 11.86 184.621 13.18C183.321 14.48 182.671 16.06 182.671 17.92C182.671 19.78 183.321 21.37 184.621 22.69ZM228.25 7.84V28H224.41V11.68H215.77V28H211.93V7.84H228.25ZM235.926 7.84V21.76L246.006 7.84H249.846V28H246.006V14.08L235.926 28H232.086V7.84H235.926ZM269.998 24.16H272.878V31.84H269.038V28H253.678V7.84H257.518V24.16H266.158V7.84H269.998V24.16ZM292.556 24.16H295.436V31.84H291.596V28H276.236V7.84H280.076V24.16H288.716V7.84H292.556V24.16ZM313.682 28L312.182 24.16H303.662L302.162 28H297.842L306.182 7.84H309.662L318.002 28H313.682ZM305.132 20.32H310.712L307.922 13.12L305.132 20.32Z" fill="black"/>
<path d="M64.12 17.47L63.8967 17.2697L63.7201 17.4665L63.8932 17.6664L64.12 17.47ZM73.24 28V28.3H73.8967L73.4668 27.8036L73.24 28ZM68.38 28L68.153 28.1961L68.2427 28.3H68.38V28ZM60.76 19.18L60.987 18.9839L60.46 18.3739V19.18H60.76ZM60.76 28V28.3H61.06V28H60.76ZM56.92 28H56.62V28.3H56.92V28ZM56.92 7.84V7.54H56.62V7.84H56.92ZM60.76 7.84H61.06V7.54H60.76V7.84ZM60.76 16.18H60.46V16.9917L60.9879 16.3751L60.76 16.18ZM67.9 7.84V7.54H67.7619L67.6721 7.6449L67.9 7.84ZM72.76 7.84L72.9833 8.04034L73.4322 7.54H72.76V7.84ZM63.8932 17.6664L73.0132 28.1964L73.4668 27.8036L64.3468 17.2736L63.8932 17.6664ZM73.24 27.7H68.38V28.3H73.24V27.7ZM68.607 27.8039L60.987 18.9839L60.533 19.3761L68.153 28.1961L68.607 27.8039ZM60.46 19.18V28H61.06V19.18H60.46ZM60.76 27.7H56.92V28.3H60.76V27.7ZM57.22 28V7.84H56.62V28H57.22ZM56.92 8.14H60.76V7.54H56.92V8.14ZM60.46 7.84V16.18H61.06V7.84H60.46ZM60.9879 16.3751L68.1279 8.0351L67.6721 7.6449L60.5321 15.9849L60.9879 16.3751ZM67.9 8.14H72.76V7.54H67.9V8.14ZM72.5367 7.63966L63.8967 17.2697L64.3433 17.6703L72.9833 8.04034L72.5367 7.63966ZM89.5607 28L89.2813 28.1092L89.3558 28.3H89.5607V28ZM88.0607 24.16L88.3401 24.0508L88.2656 23.86H88.0607V24.16ZM79.5407 24.16V23.86H79.3358L79.2613 24.0508L79.5407 24.16ZM78.0407 28V28.3H78.2456L78.3201 28.1092L78.0407 28ZM73.7207 28L73.4435 27.8853L73.2719 28.3H73.7207V28ZM82.0607 7.84V7.54H81.8602L81.7835 7.72532L82.0607 7.84ZM85.5407 7.84L85.8179 7.72532L85.7413 7.54H85.5407V7.84ZM93.8807 28V28.3H94.3295L94.1579 27.8853L93.8807 28ZM81.0107 20.32L80.731 20.2116L80.5727 20.62H81.0107V20.32ZM86.5907 20.32V20.62H87.0287L86.8704 20.2116L86.5907 20.32ZM83.8007 13.12L84.0804 13.0116L83.8007 12.2897L83.521 13.0116L83.8007 13.12ZM89.8401 27.8908L88.3401 24.0508L87.7813 24.2692L89.2813 28.1092L89.8401 27.8908ZM88.0607 23.86H79.5407V24.46H88.0607V23.86ZM79.2613 24.0508L77.7613 27.8908L78.3201 28.1092L79.8201 24.2692L79.2613 24.0508ZM78.0407 27.7H73.7207V28.3H78.0407V27.7ZM73.9979 28.1147L82.3379 7.95468L81.7835 7.72532L73.4435 27.8853L73.9979 28.1147ZM82.0607 8.14H85.5407V7.54H82.0607V8.14ZM85.2635 7.95468L93.6035 28.1147L94.1579 27.8853L85.8179 7.72532L85.2635 7.95468ZM93.8807 27.7H89.5607V28.3H93.8807V27.7ZM81.0107 20.62H86.5907V20.02H81.0107V20.62ZM86.8704 20.2116L84.0804 13.0116L83.521 13.2284L86.311 20.4284L86.8704 20.2116ZM83.521 13.0116L80.731 20.2116L81.2904 20.4284L84.0804 13.2284L83.521 13.0116ZM102.997 17.47L102.774 17.2697L102.597 17.4665L102.77 17.6664L102.997 17.47ZM112.117 28V28.3H112.774L112.344 27.8036L112.117 28ZM107.257 28L107.03 28.1961L107.12 28.3H107.257V28ZM99.637 19.18L99.864 18.9839L99.337 18.3739V19.18H99.637ZM99.637 28V28.3H99.937V28H99.637ZM95.797 28H95.497V28.3H95.797V28ZM95.797 7.84V7.54H95.497V7.84H95.797ZM99.637 7.84H99.937V7.54H99.637V7.84ZM99.637 16.18H99.337V16.9917L99.8648 16.3751L99.637 16.18ZM106.777 7.84V7.54H106.639L106.549 7.6449L106.777 7.84ZM111.637 7.84L111.86 8.04034L112.309 7.54H111.637V7.84ZM102.77 17.6664L111.89 28.1964L112.344 27.8036L103.224 17.2736L102.77 17.6664ZM112.117 27.7H107.257V28.3H112.117V27.7ZM107.484 27.8039L99.864 18.9839L99.4099 19.3761L107.03 28.1961L107.484 27.8039ZM99.337 19.18V28H99.937V19.18H99.337ZM99.637 27.7H95.797V28.3H99.637V27.7ZM96.097 28V7.84H95.497V28H96.097ZM95.797 8.14H99.637V7.54H95.797V8.14ZM99.337 7.84V16.18H99.937V7.84H99.337ZM99.8648 16.3751L107.005 8.0351L106.549 7.6449L99.4091 15.9849L99.8648 16.3751ZM106.777 8.14H111.637V7.54H106.777V8.14ZM111.414 7.63966L102.774 17.2697L103.22 17.6703L111.86 8.04034L111.414 7.63966ZM128.438 28L128.158 28.1092L128.233 28.3H128.438V28ZM126.938 24.16L127.217 24.0508L127.143 23.86H126.938V24.16ZM118.418 24.16V23.86H118.213L118.138 24.0508L118.418 24.16ZM116.918 28V28.3H117.123L117.197 28.1092L116.918 28ZM112.598 28L112.32 27.8853L112.149 28.3H112.598V28ZM120.938 7.84V7.54H120.737L120.66 7.72532L120.938 7.84ZM124.418 7.84L124.695 7.72532L124.618 7.54H124.418V7.84ZM132.758 28V28.3H133.206L133.035 27.8853L132.758 28ZM119.888 20.32L119.608 20.2116L119.45 20.62H119.888V20.32ZM125.468 20.32V20.62H125.906L125.747 20.2116L125.468 20.32ZM122.678 13.12L122.957 13.0116L122.678 12.2897L122.398 13.0116L122.678 13.12ZM128.717 27.8908L127.217 24.0508L126.658 24.2692L128.158 28.1092L128.717 27.8908ZM126.938 23.86H118.418V24.46H126.938V23.86ZM118.138 24.0508L116.638 27.8908L117.197 28.1092L118.697 24.2692L118.138 24.0508ZM116.918 27.7H112.598V28.3H116.918V27.7ZM112.875 28.1147L121.215 7.95468L120.66 7.72532L112.32 27.8853L112.875 28.1147ZM120.938 8.14H124.418V7.54H120.938V8.14ZM124.14 7.95468L132.48 28.1147L133.035 27.8853L124.695 7.72532L124.14 7.95468ZM132.758 27.7H128.438V28.3H132.758V27.7ZM119.888 20.62H125.468V20.02H119.888V20.62ZM125.747 20.2116L122.957 13.0116L122.398 13.2284L125.188 20.4284L125.747 20.2116ZM122.398 13.0116L119.608 20.2116L120.167 20.4284L122.957 13.2284L122.398 13.0116ZM133.714 28L133.471 27.8237L133.125 28.3H133.714V28ZM138.814 20.98L139.057 21.1563L139.304 20.816L138.902 20.6931L138.814 20.98ZM135.424 18.55L135.176 18.7193L135.178 18.7212L135.424 18.55ZM136.114 9.67L135.909 9.45124L135.907 9.45284L136.114 9.67ZM149.074 7.84H149.374V7.54H149.074V7.84ZM149.074 28V28.3H149.374V28H149.074ZM145.234 28H144.934V28.3H145.234V28ZM145.234 21.28H145.534V20.98H145.234V21.28ZM142.924 21.28V20.98H142.764L142.675 21.1123L142.924 21.28ZM138.394 28V28.3H138.553L138.643 28.1677L138.394 28ZM145.234 11.68H145.534V11.38H145.234V11.68ZM138.964 12.43L138.779 12.1936L138.776 12.1965L138.964 12.43ZM138.994 16.63L138.8 16.8593L138.804 16.8622L138.994 16.63ZM145.234 17.44V17.74H145.534V17.44H145.234ZM133.957 28.1763L139.057 21.1563L138.571 20.8037L133.471 27.8237L133.957 28.1763ZM138.902 20.6931C137.523 20.2718 136.45 19.5007 135.67 18.3788L135.178 18.7212C136.038 19.9593 137.225 20.8082 138.726 21.2669L138.902 20.6931ZM135.672 18.3807C134.886 17.2309 134.494 15.9599 134.494 14.56H133.894C133.894 16.0801 134.322 17.4691 135.176 18.7193L135.672 18.3807ZM134.494 14.56C134.494 12.5883 135.11 11.0417 136.321 9.88716L135.907 9.45284C134.558 10.7383 133.894 12.4517 133.894 14.56H134.494ZM136.319 9.88876C137.544 8.73953 139.378 8.14 141.874 8.14V7.54C139.29 7.54 137.284 8.16047 135.909 9.45124L136.319 9.88876ZM141.874 8.14H149.074V7.54H141.874V8.14ZM148.774 7.84V28H149.374V7.84H148.774ZM149.074 27.7H145.234V28.3H149.074V27.7ZM145.534 28V21.28H144.934V28H145.534ZM145.234 20.98H142.924V21.58H145.234V20.98ZM142.675 21.1123L138.145 27.8323L138.643 28.1677L143.173 21.4477L142.675 21.1123ZM138.394 27.7H133.714V28.3H138.394V27.7ZM145.234 11.38H141.394V11.98H145.234V11.38ZM141.394 11.38C140.361 11.38 139.482 11.6444 138.779 12.1936L139.149 12.6664C139.726 12.2156 140.467 11.98 141.394 11.98V11.38ZM138.776 12.1965C138.074 12.7627 137.734 13.5651 137.734 14.56H138.334C138.334 13.7149 138.614 13.0973 139.152 12.6635L138.776 12.1965ZM137.734 14.56C137.734 15.4881 138.093 16.2621 138.8 16.8593L139.187 16.4007C138.615 15.9179 138.334 15.3119 138.334 14.56H137.734ZM138.804 16.8622C139.523 17.4506 140.392 17.74 141.394 17.74V17.14C140.516 17.14 139.785 16.8894 139.184 16.3978L138.804 16.8622ZM141.394 17.74H145.234V17.14H141.394V17.74ZM145.534 17.44V11.68H144.934V17.44H145.534ZM161.086 21.52V21.82H161.386V21.52H161.086ZM152.446 21.52H152.146V21.82H152.446V21.52ZM152.446 18.64V18.34H152.146V18.64H152.446ZM161.086 18.64H161.386V18.34H161.086V18.64ZM161.086 21.22H152.446V21.82H161.086V21.22ZM152.746 21.52V18.64H152.146V21.52H152.746ZM152.446 18.94H161.086V18.34H152.446V18.94ZM160.786 18.64V21.52H161.386V18.64H160.786ZM163.48 7.84V7.54H163.18V7.84H163.48ZM177.88 7.84H178.18V7.54H177.88V7.84ZM177.88 11.68V11.98H178.18V11.68H177.88ZM172.6 11.68V11.38H172.3V11.68H172.6ZM172.6 28V28.3H172.9V28H172.6ZM168.76 28H168.46V28.3H168.76V28ZM168.76 11.68H169.06V11.38H168.76V11.68ZM163.48 11.68H163.18V11.98H163.48V11.68ZM163.48 8.14H177.88V7.54H163.48V8.14ZM177.58 7.84V11.68H178.18V7.84H177.58ZM177.88 11.38H172.6V11.98H177.88V11.38ZM172.3 11.68V28H172.9V11.68H172.3ZM172.6 27.7H168.76V28.3H172.6V27.7ZM169.06 28V11.68H168.46V28H169.06ZM168.76 11.38H163.48V11.98H168.76V11.38ZM163.78 11.68V7.84H163.18V11.68H163.78ZM181.921 10.45L181.709 10.2379L181.709 10.2379L181.921 10.45ZM196.861 10.45L196.649 10.6621L196.649 10.6621L196.861 10.45ZM196.861 25.39L196.649 25.1779L196.649 25.1779L196.861 25.39ZM181.921 25.39L182.133 25.1779L181.921 25.39ZM184.621 22.69L184.407 22.9005L184.411 22.9037L184.621 22.69ZM194.131 22.69L194.343 22.9021L194.343 22.9021L194.131 22.69ZM194.131 13.18L193.917 13.3905L193.921 13.3937L194.131 13.18ZM184.621 13.18L184.409 12.9679L184.409 12.9679L184.621 13.18ZM182.133 10.6621C184.137 8.65854 186.55 7.66 189.391 7.66V7.06C186.392 7.06 183.825 8.12146 181.709 10.2379L182.133 10.6621ZM189.391 7.66C192.232 7.66 194.645 8.65854 196.649 10.6621L197.073 10.2379C194.957 8.12146 192.39 7.06 189.391 7.06V7.66ZM196.649 10.6621C198.653 12.6657 199.651 15.0794 199.651 17.92H200.251C200.251 14.9206 199.19 12.3543 197.073 10.2379L196.649 10.6621ZM199.651 17.92C199.651 20.7606 198.653 23.1743 196.649 25.1779L197.073 25.6021C199.19 23.4857 200.251 20.9194 200.251 17.92H199.651ZM196.649 25.1779C194.645 27.1815 192.232 28.18 189.391 28.18V28.78C192.39 28.78 194.957 27.7185 197.073 25.6021L196.649 25.1779ZM189.391 28.18C186.55 28.18 184.137 27.1815 182.133 25.1779L181.709 25.6021C183.825 27.7185 186.392 28.78 189.391 28.78V28.18ZM182.133 25.1779C180.13 23.1743 179.131 20.7606 179.131 17.92H178.531C178.531 20.9194 179.593 23.4857 181.709 25.6021L182.133 25.1779ZM179.131 17.92C179.131 15.0794 180.13 12.6657 182.133 10.6621L181.709 10.2379C179.593 12.3543 178.531 14.9206 178.531 17.92H179.131ZM184.411 22.9037C185.787 24.2593 187.453 24.94 189.391 24.94V24.34C187.61 24.34 186.095 23.7207 184.832 22.4763L184.411 22.9037ZM189.391 24.94C191.33 24.94 192.986 24.2591 194.343 22.9021L193.919 22.4779C192.676 23.7209 191.173 24.34 189.391 24.34V24.94ZM194.343 22.9021C195.719 21.5261 196.411 19.8599 196.411 17.92H195.811C195.811 19.7001 195.183 21.2139 193.919 22.4779L194.343 22.9021ZM196.411 17.92C196.411 15.98 195.719 14.3229 194.342 12.9663L193.921 13.3937C195.183 14.6371 195.811 16.14 195.811 17.92H196.411ZM194.345 12.9695C192.988 11.592 191.331 10.9 189.391 10.9V11.5C191.171 11.5 192.674 12.128 193.917 13.3905L194.345 12.9695ZM189.391 10.9C187.451 10.9 185.785 11.5918 184.409 12.9679L184.833 13.3921C186.097 12.1282 187.611 11.5 189.391 11.5V10.9ZM184.409 12.9679C183.052 14.3249 182.371 15.9815 182.371 17.92H182.971C182.971 16.1385 183.59 14.6351 184.833 13.3921L184.409 12.9679ZM182.371 17.92C182.371 19.8584 183.052 21.5241 184.407 22.9005L184.835 22.4795C183.59 21.2159 182.971 19.7016 182.971 17.92H182.371ZM228.25 7.84H228.55V7.54H228.25V7.84ZM228.25 28V28.3H228.55V28H228.25ZM224.41 28H224.11V28.3H224.41V28ZM224.41 11.68H224.71V11.38H224.41V11.68ZM215.77 11.68V11.38H215.47V11.68H215.77ZM215.77 28V28.3H216.07V28H215.77ZM211.93 28H211.63V28.3H211.93V28ZM211.93 7.84V7.54H211.63V7.84H211.93ZM227.95 7.84V28H228.55V7.84H227.95ZM228.25 27.7H224.41V28.3H228.25V27.7ZM224.71 28V11.68H224.11V28H224.71ZM224.41 11.38H215.77V11.98H224.41V11.38ZM215.47 11.68V28H216.07V11.68H215.47ZM215.77 27.7H211.93V28.3H215.77V27.7ZM212.23 28V7.84H211.63V28H212.23ZM211.93 8.14H228.25V7.54H211.93V8.14ZM235.926 7.84H236.226V7.54H235.926V7.84ZM235.926 21.76H235.626V22.6858L236.169 21.936L235.926 21.76ZM246.006 7.84V7.54H245.853L245.763 7.66405L246.006 7.84ZM249.846 7.84H250.146V7.54H249.846V7.84ZM249.846 28V28.3H250.146V28H249.846ZM246.006 28H245.706V28.3H246.006V28ZM246.006 14.08H246.306V13.1542L245.763 13.904L246.006 14.08ZM235.926 28V28.3H236.079L236.169 28.176L235.926 28ZM232.086 28H231.786V28.3H232.086V28ZM232.086 7.84V7.54H231.786V7.84H232.086ZM235.626 7.84V21.76H236.226V7.84H235.626ZM236.169 21.936L246.249 8.01595L245.763 7.66405L235.683 21.584L236.169 21.936ZM246.006 8.14H249.846V7.54H246.006V8.14ZM249.546 7.84V28H250.146V7.84H249.546ZM249.846 27.7H246.006V28.3H249.846V27.7ZM246.306 28V14.08H245.706V28H246.306ZM245.763 13.904L235.683 27.824L236.169 28.176L246.249 14.256L245.763 13.904ZM235.926 27.7H232.086V28.3H235.926V27.7ZM232.386 28V7.84H231.786V28H232.386ZM232.086 8.14H235.926V7.54H232.086V8.14ZM269.998 24.16H269.698V24.46H269.998V24.16ZM272.878 24.16H273.178V23.86H272.878V24.16ZM272.878 31.84V32.14H273.178V31.84H272.878ZM269.038 31.84H268.738V32.14H269.038V31.84ZM269.038 28H269.338V27.7H269.038V28ZM253.678 28H253.378V28.3H253.678V28ZM253.678 7.84V7.54H253.378V7.84H253.678ZM257.518 7.84H257.818V7.54H257.518V7.84ZM257.518 24.16H257.218V24.46H257.518V24.16ZM266.158 24.16V24.46H266.458V24.16H266.158ZM266.158 7.84V7.54H265.858V7.84H266.158ZM269.998 7.84H270.298V7.54H269.998V7.84ZM269.998 24.46H272.878V23.86H269.998V24.46ZM272.578 24.16V31.84H273.178V24.16H272.578ZM272.878 31.54H269.038V32.14H272.878V31.54ZM269.338 31.84V28H268.738V31.84H269.338ZM269.038 27.7H253.678V28.3H269.038V27.7ZM253.978 28V7.84H253.378V28H253.978ZM253.678 8.14H257.518V7.54H253.678V8.14ZM257.218 7.84V24.16H257.818V7.84H257.218ZM257.518 24.46H266.158V23.86H257.518V24.46ZM266.458 24.16V7.84H265.858V24.16H266.458ZM266.158 8.14H269.998V7.54H266.158V8.14ZM269.698 7.84V24.16H270.298V7.84H269.698ZM292.556 24.16H292.256V24.46H292.556V24.16ZM295.436 24.16H295.736V23.86H295.436V24.16ZM295.436 31.84V32.14H295.736V31.84H295.436ZM291.596 31.84H291.296V32.14H291.596V31.84ZM291.596 28H291.896V27.7H291.596V28ZM276.236 28H275.936V28.3H276.236V28ZM276.236 7.84V7.54H275.936V7.84H276.236ZM280.076 7.84H280.376V7.54H280.076V7.84ZM280.076 24.16H279.776V24.46H280.076V24.16ZM288.716 24.16V24.46H289.016V24.16H288.716ZM288.716 7.84V7.54H288.416V7.84H288.716ZM292.556 7.84H292.856V7.54H292.556V7.84ZM292.556 24.46H295.436V23.86H292.556V24.46ZM295.136 24.16V31.84H295.736V24.16H295.136ZM295.436 31.54H291.596V32.14H295.436V31.54ZM291.896 31.84V28H291.296V31.84H291.896ZM291.596 27.7H276.236V28.3H291.596V27.7ZM276.536 28V7.84H275.936V28H276.536ZM276.236 8.14H280.076V7.54H276.236V8.14ZM279.776 7.84V24.16H280.376V7.84H279.776ZM280.076 24.46H288.716V23.86H280.076V24.46ZM289.016 24.16V7.84H288.416V24.16H289.016ZM288.716 8.14H292.556V7.54H288.716V8.14ZM292.256 7.84V24.16H292.856V7.84H292.256ZM313.682 28L313.402 28.1092L313.477 28.3H313.682V28ZM312.182 24.16L312.461 24.0508L312.387 23.86H312.182V24.16ZM303.662 24.16V23.86H303.457L303.382 24.0508L303.662 24.16ZM302.162 28V28.3H302.367L302.441 28.1092L302.162 28ZM297.842 28L297.565 27.8853L297.393 28.3H297.842V28ZM306.182 7.84V7.54H305.981L305.905 7.72532L306.182 7.84ZM309.662 7.84L309.939 7.72532L309.862 7.54H309.662V7.84ZM318.002 28V28.3H318.451L318.279 27.8853L318.002 28ZM305.132 20.32L304.852 20.2116L304.694 20.62H305.132V20.32ZM310.712 20.32V20.62H311.15L310.992 20.2116L310.712 20.32ZM307.922 13.12L308.202 13.0116L307.922 12.2897L307.642 13.0116L307.922 13.12ZM313.961 27.8908L312.461 24.0508L311.902 24.2692L313.402 28.1092L313.961 27.8908ZM312.182 23.86H303.662V24.46H312.182V23.86ZM303.382 24.0508L301.882 27.8908L302.441 28.1092L303.941 24.2692L303.382 24.0508ZM302.162 27.7H297.842V28.3H302.162V27.7ZM298.119 28.1147L306.459 7.95468L305.905 7.72532L297.565 27.8853L298.119 28.1147ZM306.182 8.14H309.662V7.54H306.182V8.14ZM309.385 7.95468L317.725 28.1147L318.279 27.8853L309.939 7.72532L309.385 7.95468ZM318.002 27.7H313.682V28.3H318.002V27.7ZM305.132 20.62H310.712V20.02H305.132V20.62ZM310.992 20.2116L308.202 13.0116L307.642 13.2284L310.432 20.4284L310.992 20.2116ZM307.642 13.0116L304.852 20.2116L305.412 20.4284L308.202 13.2284L307.642 13.0116Z" fill="black"/>
<path d="M63.52 49.04H64.96V51.92H64V50H56.56V51.92H55.6V49.04C55.93 48.79 56.215 48.515 56.455 48.215C56.695 47.905 56.895 47.615 57.055 47.345C57.215 47.075 57.35 46.705 57.46 46.235C57.57 45.765 57.65 45.375 57.7 45.065C57.76 44.745 57.8 44.24 57.82 43.55C57.85 42.86 57.865 42.315 57.865 41.915C57.875 41.515 57.88 40.85 57.88 39.92H63.52V49.04ZM57.025 49.04H62.56V40.88H58.84C58.84 43.1 58.715 44.805 58.465 45.995C58.215 47.185 57.735 48.2 57.025 49.04ZM67.4759 43.775C68.2059 43.045 69.0859 42.68 70.1159 42.68C71.1459 42.68 72.0209 43.045 72.7409 43.775C73.4709 44.495 73.8359 45.37 73.8359 46.4C73.8359 47.43 73.4709 48.31 72.7409 49.04C72.0209 49.76 71.1459 50.12 70.1159 50.12C69.0859 50.12 68.2059 49.76 67.4759 49.04C66.7559 48.31 66.3959 47.43 66.3959 46.4C66.3959 45.37 66.7559 44.495 67.4759 43.775ZM68.1659 48.35C68.7159 48.89 69.3659 49.16 70.1159 49.16C70.8659 49.16 71.5109 48.89 72.0509 48.35C72.6009 47.8 72.8759 47.15 72.8759 46.4C72.8759 45.65 72.6009 45.005 72.0509 44.465C71.5109 43.915 70.8659 43.64 70.1159 43.64C69.3659 43.64 68.7159 43.915 68.1659 44.465C67.6259 45.005 67.3559 45.65 67.3559 46.4C67.3559 47.15 67.6259 47.8 68.1659 48.35ZM80.8735 48.44L81.2785 49.31C80.6885 49.85 79.9035 50.12 78.9235 50.12C77.7335 50.12 76.7885 49.765 76.0885 49.055C75.3885 48.345 75.0385 47.46 75.0385 46.4C75.0385 45.34 75.3885 44.455 76.0885 43.745C76.7985 43.035 77.7435 42.68 78.9235 42.68C79.8735 42.68 80.6585 42.93 81.2785 43.43L80.8585 44.3C80.3585 43.86 79.7085 43.64 78.9085 43.64C78.0385 43.64 77.3335 43.905 76.7935 44.435C76.2635 44.965 75.9985 45.62 75.9985 46.4C75.9985 47.19 76.2635 47.85 76.7935 48.38C77.3235 48.9 78.0285 49.16 78.9085 49.16C79.6785 49.16 80.3335 48.92 80.8735 48.44ZM82.4799 42.8H87.7599V43.76H85.5999V50H84.6399V43.76H82.4799V42.8ZM95.3173 42.8H96.2773V50H95.3173V48.725C94.6373 49.655 93.7173 50.12 92.5573 50.12C91.5273 50.12 90.6473 49.76 89.9173 49.04C89.1973 48.31 88.8373 47.43 88.8373 46.4C88.8373 45.37 89.1973 44.495 89.9173 43.775C90.6473 43.045 91.5273 42.68 92.5573 42.68C93.7173 42.68 94.6373 43.145 95.3173 44.075V42.8ZM90.6073 48.35C91.1473 48.89 91.7973 49.16 92.5573 49.16C93.3173 49.16 93.9673 48.89 94.5073 48.35C95.0473 47.81 95.3173 47.16 95.3173 46.4C95.3173 45.64 95.0473 44.99 94.5073 44.45C93.9673 43.91 93.3173 43.64 92.5573 43.64C91.7973 43.64 91.1473 43.91 90.6073 44.45C90.0673 44.99 89.7973 45.64 89.7973 46.4C89.7973 47.16 90.0673 47.81 90.6073 48.35ZM102.886 46.235C103.206 46.325 103.486 46.52 103.726 46.82C103.966 47.11 104.086 47.44 104.086 47.81C104.086 49.27 103.166 50 101.326 50H98.3261V42.8H101.086C102.086 42.8 102.796 42.975 103.216 43.325C103.636 43.675 103.846 44.17 103.846 44.81C103.846 45.11 103.756 45.395 103.576 45.665C103.406 45.935 103.176 46.125 102.886 46.235ZM99.2861 43.76V45.86H101.491C101.841 45.86 102.161 45.78 102.451 45.62C102.741 45.46 102.886 45.2 102.886 44.84C102.886 44.12 102.421 43.76 101.491 43.76H99.2861ZM101.701 49.04C102.651 49.04 103.126 48.66 103.126 47.9C103.126 47.55 102.976 47.285 102.676 47.105C102.386 46.915 102.061 46.82 101.701 46.82H99.2861V49.04H101.701ZM107.805 46.28L111.885 50H110.565L106.845 46.67V50H105.885V42.8H106.845V45.95L110.325 42.8H111.645L107.805 46.28ZM118.726 42.8H119.686V50H118.726V48.725C118.046 49.655 117.126 50.12 115.966 50.12C114.936 50.12 114.056 49.76 113.326 49.04C112.606 48.31 112.246 47.43 112.246 46.4C112.246 45.37 112.606 44.495 113.326 43.775C114.056 43.045 114.936 42.68 115.966 42.68C117.126 42.68 118.046 43.145 118.726 44.075V42.8ZM114.016 48.35C114.556 48.89 115.206 49.16 115.966 49.16C116.726 49.16 117.376 48.89 117.916 48.35C118.456 47.81 118.726 47.16 118.726 46.4C118.726 45.64 118.456 44.99 117.916 44.45C117.376 43.91 116.726 43.64 115.966 43.64C115.206 43.64 114.556 43.91 114.016 44.45C113.476 44.99 113.206 45.64 113.206 46.4C113.206 47.16 113.476 47.81 114.016 48.35ZM132.656 42.8V50H131.696V43.76H127.616V50H126.656V42.8H132.656ZM135.658 42.8V47.99L140.938 42.56V50H139.978V44.81L134.698 50.24V42.8H135.658ZM148.975 49.04H150.415V51.92H149.455V50H142.975V42.8H143.935V49.04H148.015V42.8H148.975V49.04ZM158.335 49.04H159.775V51.92H158.815V50H152.335V42.8H153.295V49.04H157.375V42.8H158.335V49.04ZM161.695 50V42.8H162.655V45.44H164.455C165.445 45.44 166.19 45.635 166.69 46.025C167.2 46.405 167.455 46.95 167.455 47.66C167.455 48.38 167.2 48.95 166.69 49.37C166.18 49.79 165.435 50 164.455 50H161.695ZM168.895 50V42.8H169.855V50H168.895ZM164.725 49.04C165.865 49.04 166.435 48.6 166.435 47.72C166.435 46.84 165.865 46.4 164.725 46.4H162.655V49.04H164.725Z" fill="black"/>
<path d="M177.862 41.315C178.872 40.305 180.087 39.8 181.507 39.8C182.927 39.8 184.142 40.305 185.152 41.315C186.162 42.325 186.667 43.54 186.667 44.96C186.667 46.38 186.162 47.595 185.152 48.605C184.142 49.615 182.927 50.12 181.507 50.12C180.087 50.12 178.872 49.615 177.862 48.605C176.852 47.595 176.347 46.38 176.347 44.96C176.347 43.54 176.852 42.325 177.862 41.315ZM178.522 47.945C179.342 48.755 180.337 49.16 181.507 49.16C182.677 49.16 183.667 48.755 184.477 47.945C185.297 47.125 185.707 46.13 185.707 44.96C185.707 43.79 185.297 42.8 184.477 41.99C183.667 41.17 182.677 40.76 181.507 40.76C180.337 40.76 179.342 41.17 178.522 41.99C177.712 42.8 177.307 43.79 177.307 44.96C177.307 46.13 177.712 47.125 178.522 47.945ZM189.301 42.8V44.075C189.981 43.145 190.901 42.68 192.061 42.68C193.091 42.68 193.966 43.045 194.686 43.775C195.416 44.495 195.781 45.37 195.781 46.4C195.781 47.43 195.416 48.31 194.686 49.04C193.966 49.76 193.091 50.12 192.061 50.12C190.901 50.12 189.981 49.655 189.301 48.725V53.84H188.341V42.8H189.301ZM190.111 48.35C190.651 48.89 191.301 49.16 192.061 49.16C192.821 49.16 193.471 48.89 194.011 48.35C194.551 47.81 194.821 47.16 194.821 46.4C194.821 45.64 194.551 44.99 194.011 44.45C193.471 43.91 192.821 43.64 192.061 43.64C191.301 43.64 190.651 43.91 190.111 44.45C189.571 44.99 189.301 45.64 189.301 46.4C189.301 47.16 189.571 47.81 190.111 48.35ZM199.777 41.63C199.637 41.77 199.467 41.84 199.267 41.84C199.067 41.84 198.897 41.77 198.757 41.63C198.617 41.49 198.547 41.32 198.547 41.12C198.547 40.92 198.617 40.75 198.757 40.61C198.897 40.47 199.067 40.4 199.267 40.4C199.467 40.4 199.637 40.47 199.777 40.61C199.917 40.75 199.987 40.92 199.987 41.12C199.987 41.32 199.917 41.49 199.777 41.63ZM202.177 41.63C202.037 41.77 201.867 41.84 201.667 41.84C201.467 41.84 201.297 41.77 201.157 41.63C201.017 41.49 200.947 41.32 200.947 41.12C200.947 40.92 201.017 40.75 201.157 40.61C201.297 40.47 201.467 40.4 201.667 40.4C201.867 40.4 202.037 40.47 202.177 40.61C202.317 40.75 202.387 40.92 202.387 41.12C202.387 41.32 202.317 41.49 202.177 41.63ZM203.947 46.37C203.947 46.55 203.932 46.72 203.902 46.88H197.977C198.047 47.56 198.342 48.11 198.862 48.53C199.382 48.95 200.027 49.16 200.797 49.16C201.667 49.16 202.437 48.9 203.107 48.38L203.467 49.25C202.777 49.83 201.877 50.12 200.767 50.12C199.617 50.12 198.697 49.765 198.007 49.055C197.327 48.335 196.987 47.45 196.987 46.4C196.987 45.33 197.312 44.445 197.962 43.745C198.622 43.035 199.492 42.68 200.572 42.68C201.552 42.68 202.357 43.015 202.987 43.685C203.627 44.345 203.947 45.24 203.947 46.37ZM197.977 45.92H202.972C202.942 45.34 202.722 44.815 202.312 44.345C201.902 43.875 201.307 43.64 200.527 43.64C199.737 43.64 199.122 43.875 198.682 44.345C198.242 44.815 198.007 45.34 197.977 45.92ZM210.672 50V43.76H207.552V47.765C207.552 48.585 207.417 49.185 207.147 49.565C206.877 49.935 206.467 50.12 205.917 50.12C205.597 50.12 205.342 50.08 205.152 50V49.04C205.632 49.19 205.992 49.185 206.232 49.025C206.472 48.865 206.592 48.49 206.592 47.9V42.8H211.632V50H210.672Z" fill="#FF5925"/>
</svg>
