<svg width="219" height="47" viewBox="0 0 219 47" fill="none" xmlns="http://www.w3.org/2000/svg">
<circle cx="23.5" cy="23.5" r="23.5" fill="#D9D9D9"/>
<path d="M61.47 33.27C60.71 33.27 60.13 33.06 59.73 32.64C59.33 32.22 59.13 31.63 59.13 30.87V14.28C59.13 12.66 59.94 11.85 61.56 11.85H75.63C77.25 11.85 78.06 12.66 78.06 14.28V30.87C78.06 31.63 77.86 32.22 77.46 32.64C77.06 33.06 76.49 33.27 75.75 33.27C74.19 33.27 73.41 32.47 73.41 30.87V15.69H63.78V30.87C63.78 32.47 63.01 33.27 61.47 33.27ZM89.2338 33.33C87.6538 33.33 86.2738 33.02 85.0938 32.4C83.9338 31.76 83.0338 30.87 82.3938 29.73C81.7538 28.57 81.4338 27.2 81.4338 25.62C81.4338 24.06 81.7538 22.71 82.3938 21.57C83.0338 20.41 83.9338 19.52 85.0938 18.9C86.2738 18.28 87.6538 17.97 89.2338 17.97C90.8138 17.97 92.1838 18.28 93.3438 18.9C94.5238 19.52 95.4338 20.41 96.0738 21.57C96.7338 22.71 97.0638 24.06 97.0638 25.62C97.0638 27.2 96.7338 28.57 96.0738 29.73C95.4338 30.87 94.5238 31.76 93.3438 32.4C92.1838 33.02 90.8138 33.33 89.2338 33.33ZM89.2338 29.94C90.1938 29.94 90.9738 29.59 91.5738 28.89C92.1938 28.19 92.5038 27.1 92.5038 25.62C92.5038 24.16 92.1938 23.09 91.5738 22.41C90.9738 21.71 90.1938 21.36 89.2338 21.36C88.2738 21.36 87.4938 21.71 86.8938 22.41C86.2938 23.09 85.9938 24.16 85.9938 25.62C85.9938 27.1 86.2938 28.19 86.8938 28.89C87.4938 29.59 88.2738 29.94 89.2338 29.94ZM107.429 33.33C105.829 33.33 104.429 33.02 103.229 32.4C102.049 31.76 101.139 30.86 100.499 29.7C99.8593 28.54 99.5393 27.17 99.5393 25.59C99.5393 24.01 99.8593 22.65 100.499 21.51C101.139 20.37 102.049 19.5 103.229 18.9C104.429 18.28 105.829 17.97 107.429 17.97C108.049 17.97 108.709 18.05 109.409 18.21C110.129 18.35 110.819 18.6 111.479 18.96C111.979 19.2 112.289 19.54 112.409 19.98C112.529 20.4 112.499 20.82 112.319 21.24C112.159 21.66 111.889 21.97 111.509 22.17C111.149 22.35 110.719 22.31 110.219 22.05C109.419 21.63 108.639 21.42 107.879 21.42C106.699 21.42 105.779 21.79 105.119 22.53C104.479 23.25 104.159 24.28 104.159 25.62C104.159 26.94 104.479 27.98 105.119 28.74C105.779 29.48 106.699 29.85 107.879 29.85C108.239 29.85 108.619 29.81 109.019 29.73C109.419 29.63 109.819 29.47 110.219 29.25C110.719 28.99 111.149 28.96 111.509 29.16C111.889 29.36 112.149 29.67 112.289 30.09C112.429 30.49 112.439 30.91 112.319 31.35C112.199 31.79 111.899 32.13 111.419 32.37C110.739 32.71 110.059 32.95 109.379 33.09C108.699 33.25 108.049 33.33 107.429 33.33ZM117.364 33.27C116.624 33.27 116.054 33.07 115.654 32.67C115.274 32.27 115.084 31.7 115.084 30.96V20.34C115.084 19.6 115.274 19.03 115.654 18.63C116.054 18.23 116.624 18.03 117.364 18.03C118.864 18.03 119.614 18.8 119.614 20.34V23.76H121.384L124.744 19.08C125.164 18.5 125.644 18.17 126.184 18.09C126.724 18.01 127.214 18.12 127.654 18.42C128.094 18.7 128.374 19.09 128.494 19.59C128.634 20.09 128.494 20.64 128.074 21.24L125.494 24.87C125.914 25.13 126.294 25.47 126.634 25.89C126.994 26.29 127.324 26.76 127.624 27.3L129.214 30.21C129.494 30.71 129.584 31.18 129.484 31.62C129.384 32.04 129.174 32.39 128.854 32.67C128.534 32.95 128.154 33.12 127.714 33.18C127.274 33.26 126.844 33.21 126.424 33.03C126.004 32.85 125.654 32.5 125.374 31.98L123.544 28.74C123.224 28.16 122.894 27.77 122.554 27.57C122.214 27.35 121.774 27.24 121.234 27.24H119.614V30.96C119.614 32.5 118.864 33.27 117.364 33.27ZM139.537 33.33C137.957 33.33 136.577 33.02 135.397 32.4C134.237 31.76 133.337 30.87 132.697 29.73C132.057 28.57 131.737 27.2 131.737 25.62C131.737 24.06 132.057 22.71 132.697 21.57C133.337 20.41 134.237 19.52 135.397 18.9C136.577 18.28 137.957 17.97 139.537 17.97C141.117 17.97 142.487 18.28 143.647 18.9C144.827 19.52 145.737 20.41 146.377 21.57C147.037 22.71 147.367 24.06 147.367 25.62C147.367 27.2 147.037 28.57 146.377 29.73C145.737 30.87 144.827 31.76 143.647 32.4C142.487 33.02 141.117 33.33 139.537 33.33ZM139.537 29.94C140.497 29.94 141.277 29.59 141.877 28.89C142.497 28.19 142.807 27.1 142.807 25.62C142.807 24.16 142.497 23.09 141.877 22.41C141.277 21.71 140.497 21.36 139.537 21.36C138.577 21.36 137.797 21.71 137.197 22.41C136.597 23.09 136.297 24.16 136.297 25.62C136.297 27.1 136.597 28.19 137.197 28.89C137.797 29.59 138.577 29.94 139.537 29.94ZM152.842 38.67C151.322 38.67 150.562 37.9 150.562 36.36V20.31C150.562 18.79 151.302 18.03 152.782 18.03C154.282 18.03 155.032 18.79 155.032 20.31V20.4C155.452 19.66 156.072 19.07 156.892 18.63C157.712 18.19 158.632 17.97 159.652 17.97C160.932 17.97 162.052 18.28 163.012 18.9C163.992 19.52 164.752 20.4 165.292 21.54C165.832 22.68 166.102 24.04 166.102 25.62C166.102 27.2 165.832 28.57 165.292 29.73C164.752 30.87 163.992 31.76 163.012 32.4C162.052 33.02 160.932 33.33 159.652 33.33C158.672 33.33 157.772 33.12 156.952 32.7C156.152 32.28 155.532 31.72 155.092 31.02V36.36C155.092 37.9 154.342 38.67 152.842 38.67ZM158.302 29.94C159.262 29.94 160.042 29.59 160.642 28.89C161.242 28.19 161.542 27.1 161.542 25.62C161.542 24.16 161.242 23.09 160.642 22.41C160.042 21.71 159.262 21.36 158.302 21.36C157.322 21.36 156.532 21.71 155.932 22.41C155.332 23.09 155.032 24.16 155.032 25.62C155.032 27.1 155.332 28.19 155.932 28.89C156.532 29.59 157.322 29.94 158.302 29.94ZM176.991 33.33C175.251 33.33 173.751 33.02 172.491 32.4C171.251 31.76 170.291 30.87 169.611 29.73C168.951 28.57 168.621 27.21 168.621 25.65C168.621 24.13 168.941 22.8 169.581 21.66C170.241 20.5 171.131 19.6 172.251 18.96C173.391 18.3 174.701 17.97 176.181 17.97C178.321 17.97 180.021 18.65 181.281 20.01C182.541 21.35 183.171 23.17 183.171 25.47C183.171 26.23 182.701 26.61 181.761 26.61H172.941C173.101 27.77 173.521 28.62 174.201 29.16C174.901 29.68 175.861 29.94 177.081 29.94C177.561 29.94 178.101 29.89 178.701 29.79C179.321 29.67 179.911 29.47 180.471 29.19C181.051 28.91 181.541 28.86 181.941 29.04C182.341 29.2 182.611 29.48 182.751 29.88C182.911 30.28 182.911 30.7 182.751 31.14C182.611 31.56 182.281 31.91 181.761 32.19C181.061 32.57 180.281 32.85 179.421 33.03C178.581 33.23 177.771 33.33 176.991 33.33ZM176.361 20.97C175.401 20.97 174.621 21.26 174.021 21.84C173.441 22.42 173.081 23.23 172.941 24.27H179.421C179.301 22.07 178.281 20.97 176.361 20.97ZM193.925 33.33C192.185 33.33 190.685 33.02 189.425 32.4C188.185 31.76 187.225 30.87 186.545 29.73C185.885 28.57 185.555 27.21 185.555 25.65C185.555 24.13 185.875 22.8 186.515 21.66C187.175 20.5 188.065 19.6 189.185 18.96C190.325 18.3 191.635 17.97 193.115 17.97C195.255 17.97 196.955 18.65 198.215 20.01C199.475 21.35 200.105 23.17 200.105 25.47C200.105 26.23 199.635 26.61 198.695 26.61H189.875C190.035 27.77 190.455 28.62 191.135 29.16C191.835 29.68 192.795 29.94 194.015 29.94C194.495 29.94 195.035 29.89 195.635 29.79C196.255 29.67 196.845 29.47 197.405 29.19C197.985 28.91 198.475 28.86 198.875 29.04C199.275 29.2 199.545 29.48 199.685 29.88C199.845 30.28 199.845 30.7 199.685 31.14C199.545 31.56 199.215 31.91 198.695 32.19C197.995 32.57 197.215 32.85 196.355 33.03C195.515 33.23 194.705 33.33 193.925 33.33ZM193.295 20.97C192.335 20.97 191.555 21.26 190.955 21.84C190.375 22.42 190.015 23.23 189.875 24.27H196.355C196.235 22.07 195.215 20.97 193.295 20.97ZM205.399 33C203.939 33 203.209 32.26 203.209 30.78V20.49C203.209 19.01 203.939 18.27 205.399 18.27H211.579C213.579 18.27 214.999 18.62 215.839 19.32C216.679 20 217.099 20.94 217.099 22.14C217.099 22.88 216.889 23.53 216.469 24.09C216.069 24.65 215.509 25.06 214.789 25.32C215.769 25.56 216.489 25.99 216.949 26.61C217.409 27.23 217.639 27.98 217.639 28.86C217.639 30.12 217.139 31.13 216.139 31.89C215.159 32.63 213.719 33 211.819 33H205.399ZM207.379 24.15H211.099C211.699 24.15 212.169 24.01 212.509 23.73C212.849 23.45 213.019 23.05 213.019 22.53C213.019 22.01 212.849 21.62 212.509 21.36C212.169 21.1 211.699 20.97 211.099 20.97H207.379V24.15ZM207.379 30.3H211.369C212.829 30.3 213.559 29.72 213.559 28.56C213.559 27.4 212.829 26.82 211.369 26.82H207.379V30.3Z" fill="black"/>
<path d="M59.73 32.64L59.9472 32.4331L59.9472 32.4331L59.73 32.64ZM77.46 32.64L77.2428 32.4331L77.46 32.64ZM73.41 15.69H73.71V15.39H73.41V15.69ZM63.78 15.69V15.39H63.48V15.69H63.78ZM61.47 32.97C60.7654 32.97 60.2745 32.7768 59.9472 32.4331L59.5128 32.8469C59.9855 33.3432 60.6546 33.57 61.47 33.57V32.97ZM59.9472 32.4331C59.6152 32.0845 59.43 31.5776 59.43 30.87H58.83C58.83 31.6824 59.0448 32.3555 59.5128 32.8469L59.9472 32.4331ZM59.43 30.87V14.28H58.83V30.87H59.43ZM59.43 14.28C59.43 13.5162 59.6207 12.9985 59.9496 12.6696C60.2785 12.3407 60.7962 12.15 61.56 12.15V11.55C60.7038 11.55 60.0065 11.7643 59.5254 12.2454C59.0443 12.7265 58.83 13.4238 58.83 14.28H59.43ZM61.56 12.15H75.63V11.55H61.56V12.15ZM75.63 12.15C76.3938 12.15 76.9115 12.3407 77.2404 12.6696C77.5693 12.9985 77.76 13.5162 77.76 14.28H78.36C78.36 13.4238 78.1457 12.7265 77.6646 12.2454C77.1835 11.7643 76.4862 11.55 75.63 11.55V12.15ZM77.76 14.28V30.87H78.36V14.28H77.76ZM77.76 30.87C77.76 31.5776 77.5748 32.0845 77.2428 32.4331L77.6772 32.8469C78.1452 32.3555 78.36 31.6824 78.36 30.87H77.76ZM77.2428 32.4331C76.914 32.7783 76.4318 32.97 75.75 32.97V33.57C76.5482 33.57 77.206 33.3417 77.6772 32.8469L77.2428 32.4331ZM75.75 32.97C75.0182 32.97 74.524 32.7828 74.2098 32.4606C73.8942 32.1369 73.71 31.6256 73.71 30.87H73.11C73.11 31.7144 73.3158 32.4031 73.7802 32.8794C74.246 33.3572 74.9218 33.57 75.75 33.57V32.97ZM73.71 30.87V15.69H73.11V30.87H73.71ZM73.41 15.39H63.78V15.99H73.41V15.39ZM63.48 15.69V30.87H64.08V15.69H63.48ZM63.48 30.87C63.48 31.6266 63.2978 32.1384 62.9864 32.462C62.677 32.7834 62.1908 32.97 61.47 32.97V33.57C62.2892 33.57 62.958 33.3566 63.4186 32.878C63.8772 32.4016 64.08 31.7134 64.08 30.87H63.48ZM85.0938 32.4L84.9489 32.6627L84.9543 32.6656L85.0938 32.4ZM82.3938 29.73L82.1311 29.8749L82.1322 29.8769L82.3938 29.73ZM82.3938 21.57L82.6554 21.7169L82.6565 21.7149L82.3938 21.57ZM85.0938 18.9L84.9543 18.6344L84.9524 18.6354L85.0938 18.9ZM93.3438 18.9L93.2024 19.1646L93.2043 19.1656L93.3438 18.9ZM96.0738 21.57L95.8111 21.715L95.8142 21.7203L96.0738 21.57ZM96.0738 29.73L95.8131 29.5816L95.8122 29.5831L96.0738 29.73ZM93.3438 32.4L93.4852 32.6646L93.4869 32.6637L93.3438 32.4ZM91.5738 28.89L91.3492 28.6911L91.3461 28.6948L91.5738 28.89ZM91.5738 22.41L91.3459 22.6053L91.3521 22.6121L91.5738 22.41ZM86.8938 22.41L87.1188 22.6085L87.1216 22.6052L86.8938 22.41ZM86.8938 28.89L87.1216 28.6948L87.1216 28.6948L86.8938 28.89ZM89.2338 33.03C87.6935 33.03 86.363 32.728 85.2334 32.1344L84.9543 32.6656C86.1846 33.312 87.6142 33.63 89.2338 33.63V33.03ZM85.2388 32.1373C84.127 31.5239 83.2677 30.6737 82.6554 29.5831L82.1322 29.8769C82.8 31.0663 83.7407 31.9961 84.9489 32.6627L85.2388 32.1373ZM82.6565 29.5851C82.0453 28.4773 81.7338 27.1591 81.7338 25.62H81.1338C81.1338 27.2409 81.4624 28.6627 82.1312 29.8749L82.6565 29.5851ZM81.7338 25.62C81.7338 24.1015 82.0451 22.8041 82.6554 21.7169L82.1322 21.4231C81.4626 22.6159 81.1338 24.0185 81.1338 25.62H81.7338ZM82.6565 21.7149C83.2687 20.6053 84.1268 19.757 85.2352 19.1646L84.9524 18.6354C83.7409 19.283 82.7989 20.2147 82.1312 21.4251L82.6565 21.7149ZM85.2334 19.1656C86.363 18.572 87.6935 18.27 89.2338 18.27V17.67C87.6142 17.67 86.1846 17.988 84.9543 18.6344L85.2334 19.1656ZM89.2338 18.27C90.7744 18.27 92.0939 18.5721 93.2024 19.1646L93.4852 18.6354C92.2738 17.9879 90.8533 17.67 89.2338 17.67V18.27ZM93.2043 19.1656C94.3327 19.7584 95.1997 20.6067 95.8112 21.7149L96.3365 21.4251C95.668 20.2133 94.715 19.2816 93.4834 18.6344L93.2043 19.1656ZM95.8142 21.7203C96.4433 22.8069 96.7638 24.103 96.7638 25.62H97.3638C97.3638 24.017 97.0244 22.6131 96.3335 21.4197L95.8142 21.7203ZM96.7638 25.62C96.7638 27.1576 96.443 28.4745 95.8131 29.5816L96.3346 29.8784C97.0247 28.6655 97.3638 27.2424 97.3638 25.62H96.7638ZM95.8122 29.5831C95.2007 30.6724 94.3325 31.5225 93.2008 32.1363L93.4869 32.6637C94.7152 31.9975 95.6669 31.0676 96.3354 29.8769L95.8122 29.5831ZM93.2024 32.1354C92.0939 32.7279 90.7744 33.03 89.2338 33.03V33.63C90.8533 33.63 92.2738 33.3121 93.4852 32.6646L93.2024 32.1354ZM89.2338 30.24C90.2773 30.24 91.142 29.8548 91.8016 29.0852L91.3461 28.6948C90.8057 29.3252 90.1104 29.64 89.2338 29.64V30.24ZM91.7984 29.0889C92.4885 28.3098 92.8038 27.1327 92.8038 25.62H92.2038C92.2038 27.0673 91.8992 28.0702 91.3493 28.6911L91.7984 29.0889ZM92.8038 25.62C92.8038 24.127 92.4883 22.9677 91.7955 22.2079L91.3521 22.6121C91.8993 23.2123 92.2038 24.193 92.2038 25.62H92.8038ZM91.8016 22.2148C91.142 21.4452 90.2773 21.06 89.2338 21.06V21.66C90.1104 21.66 90.8057 21.9748 91.3461 22.6052L91.8016 22.2148ZM89.2338 21.06C88.1904 21.06 87.3257 21.4452 86.6661 22.2148L87.1216 22.6052C87.662 21.9748 88.3573 21.66 89.2338 21.66V21.06ZM86.6689 22.2115C85.9985 22.9713 85.6938 24.1289 85.6938 25.62H86.2938C86.2938 24.1911 86.5891 23.2087 87.1188 22.6085L86.6689 22.2115ZM85.6938 25.62C85.6938 27.1309 85.9984 28.3064 86.6661 29.0852L87.1216 28.6948C86.5892 28.0736 86.2938 27.0691 86.2938 25.62H85.6938ZM86.6661 29.0852C87.3257 29.8548 88.1904 30.24 89.2338 30.24V29.64C88.3573 29.64 87.662 29.3252 87.1216 28.6948L86.6661 29.0852ZM103.229 32.4L103.086 32.6638L103.092 32.6665L103.229 32.4ZM100.499 29.7L100.237 29.8449L100.237 29.8449L100.499 29.7ZM100.499 21.51L100.238 21.3631L100.238 21.3631L100.499 21.51ZM103.229 18.9L103.365 19.1674L103.367 19.1665L103.229 18.9ZM109.409 18.21L109.342 18.5026L109.352 18.5045L109.409 18.21ZM111.479 18.96L111.336 19.2234L111.342 19.2271L111.349 19.2305L111.479 18.96ZM112.409 19.98L112.12 20.0589L112.121 20.0624L112.409 19.98ZM112.319 21.24L112.043 21.1217L112.039 21.1332L112.319 21.24ZM111.509 22.17L111.643 22.4384L111.649 22.4355L111.509 22.17ZM110.219 22.05L110.08 22.3156L110.081 22.3162L110.219 22.05ZM105.119 22.53L104.895 22.3303L104.895 22.3307L105.119 22.53ZM105.119 28.74L104.89 28.9333L104.895 28.9397L105.119 28.74ZM109.019 29.73L109.078 30.0242L109.085 30.0228L109.092 30.021L109.019 29.73ZM110.219 29.25L110.081 28.9838L110.075 28.9871L110.219 29.25ZM111.509 29.16L111.364 29.4223L111.37 29.4255L111.509 29.16ZM112.289 30.09L112.005 30.1849L112.006 30.1891L112.289 30.09ZM111.419 32.37L111.553 32.6383L111.553 32.6383L111.419 32.37ZM109.379 33.09L109.319 32.796L109.311 32.798L109.379 33.09ZM107.429 33.03C105.868 33.03 104.517 32.7278 103.367 32.1335L103.092 32.6665C104.341 33.3122 105.79 33.63 107.429 33.63V33.03ZM103.372 32.1363C102.242 31.5233 101.374 30.6642 100.762 29.5551L100.237 29.8449C100.905 31.0558 101.857 31.9967 103.086 32.6637L103.372 32.1363ZM100.762 29.5551C100.151 28.4473 99.8393 27.1291 99.8393 25.59H99.2393C99.2393 27.2109 99.5678 28.6327 100.237 29.8449L100.762 29.5551ZM99.8393 25.59C99.8393 24.0507 100.151 22.7435 100.761 21.6569L100.238 21.3631C99.5678 22.5565 99.2393 23.9693 99.2393 25.59H99.8393ZM100.761 21.6569C101.371 20.5693 102.237 19.7409 103.365 19.1674L103.093 18.6326C101.861 19.2591 100.907 20.1707 100.238 21.3631L100.761 21.6569ZM103.367 19.1665C104.517 18.5722 105.868 18.27 107.429 18.27V17.67C105.79 17.67 104.341 17.9878 103.092 18.6335L103.367 19.1665ZM107.429 18.27C108.024 18.27 108.661 18.3467 109.342 18.5025L109.476 17.9175C108.758 17.7533 108.075 17.67 107.429 17.67V18.27ZM109.352 18.5045C110.041 18.6385 110.702 18.8777 111.336 19.2234L111.623 18.6966C110.937 18.3223 110.218 18.0615 109.467 17.9155L109.352 18.5045ZM111.349 19.2305C111.79 19.4417 112.028 19.7209 112.12 20.0589L112.699 19.9011C112.551 19.3591 112.169 18.9583 111.609 18.6895L111.349 19.2305ZM112.121 20.0624C112.221 20.4128 112.198 20.7621 112.044 21.1218L112.595 21.3582C112.801 20.8779 112.838 20.3872 112.698 19.8976L112.121 20.0624ZM112.039 21.1332C111.904 21.4884 111.682 21.7402 111.37 21.9045L111.649 22.4355C112.097 22.1998 112.415 21.8316 112.6 21.3468L112.039 21.1332ZM111.375 21.9017C111.132 22.0231 110.809 22.0185 110.358 21.7838L110.081 22.3162C110.63 22.6015 111.166 22.6769 111.643 22.4383L111.375 21.9017ZM110.359 21.7844C109.524 21.346 108.696 21.12 107.879 21.12V21.72C108.582 21.72 109.315 21.914 110.08 22.3156L110.359 21.7844ZM107.879 21.12C106.632 21.12 105.623 21.5143 104.895 22.3303L105.343 22.7297C105.935 22.0657 106.767 21.72 107.879 21.72V21.12ZM104.895 22.3307C104.19 23.1238 103.859 24.2353 103.859 25.62H104.459C104.459 24.3247 104.769 23.3762 105.344 22.7293L104.895 22.3307ZM103.859 25.62C103.859 26.9873 104.191 28.1036 104.89 28.9332L105.349 28.5468C104.767 27.8564 104.459 26.8927 104.459 25.62H103.859ZM104.895 28.9397C105.623 29.7557 106.632 30.15 107.879 30.15V29.55C106.767 29.55 105.935 29.2043 105.343 28.5403L104.895 28.9397ZM107.879 30.15C108.261 30.15 108.661 30.1075 109.078 30.0242L108.96 29.4358C108.577 29.5125 108.217 29.55 107.879 29.55V30.15ZM109.092 30.021C109.52 29.9142 109.944 29.744 110.364 29.5129L110.075 28.9871C109.695 29.196 109.319 29.3458 108.947 29.439L109.092 30.021ZM110.358 29.5162C110.805 29.2838 111.122 29.2881 111.364 29.4222L111.655 28.8978C111.176 28.6319 110.634 28.6962 110.081 28.9838L110.358 29.5162ZM111.37 29.4255C111.679 29.5882 111.888 29.8358 112.005 30.1849L112.574 29.9951C112.41 29.5042 112.1 29.1318 111.649 28.8945L111.37 29.4255ZM112.006 30.1891C112.125 30.5273 112.135 30.885 112.03 31.2711L112.609 31.4289C112.743 30.935 112.734 30.4527 112.572 29.9909L112.006 30.1891ZM112.03 31.2711C111.936 31.614 111.704 31.8924 111.285 32.1017L111.553 32.6383C112.095 32.3676 112.462 31.966 112.609 31.4289L112.03 31.2711ZM111.285 32.1017C110.626 32.4311 109.971 32.6619 109.319 32.7962L109.44 33.3838C110.148 33.2381 110.852 32.9889 111.553 32.6383L111.285 32.1017ZM109.311 32.798C108.65 32.9533 108.023 33.03 107.429 33.03V33.63C108.075 33.63 108.748 33.5467 109.448 33.382L109.311 32.798ZM115.654 32.67L115.436 32.8767L115.441 32.8821L115.654 32.67ZM115.654 18.63L115.441 18.4178L115.436 18.4234L115.654 18.63ZM119.614 23.76H119.314V24.06H119.614V23.76ZM121.384 23.76V24.06H121.537L121.627 23.935L121.384 23.76ZM124.744 19.08L124.501 18.904L124.5 18.905L124.744 19.08ZM126.184 18.09L126.227 18.3868L126.227 18.3868L126.184 18.09ZM127.654 18.42L127.484 18.668L127.492 18.6731L127.654 18.42ZM128.494 19.59L128.202 19.6601L128.205 19.6709L128.494 19.59ZM128.074 21.24L128.318 21.4138L128.319 21.412L128.074 21.24ZM125.494 24.87L125.249 24.6962L125.064 24.9568L125.336 25.1251L125.494 24.87ZM126.634 25.89L126.4 26.0788L126.405 26.0849L126.411 26.0907L126.634 25.89ZM127.624 27.3L127.887 27.1562L127.886 27.1543L127.624 27.3ZM129.214 30.21L128.95 30.3539L128.952 30.3566L129.214 30.21ZM129.484 31.62L129.775 31.6895L129.776 31.6865L129.484 31.62ZM128.854 32.67L129.051 32.8958L129.051 32.8958L128.854 32.67ZM127.714 33.18L127.673 32.8825L127.66 32.8848L127.714 33.18ZM126.424 33.03L126.542 32.7543L126.542 32.7543L126.424 33.03ZM125.374 31.98L125.638 31.8377L125.635 31.8325L125.374 31.98ZM123.544 28.74L123.281 28.8849L123.282 28.8875L123.544 28.74ZM122.554 27.57L122.39 27.8221L122.401 27.8286L122.554 27.57ZM119.614 27.24V26.94H119.314V27.24H119.614ZM117.364 32.97C116.678 32.97 116.194 32.7858 115.866 32.4579L115.441 32.8821C115.913 33.3542 116.569 33.57 117.364 33.57V32.97ZM115.871 32.4634C115.56 32.136 115.384 31.6499 115.384 30.96H114.784C114.784 31.7501 114.987 32.404 115.436 32.8766L115.871 32.4634ZM115.384 30.96V20.34H114.784V30.96H115.384ZM115.384 20.34C115.384 19.6501 115.56 19.164 115.871 18.8366L115.436 18.4234C114.987 18.896 114.784 19.5499 114.784 20.34H115.384ZM115.866 18.8421C116.194 18.5142 116.678 18.33 117.364 18.33V17.73C116.569 17.73 115.913 17.9458 115.441 18.4179L115.866 18.8421ZM117.364 18.33C118.065 18.33 118.537 18.5096 118.836 18.8168C119.137 19.1255 119.314 19.6143 119.314 20.34H119.914C119.914 19.5257 119.715 18.8595 119.266 18.3982C118.815 17.9354 118.162 17.73 117.364 17.73V18.33ZM119.314 20.34V23.76H119.914V20.34H119.314ZM119.614 24.06H121.384V23.46H119.614V24.06ZM121.627 23.935L124.987 19.255L124.5 18.905L121.14 23.585L121.627 23.935ZM124.986 19.256C125.375 18.7201 125.79 18.4516 126.227 18.3868L126.14 17.7932C125.497 17.8884 124.953 18.2799 124.501 18.904L124.986 19.256ZM126.227 18.3868C126.695 18.3175 127.109 18.4115 127.485 18.6679L127.823 18.1721C127.318 17.8285 126.752 17.7025 126.14 17.7932L126.227 18.3868ZM127.492 18.6731C127.868 18.912 128.1 19.2369 128.202 19.66L128.785 19.52C128.647 18.9431 128.319 18.488 127.815 18.1669L127.492 18.6731ZM128.205 19.6709C128.312 20.0531 128.218 20.51 127.828 21.068L128.319 21.412C128.769 20.77 128.955 20.1269 128.782 19.5091L128.205 19.6709ZM127.829 21.0662L125.249 24.6962L125.738 25.0438L128.318 21.4138L127.829 21.0662ZM125.336 25.1251C125.724 25.3658 126.08 25.6825 126.4 26.0788L126.867 25.7012C126.507 25.2575 126.103 24.8942 125.651 24.6149L125.336 25.1251ZM126.411 26.0907C126.753 26.4716 127.071 26.9226 127.361 27.4457L127.886 27.1543C127.576 26.5974 127.234 26.1084 126.857 25.6893L126.411 26.0907ZM127.36 27.4438L128.95 30.3538L129.477 30.0662L127.887 27.1562L127.36 27.4438ZM128.952 30.3566C129.206 30.8099 129.27 31.2039 129.191 31.5535L129.776 31.6865C129.897 31.1561 129.781 30.6101 129.475 30.0634L128.952 30.3566ZM129.192 31.5505C129.106 31.9109 128.928 32.2059 128.656 32.4442L129.051 32.8958C129.419 32.5741 129.661 32.1691 129.775 31.6895L129.192 31.5505ZM128.656 32.4442C128.382 32.6838 128.057 32.8303 127.673 32.8828L127.754 33.4772C128.25 33.4097 128.685 33.2162 129.051 32.8958L128.656 32.4442ZM127.66 32.8848C127.279 32.9541 126.909 32.9116 126.542 32.7543L126.305 33.3057C126.778 33.5084 127.268 33.5659 127.767 33.4752L127.66 32.8848ZM126.542 32.7543C126.2 32.6079 125.895 32.3157 125.638 31.8378L125.109 32.1222C125.412 32.6843 125.807 33.0921 126.305 33.3057L126.542 32.7543ZM125.635 31.8325L123.805 28.5925L123.282 28.8875L125.112 32.1275L125.635 31.8325ZM123.806 28.5951C123.476 27.9963 123.114 27.5514 122.706 27.3114L122.401 27.8286C122.673 27.9886 122.971 28.3237 123.281 28.8849L123.806 28.5951ZM122.716 27.3181C122.314 27.0578 121.813 26.94 121.234 26.94V27.54C121.735 27.54 122.113 27.6422 122.391 27.8219L122.716 27.3181ZM121.234 26.94H119.614V27.54H121.234V26.94ZM119.314 27.24V30.96H119.914V27.24H119.314ZM119.314 30.96C119.314 31.6857 119.137 32.1745 118.836 32.4832C118.537 32.7904 118.065 32.97 117.364 32.97V33.57C118.162 33.57 118.815 33.3646 119.266 32.9018C119.715 32.4405 119.914 31.7743 119.914 30.96H119.314ZM135.397 32.4L135.252 32.6627L135.257 32.6656L135.397 32.4ZM132.697 29.73L132.434 29.8749L132.435 29.8769L132.697 29.73ZM132.697 21.57L132.958 21.7169L132.959 21.7149L132.697 21.57ZM135.397 18.9L135.257 18.6344L135.255 18.6354L135.397 18.9ZM143.647 18.9L143.505 19.1646L143.507 19.1656L143.647 18.9ZM146.377 21.57L146.114 21.715L146.117 21.7203L146.377 21.57ZM146.377 29.73L146.116 29.5816L146.115 29.5831L146.377 29.73ZM143.647 32.4L143.788 32.6646L143.79 32.6637L143.647 32.4ZM141.877 28.89L141.652 28.6911L141.649 28.6948L141.877 28.89ZM141.877 22.41L141.649 22.6053L141.655 22.6121L141.877 22.41ZM137.197 22.41L137.422 22.6085L137.424 22.6052L137.197 22.41ZM137.197 28.89L137.424 28.6948L137.424 28.6948L137.197 28.89ZM139.537 33.03C137.996 33.03 136.666 32.728 135.536 32.1344L135.257 32.6656C136.487 33.312 137.917 33.63 139.537 33.63V33.03ZM135.541 32.1373C134.43 31.5239 133.57 30.6737 132.958 29.5831L132.435 29.8769C133.103 31.0663 134.043 31.9961 135.252 32.6627L135.541 32.1373ZM132.959 29.5851C132.348 28.4773 132.037 27.1591 132.037 25.62H131.437C131.437 27.2409 131.765 28.6627 132.434 29.8749L132.959 29.5851ZM132.037 25.62C132.037 24.1015 132.348 22.8041 132.958 21.7169L132.435 21.4231C131.765 22.6159 131.437 24.0185 131.437 25.62H132.037ZM132.959 21.7149C133.571 20.6053 134.43 19.757 135.538 19.1646L135.255 18.6354C134.044 19.283 133.102 20.2147 132.434 21.4251L132.959 21.7149ZM135.536 19.1656C136.666 18.572 137.996 18.27 139.537 18.27V17.67C137.917 17.67 136.487 17.988 135.257 18.6344L135.536 19.1656ZM139.537 18.27C141.077 18.27 142.397 18.5721 143.505 19.1646L143.788 18.6354C142.577 17.9879 141.156 17.67 139.537 17.67V18.27ZM143.507 19.1656C144.635 19.7584 145.502 20.6067 146.114 21.7149L146.639 21.4251C145.971 20.2133 145.018 19.2816 143.786 18.6344L143.507 19.1656ZM146.117 21.7203C146.746 22.8069 147.067 24.103 147.067 25.62H147.667C147.667 24.017 147.327 22.6131 146.636 21.4197L146.117 21.7203ZM147.067 25.62C147.067 27.1576 146.746 28.4745 146.116 29.5816L146.637 29.8784C147.327 28.6655 147.667 27.2424 147.667 25.62H147.067ZM146.115 29.5831C145.503 30.6724 144.635 31.5225 143.504 32.1363L143.79 32.6637C145.018 31.9975 145.97 31.0676 146.638 29.8769L146.115 29.5831ZM143.505 32.1354C142.397 32.7279 141.077 33.03 139.537 33.03V33.63C141.156 33.63 142.577 33.3121 143.788 32.6646L143.505 32.1354ZM139.537 30.24C140.58 30.24 141.445 29.8548 142.104 29.0852L141.649 28.6948C141.108 29.3252 140.413 29.64 139.537 29.64V30.24ZM142.101 29.0889C142.791 28.3098 143.107 27.1327 143.107 25.62H142.507C142.507 27.0673 142.202 28.0702 141.652 28.6911L142.101 29.0889ZM143.107 25.62C143.107 24.127 142.791 22.9677 142.098 22.2079L141.655 22.6121C142.202 23.2123 142.507 24.193 142.507 25.62H143.107ZM142.104 22.2148C141.445 21.4452 140.58 21.06 139.537 21.06V21.66C140.413 21.66 141.108 21.9748 141.649 22.6052L142.104 22.2148ZM139.537 21.06C138.493 21.06 137.628 21.4452 136.969 22.2148L137.424 22.6052C137.965 21.9748 138.66 21.66 139.537 21.66V21.06ZM136.972 22.2115C136.301 22.9713 135.997 24.1289 135.997 25.62H136.597C136.597 24.1911 136.892 23.2087 137.422 22.6085L136.972 22.2115ZM135.997 25.62C135.997 27.1309 136.301 28.3064 136.969 29.0852L137.424 28.6948C136.892 28.0736 136.597 27.0691 136.597 25.62H135.997ZM136.969 29.0852C137.628 29.8548 138.493 30.24 139.537 30.24V29.64C138.66 29.64 137.965 29.3252 137.424 28.6948L136.969 29.0852ZM155.032 20.4H154.732V21.5363L155.293 20.5481L155.032 20.4ZM156.892 18.63L156.75 18.3657L156.75 18.3657L156.892 18.63ZM163.012 18.9L162.849 19.152L162.852 19.1535L163.012 18.9ZM165.292 21.54L165.563 21.4116L165.563 21.4116L165.292 21.54ZM165.292 29.73L165.563 29.8584L165.564 29.8566L165.292 29.73ZM163.012 32.4L163.175 32.652L163.176 32.6512L163.012 32.4ZM156.952 32.7L156.813 32.9656L156.815 32.967L156.952 32.7ZM155.092 31.02L155.346 30.8603L154.792 29.979V31.02H155.092ZM160.642 28.89L160.414 28.6948L160.414 28.6948L160.642 28.89ZM160.642 22.41L160.414 22.6053L160.417 22.6085L160.642 22.41ZM155.932 22.41L156.157 22.6085L156.16 22.6052L155.932 22.41ZM155.932 28.89L156.16 28.6948L156.16 28.6948L155.932 28.89ZM152.842 38.37C152.129 38.37 151.65 38.1898 151.346 37.8818C151.041 37.573 150.862 37.0847 150.862 36.36H150.262C150.262 37.1753 150.463 37.842 150.919 38.3032C151.374 38.7652 152.035 38.97 152.842 38.97V38.37ZM150.862 36.36V20.31H150.262V36.36H150.862ZM150.862 20.31C150.862 19.5943 151.036 19.1129 151.332 18.8093C151.626 18.5071 152.09 18.33 152.782 18.33V17.73C151.994 17.73 151.348 17.9329 150.902 18.3907C150.458 18.8471 150.262 19.5057 150.262 20.31H150.862ZM152.782 18.33C153.485 18.33 153.957 18.5077 154.256 18.8107C154.556 19.1145 154.732 19.5953 154.732 20.31H155.332C155.332 19.5047 155.133 18.8455 154.683 18.3893C154.232 17.9323 153.579 17.73 152.782 17.73V18.33ZM154.732 20.31V20.4H155.332V20.31H154.732ZM155.293 20.5481C155.682 19.8619 156.259 19.3102 157.034 18.8943L156.75 18.3657C155.885 18.8298 155.222 19.4581 154.771 20.2519L155.293 20.5481ZM157.034 18.8943C157.806 18.4799 158.677 18.27 159.652 18.27V17.67C158.587 17.67 157.618 17.9001 156.75 18.3657L157.034 18.8943ZM159.652 18.27C160.881 18.27 161.943 18.567 162.849 19.152L163.175 18.648C162.161 17.993 160.983 17.67 159.652 17.67V18.27ZM162.852 19.1535C163.779 19.7405 164.503 20.5751 165.021 21.6684L165.563 21.4116C165.001 20.2249 164.205 19.2995 163.172 18.6465L162.852 19.1535ZM165.021 21.6684C165.538 22.7595 165.802 24.0735 165.802 25.62H166.402C166.402 24.0065 166.126 22.6005 165.563 21.4116L165.021 21.6684ZM165.802 25.62C165.802 27.1663 165.538 28.4912 165.02 29.6034L165.564 29.8566C166.126 28.6488 166.402 27.2337 166.402 25.62H165.802ZM165.021 29.6016C164.503 30.6956 163.778 31.5414 162.848 32.1488L163.176 32.6512C164.206 31.9786 165.001 31.0444 165.563 29.8584L165.021 29.6016ZM162.849 32.148C161.943 32.733 160.881 33.03 159.652 33.03V33.63C160.983 33.63 162.161 33.307 163.175 32.652L162.849 32.148ZM159.652 33.03C158.716 33.03 157.864 32.8299 157.089 32.433L156.815 32.967C157.68 33.4101 158.628 33.63 159.652 33.63V33.03ZM157.091 32.4344C156.334 32.0366 155.755 31.5114 155.346 30.8603L154.838 31.1797C155.309 31.9286 155.97 32.5234 156.813 32.9656L157.091 32.4344ZM154.792 31.02V36.36H155.392V31.02H154.792ZM154.792 36.36C154.792 37.0857 154.615 37.5745 154.315 37.8832C154.015 38.1904 153.544 38.37 152.842 38.37V38.97C153.64 38.97 154.294 38.7646 154.744 38.3018C155.194 37.8405 155.392 37.1743 155.392 36.36H154.792ZM158.302 30.24C159.345 30.24 160.21 29.8548 160.87 29.0852L160.414 28.6948C159.874 29.3252 159.179 29.64 158.302 29.64V30.24ZM160.87 29.0852C161.537 28.3064 161.842 27.1309 161.842 25.62H161.242C161.242 27.0691 160.947 28.0736 160.414 28.6948L160.87 29.0852ZM161.842 25.62C161.842 24.1289 161.537 22.9713 160.867 22.2115L160.417 22.6085C160.947 23.2087 161.242 24.1911 161.242 25.62H161.842ZM160.87 22.2148C160.21 21.4452 159.345 21.06 158.302 21.06V21.66C159.179 21.66 159.874 21.9748 160.414 22.6052L160.87 22.2148ZM158.302 21.06C157.241 21.06 156.365 21.4436 155.704 22.2148L156.16 22.6052C156.699 21.9764 157.403 21.66 158.302 21.66V21.06ZM155.707 22.2115C155.037 22.9713 154.732 24.1289 154.732 25.62H155.332C155.332 24.1911 155.627 23.2087 156.157 22.6085L155.707 22.2115ZM154.732 25.62C154.732 27.1309 155.037 28.3064 155.704 29.0852L156.16 28.6948C155.627 28.0736 155.332 27.0691 155.332 25.62H154.732ZM155.704 29.0852C156.365 29.8564 157.241 30.24 158.302 30.24V29.64C157.403 29.64 156.699 29.3236 156.16 28.6948L155.704 29.0852ZM172.491 32.4L172.354 32.6666L172.359 32.6692L172.491 32.4ZM169.611 29.73L169.351 29.8784L169.354 29.8837L169.611 29.73ZM169.581 21.66L169.321 21.5116L169.32 21.5131L169.581 21.66ZM172.251 18.96L172.4 19.2205L172.402 19.2196L172.251 18.96ZM181.281 20.01L181.061 20.2139L181.063 20.2155L181.281 20.01ZM172.941 26.61V26.31H172.597L172.644 26.651L172.941 26.61ZM174.201 29.16L174.015 29.3951L174.022 29.4008L174.201 29.16ZM178.701 29.79L178.751 30.086L178.758 30.0845L178.701 29.79ZM180.471 29.19L180.341 28.9198L180.337 28.9217L180.471 29.19ZM181.941 29.04L181.818 29.3138L181.83 29.3185L181.941 29.04ZM182.751 29.88L182.468 29.9792L182.473 29.9914L182.751 29.88ZM182.751 31.14L182.469 31.0374L182.467 31.0451L182.751 31.14ZM181.761 32.19L181.619 31.9259L181.618 31.9263L181.761 32.19ZM179.421 33.03L179.36 32.7363L179.352 32.7382L179.421 33.03ZM174.021 21.84L173.813 21.6243L173.809 21.6279L174.021 21.84ZM172.941 24.27L172.644 24.23L172.598 24.57H172.941V24.27ZM179.421 24.27V24.57H179.738L179.721 24.2537L179.421 24.27ZM176.991 33.03C175.287 33.03 173.834 32.7263 172.624 32.1308L172.359 32.6692C173.669 33.3137 175.216 33.63 176.991 33.63V33.03ZM172.629 32.1334C171.436 31.5177 170.519 30.6657 169.869 29.5763L169.354 29.8837C170.064 31.0743 171.067 32.0023 172.354 32.6666L172.629 32.1334ZM169.872 29.5816C169.242 28.474 168.921 27.1668 168.921 25.65H168.321C168.321 27.2532 168.661 28.666 169.351 29.8784L169.872 29.5816ZM168.921 25.65C168.921 24.173 169.232 22.8952 169.843 21.8069L169.32 21.5131C168.651 22.7048 168.321 24.087 168.321 25.65H168.921ZM169.842 21.8084C170.476 20.6934 171.329 19.8329 172.4 19.2205L172.102 18.6995C170.934 19.3671 170.006 20.3066 169.321 21.5116L169.842 21.8084ZM172.402 19.2196C173.491 18.5892 174.747 18.27 176.181 18.27V17.67C174.655 17.67 173.292 18.0108 172.101 18.7004L172.402 19.2196ZM176.181 18.27C178.252 18.27 179.867 18.9248 181.061 20.2139L181.501 19.8061C180.176 18.3752 178.391 17.67 176.181 17.67V18.27ZM181.063 20.2155C182.258 21.4868 182.871 23.2264 182.871 25.47H183.471C183.471 23.1136 182.824 21.2132 181.5 19.8045L181.063 20.2155ZM182.871 25.47C182.871 25.7849 182.777 25.973 182.63 26.0917C182.471 26.2203 182.199 26.31 181.761 26.31V26.91C182.264 26.91 182.697 26.8097 183.007 26.5583C183.331 26.297 183.471 25.9151 183.471 25.47H182.871ZM181.761 26.31H172.941V26.91H181.761V26.31ZM172.644 26.651C172.811 27.8602 173.256 28.7922 174.015 29.3949L174.388 28.9251C173.787 28.4478 173.392 27.6798 173.239 26.569L172.644 26.651ZM174.022 29.4008C174.791 29.9719 175.822 30.24 177.081 30.24V29.64C175.901 29.64 175.011 29.3881 174.38 28.9192L174.022 29.4008ZM177.081 30.24C177.582 30.24 178.138 30.188 178.751 30.0859L178.652 29.4941C178.064 29.592 177.541 29.64 177.081 29.64V30.24ZM178.758 30.0845C179.405 29.9594 180.021 29.7506 180.605 29.4583L180.337 28.9217C179.802 29.1894 179.238 29.3806 178.644 29.4955L178.758 30.0845ZM180.602 29.4602C181.14 29.2002 181.531 29.1844 181.818 29.3136L182.064 28.7664C181.551 28.5356 180.962 28.6198 180.341 28.9198L180.602 29.4602ZM181.83 29.3185C182.151 29.447 182.357 29.6625 182.468 29.9791L183.034 29.7809C182.865 29.2975 182.532 28.953 182.053 28.7615L181.83 29.3185ZM182.473 29.9914C182.603 30.3168 182.607 30.6603 182.469 31.0375L183.033 31.2425C183.216 30.7397 183.22 30.2432 183.03 29.7686L182.473 29.9914ZM182.467 31.0451C182.358 31.3712 182.095 31.6697 181.619 31.9259L181.904 32.4541C182.468 32.1503 182.865 31.7488 183.036 31.2349L182.467 31.0451ZM181.618 31.9263C180.946 32.2911 180.194 32.5617 179.36 32.7364L179.483 33.3236C180.368 33.1383 181.176 32.8489 181.904 32.4537L181.618 31.9263ZM179.352 32.7382C178.532 32.9333 177.746 33.03 176.991 33.03V33.63C177.797 33.63 178.63 33.5267 179.491 33.3218L179.352 32.7382ZM176.361 20.67C175.336 20.67 174.477 20.982 173.813 21.6243L174.23 22.0557C174.765 21.538 175.467 21.27 176.361 21.27V20.67ZM173.809 21.6279C173.171 22.2659 172.79 23.1432 172.644 24.23L173.239 24.31C173.372 23.3168 173.712 22.5741 174.233 22.0521L173.809 21.6279ZM172.941 24.57H179.421V23.97H172.941V24.57ZM179.721 24.2537C179.659 23.1155 179.362 22.2117 178.786 21.591C178.205 20.9637 177.38 20.67 176.361 20.67V21.27C177.263 21.27 177.908 21.5263 178.346 21.999C178.791 22.4783 179.064 23.2244 179.122 24.2863L179.721 24.2537ZM189.425 32.4L189.287 32.6666L189.292 32.6692L189.425 32.4ZM186.545 29.73L186.284 29.8784L186.287 29.8837L186.545 29.73ZM186.515 21.66L186.254 21.5116L186.253 21.5131L186.515 21.66ZM189.185 18.96L189.334 19.2205L189.335 19.2196L189.185 18.96ZM198.215 20.01L197.995 20.2139L197.996 20.2155L198.215 20.01ZM189.875 26.61V26.31H189.531L189.578 26.651L189.875 26.61ZM191.135 29.16L190.948 29.3951L190.956 29.4008L191.135 29.16ZM195.635 29.79L195.684 30.086L195.692 30.0845L195.635 29.79ZM197.405 29.19L197.274 28.9198L197.271 28.9217L197.405 29.19ZM198.875 29.04L198.752 29.3138L198.764 29.3185L198.875 29.04ZM199.685 29.88L199.401 29.9792L199.406 29.9914L199.685 29.88ZM199.685 31.14L199.403 31.0374L199.4 31.0451L199.685 31.14ZM198.695 32.19L198.553 31.9259L198.552 31.9263L198.695 32.19ZM196.355 33.03L196.293 32.7363L196.285 32.7382L196.355 33.03ZM190.955 21.84L190.746 21.6243L190.743 21.6279L190.955 21.84ZM189.875 24.27L189.578 24.23L189.532 24.57H189.875V24.27ZM196.355 24.27V24.57H196.672L196.654 24.2537L196.355 24.27ZM193.925 33.03C192.22 33.03 190.768 32.7263 189.557 32.1308L189.292 32.6692C190.602 33.3137 192.15 33.63 193.925 33.63V33.03ZM189.563 32.1334C188.37 31.5177 187.452 30.6657 186.803 29.5763L186.287 29.8837C186.997 31.0743 188 32.0023 189.287 32.6666L189.563 32.1334ZM186.806 29.5816C186.175 28.474 185.855 27.1668 185.855 25.65H185.255C185.255 27.2532 185.594 28.666 186.284 29.8784L186.806 29.5816ZM185.855 25.65C185.855 24.173 186.166 22.8952 186.777 21.8069L186.253 21.5131C185.584 22.7048 185.255 24.087 185.255 25.65H185.855ZM186.776 21.8084C187.41 20.6934 188.262 19.8329 189.334 19.2205L189.036 18.6995C187.868 19.3671 186.94 20.3066 186.254 21.5116L186.776 21.8084ZM189.335 19.2196C190.424 18.5892 191.681 18.27 193.115 18.27V17.67C191.589 17.67 190.226 18.0108 189.035 18.7004L189.335 19.2196ZM193.115 18.27C195.186 18.27 196.801 18.9248 197.995 20.2139L198.435 19.8061C197.109 18.3752 195.324 17.67 193.115 17.67V18.27ZM197.996 20.2155C199.192 21.4868 199.805 23.2264 199.805 25.47H200.405C200.405 23.1136 199.758 21.2132 198.433 19.8045L197.996 20.2155ZM199.805 25.47C199.805 25.7849 199.711 25.973 199.564 26.0917C199.405 26.2203 199.132 26.31 198.695 26.31V26.91C199.198 26.91 199.63 26.8097 199.941 26.5583C200.264 26.297 200.405 25.9151 200.405 25.47H199.805ZM198.695 26.31H189.875V26.91H198.695V26.31ZM189.578 26.651C189.745 27.8602 190.189 28.7922 190.948 29.3949L191.321 28.9251C190.72 28.4478 190.325 27.6798 190.172 26.569L189.578 26.651ZM190.956 29.4008C191.725 29.9719 192.756 30.24 194.015 30.24V29.64C192.834 29.64 191.945 29.3881 191.314 28.9192L190.956 29.4008ZM194.015 30.24C194.515 30.24 195.072 30.188 195.684 30.0859L195.586 29.4941C194.998 29.592 194.475 29.64 194.015 29.64V30.24ZM195.692 30.0845C196.338 29.9594 196.954 29.7506 197.539 29.4583L197.271 28.9217C196.735 29.1894 196.171 29.3806 195.578 29.4955L195.692 30.0845ZM197.535 29.4602C198.074 29.2002 198.465 29.1844 198.752 29.3136L198.998 28.7664C198.485 28.5356 197.896 28.6198 197.274 28.9198L197.535 29.4602ZM198.764 29.3185C199.085 29.447 199.291 29.6625 199.402 29.9791L199.968 29.7809C199.799 29.2975 199.465 28.953 198.986 28.7615L198.764 29.3185ZM199.406 29.9914C199.537 30.3168 199.54 30.6603 199.403 31.0375L199.967 31.2425C200.15 30.7397 200.153 30.2432 199.963 29.7686L199.406 29.9914ZM199.4 31.0451C199.292 31.3712 199.028 31.6697 198.553 31.9259L198.837 32.4541C199.401 32.1503 199.798 31.7488 199.97 31.2349L199.4 31.0451ZM198.552 31.9263C197.88 32.2911 197.128 32.5617 196.293 32.7364L196.416 33.3236C197.302 33.1383 198.11 32.8489 198.838 32.4537L198.552 31.9263ZM196.285 32.7382C195.466 32.9333 194.679 33.03 193.925 33.03V33.63C194.731 33.63 195.564 33.5267 196.424 33.3218L196.285 32.7382ZM193.295 20.67C192.27 20.67 191.411 20.982 190.746 21.6243L191.163 22.0557C191.699 21.538 192.4 21.27 193.295 21.27V20.67ZM190.743 21.6279C190.105 22.2659 189.724 23.1432 189.578 24.23L190.172 24.31C190.306 23.3168 190.645 22.5741 191.167 22.0521L190.743 21.6279ZM189.875 24.57H196.355V23.97H189.875V24.57ZM196.654 24.2537C196.592 23.1155 196.295 22.2117 195.72 21.591C195.138 20.9637 194.314 20.67 193.295 20.67V21.27C194.196 21.27 194.842 21.5263 195.28 21.999C195.724 22.4783 195.997 23.2244 196.055 24.2863L196.654 24.2537ZM215.839 19.32L215.646 19.5505L215.65 19.5532L215.839 19.32ZM216.469 24.09L216.228 23.91L216.224 23.9156L216.469 24.09ZM214.789 25.32L214.687 25.0378L213.753 25.3752L214.717 25.6114L214.789 25.32ZM216.949 26.61L216.708 26.7888L216.949 26.61ZM216.139 31.89L216.319 32.1294L216.32 32.1288L216.139 31.89ZM207.379 24.15H207.079V24.45H207.379V24.15ZM212.509 21.36L212.326 21.5983L212.326 21.5983L212.509 21.36ZM207.379 20.97V20.67H207.079V20.97H207.379ZM207.379 30.3H207.079V30.6H207.379V30.3ZM207.379 26.82V26.52H207.079V26.82H207.379ZM205.399 32.7C204.716 32.7 204.259 32.5273 203.97 32.2343C203.68 31.9406 203.509 31.4748 203.509 30.78H202.909C202.909 31.5652 203.102 32.2094 203.542 32.6557C203.983 33.1027 204.621 33.3 205.399 33.3V32.7ZM203.509 30.78V20.49H202.909V30.78H203.509ZM203.509 20.49C203.509 19.7952 203.68 19.3294 203.97 19.0357C204.259 18.7427 204.716 18.57 205.399 18.57V17.97C204.621 17.97 203.983 18.1673 203.542 18.6143C203.102 19.0606 202.909 19.7048 202.909 20.49H203.509ZM205.399 18.57H211.579V17.97H205.399V18.57ZM211.579 18.57C213.56 18.57 214.89 18.9199 215.646 19.5505L216.031 19.0895C215.107 18.3201 213.597 17.97 211.579 17.97V18.57ZM215.65 19.5532C216.411 20.1694 216.799 21.0192 216.799 22.14H217.399C217.399 20.8608 216.946 19.8306 216.027 19.0868L215.65 19.5532ZM216.799 22.14C216.799 22.819 216.607 23.405 216.229 23.91L216.709 24.27C217.17 23.655 217.399 22.941 217.399 22.14H216.799ZM216.224 23.9156C215.864 24.4206 215.356 24.7961 214.687 25.0378L214.89 25.6022C215.661 25.3239 216.273 24.8794 216.713 24.2644L216.224 23.9156ZM214.717 25.6114C215.65 25.8399 216.301 26.2402 216.708 26.7888L217.189 26.4312C216.676 25.7398 215.887 25.2801 214.86 25.0286L214.717 25.6114ZM216.708 26.7888C217.124 27.35 217.339 28.035 217.339 28.86H217.939C217.939 27.925 217.693 27.11 217.189 26.4312L216.708 26.7888ZM217.339 28.86C217.339 30.0266 216.882 30.9481 215.957 31.6512L216.32 32.1288C217.395 31.3119 217.939 30.2134 217.939 28.86H217.339ZM215.958 31.6506C215.051 32.335 213.687 32.7 211.819 32.7V33.3C213.75 33.3 215.266 32.925 216.319 32.1294L215.958 31.6506ZM211.819 32.7H205.399V33.3H211.819V32.7ZM207.379 24.45H211.099V23.85H207.379V24.45ZM211.099 24.45C211.743 24.45 212.289 24.2995 212.699 23.9616L212.318 23.4984C212.048 23.7205 211.654 23.85 211.099 23.85V24.45ZM212.699 23.9616C213.121 23.6141 213.319 23.1217 213.319 22.53H212.719C212.719 22.9783 212.576 23.2859 212.318 23.4984L212.699 23.9616ZM213.319 22.53C213.319 21.939 213.121 21.4508 212.691 21.1217L212.326 21.5983C212.576 21.7892 212.719 22.081 212.719 22.53H213.319ZM212.691 21.1217C212.281 20.8084 211.739 20.67 211.099 20.67V21.27C211.659 21.27 212.056 21.3916 212.326 21.5983L212.691 21.1217ZM211.099 20.67H207.379V21.27H211.099V20.67ZM207.079 20.97V24.15H207.679V20.97H207.079ZM207.379 30.6H211.369V30H207.379V30.6ZM211.369 30.6C212.13 30.6 212.757 30.45 213.198 30.0999C213.652 29.7393 213.859 29.2069 213.859 28.56H213.259C213.259 29.0731 213.101 29.4107 212.824 29.6301C212.535 29.86 212.067 30 211.369 30V30.6ZM213.859 28.56C213.859 27.9131 213.652 27.3807 213.198 27.0201C212.757 26.67 212.13 26.52 211.369 26.52V27.12C212.067 27.12 212.535 27.26 212.824 27.4899C213.101 27.7093 213.259 28.0469 213.259 28.56H213.859ZM211.369 26.52H207.379V27.12H211.369V26.52ZM207.079 26.82V30.3H207.679V26.82H207.079Z" fill="black"/>
</svg>
